<svg width="118" height="117" viewBox="0 0 118 117" fill="none" xmlns="http://www.w3.org/2000/svg">
<path fill-rule="evenodd" clip-rule="evenodd" d="M58.4994 116.489C58.5943 116.466 58.6902 116.445 58.7952 116.436C59.0362 116.413 59.2761 116.386 59.5166 116.363C59.7226 116.254 59.9296 116.147 60.1376 116.045C59.9844 116.034 59.8312 116.027 59.6785 116.015C58.6531 115.936 57.6273 115.928 56.6035 115.859C56.6847 115.914 56.7643 115.973 56.845 116.029C57.396 116.185 57.9464 116.341 58.4994 116.489Z" fill="#FEFEFE"/>
<path fill-rule="evenodd" clip-rule="evenodd" d="M56.8876 0.515625C56.8871 0.575998 56.8902 0.635863 56.8978 0.695221C56.329 1.15131 55.7629 1.1574 55.1992 0.687103C55.2018 0.629775 55.2063 0.572446 55.2114 0.515625C55.77 0.515625 56.329 0.515625 56.8876 0.515625Z" fill="#DFBBDC"/>
<path fill-rule="evenodd" clip-rule="evenodd" d="M73.6148 85.2394C71.4683 87.252 69.0859 88.6989 66.4691 89.8161C61.2141 92.059 56.4011 91.332 51.9538 87.836C50.8301 86.9539 49.9178 85.8698 49.0054 84.7856C48.5707 84.2691 48.1361 83.7525 47.6785 83.2578C47.6114 83.1852 47.5487 83.1085 47.4834 83.0286C47.3432 82.8572 47.191 82.6709 46.9571 82.4785C46.8728 82.9539 46.8872 83.3947 46.9011 83.8217C46.9084 84.0451 46.9155 84.2647 46.9084 84.4835C46.8282 87.4783 45.8364 90.1418 43.9785 92.4801C43.6447 92.9007 43.3469 93.2994 43.3652 93.8712C43.4 94.9721 43.3266 96.069 43.2532 97.1665C43.1801 98.2584 43.107 99.3509 43.1404 100.449C43.2409 103.725 43.5402 106.983 43.8928 110.237C43.9141 110.434 43.9298 110.631 43.944 110.829C42.5448 110.555 41.1238 110.342 39.6865 110.175C39.5242 110.068 39.3537 109.965 39.168 109.866C37.5065 108.985 36.0444 107.767 34.6259 106.529C33.181 105.269 31.7742 103.966 30.4297 102.594C28.9711 101.105 27.7586 99.4549 26.9814 97.5219C26.6841 96.7818 26.2473 96.5256 25.4807 96.5362C23.6579 96.5626 21.8731 96.8548 20.0862 97.1683C16.92 97.7234 13.8131 98.5173 10.728 99.4108C9.86097 99.6619 9.41655 100.166 9.27804 101.092C9.13904 102.019 9.00423 102.948 8.86943 103.876C8.66329 105.296 8.45715 106.716 8.23599 108.134C7.67031 108.02 7.10819 107.896 6.55063 107.761C6.853 105.767 7.22487 103.785 7.65357 101.814C7.66548 101.759 7.68136 101.705 7.69762 101.649C7.76862 101.404 7.84697 101.135 7.6348 100.738C7.02241 101.199 6.3624 101.579 5.70451 101.959C4.62593 102.581 3.55304 103.199 2.70505 104.163C2.50726 104.389 2.32078 104.624 2.13436 104.859C2.02002 105.003 1.9057 105.147 1.78881 105.289C1.43723 104.969 1.10138 104.631 0.78125 104.274C2.51937 101.599 5.00327 99.8019 7.94427 98.5356C8.31306 98.3768 8.66888 98.1876 9.02475 97.9983C9.19075 97.91 9.35676 97.8218 9.5241 97.7365C10.9325 96.8371 12.4991 96.5387 14.1398 96.5205C17.0494 95.7813 20.0213 95.4835 23.0019 95.2065C26.853 94.8488 30.7057 94.4795 34.5396 93.9772C36.4929 93.7215 38.4273 93.2391 40.3323 92.7206C42.1445 92.2274 43.2622 90.9622 44.1541 89.2743C45.3478 87.0161 45.5462 84.6651 45.6416 82.2122C45.6877 81.0205 45.3438 80.1068 44.6883 79.1682C41.937 75.2283 39.8118 70.9824 38.6282 66.2997C38.4801 65.7153 38.1934 65.2643 37.7576 64.8168C36.3904 63.414 35.6243 61.6597 35.1256 59.7856C35.1096 59.7258 35.0983 59.6643 35.0874 59.6043C35.0373 59.33 34.9933 59.0888 34.5249 59.1991C33.6188 59.4122 33.4595 59.5476 33.5808 60.1864C33.6292 60.4412 33.6811 60.6951 33.7358 60.9624C33.7613 61.0873 33.7875 61.215 33.8141 61.3472C33.7798 61.3287 33.7518 61.3146 33.7282 61.3027C33.6876 61.2824 33.6601 61.2685 33.6361 61.2503C33.4031 61.0716 33.2793 60.7939 33.1547 60.5143C32.9403 60.0333 32.7234 59.5467 31.9441 59.5487C31.5655 59.5496 31.1925 59.4849 30.8145 59.4193C30.3827 59.3444 29.9445 59.2684 29.4841 59.2879C27.5628 59.3691 25.6639 59.0961 23.84 58.4001C21.2211 57.4006 19.5637 54.5154 20.1735 51.8519C20.1811 51.8179 20.1867 51.7834 20.1918 51.7489C20.3524 50.6613 20.3501 50.6602 19.3633 50.1884L19.341 50.1777C16.8814 49.0022 15.1763 47.1779 14.501 44.487C14.0779 42.8016 14.4381 41.2238 15.329 39.7866C15.6643 39.2452 15.711 38.7536 15.5548 38.2062C15.3442 37.4706 15.1261 36.7329 14.847 36.0211C13.9617 33.7635 14.3072 31.6591 15.5507 29.6394C16.4918 28.1103 17.6384 26.7532 19.0041 25.598C20.5312 24.3063 21.9233 22.8883 23.0663 21.2542C23.5549 20.5561 23.9105 19.7439 24.2103 18.9408C24.3097 18.6748 24.4073 18.4077 24.5048 18.1406C25.1975 16.2436 25.8916 14.3427 27.264 12.8072C30.9284 8.70588 35.397 6.29352 41.0446 6.53552C41.6098 6.55987 42.0618 6.41579 42.5073 6.12001C42.8946 5.86295 43.2796 5.60196 43.6646 5.34095C44.6072 4.70202 45.55 4.06293 46.5269 3.48087C49.1964 1.89038 52.0715 0.885359 55.1982 0.6875C55.4813 0.688768 55.7644 0.690163 56.0474 0.691559C56.3305 0.692954 56.6136 0.694349 56.8967 0.695617C60.7027 0.876227 63.9441 2.48548 66.9531 4.67614C67.1692 4.83356 67.386 4.99017 67.6028 5.14679C68.4811 5.78114 69.3598 6.4158 70.1919 7.10626C70.5595 7.41092 70.8209 7.35113 71.192 7.26624L71.2172 7.26049C72.5068 6.96573 73.798 6.68721 75.1434 6.91449C76.9561 7.22143 78.5324 8.04077 79.8636 9.24568C81.0462 10.3156 82.2131 11.4566 83.143 12.7422C85.286 15.7035 86.8334 18.9738 87.5391 22.5916C87.7121 23.4769 87.7983 24.3845 87.8546 25.2865C87.9201 26.3306 87.9257 27.3792 87.9251 28.4259C87.9246 30.6794 88.5644 32.6743 90.1681 34.3241C90.8474 35.0237 91.477 35.7756 92.0934 36.5325C93.3135 38.0317 94.1486 39.7216 94.1232 41.6835C94.1156 42.2848 93.9522 42.884 93.7888 43.4832C93.7144 43.756 93.6401 44.0288 93.5804 44.3018C92.9092 45.0348 92.7014 44.4032 92.5412 43.9163L92.5368 43.9031C92.3882 43.4524 92.366 42.969 92.3442 42.4928C92.3388 42.3756 92.3335 42.2588 92.3263 42.1431C92.1857 39.8885 91.0889 38.1139 89.6369 36.495C88.8911 35.664 88.193 34.799 87.6005 33.8452C86.3671 31.861 86.0866 29.6597 86.1622 27.4072C86.3463 21.9158 84.4454 17.1393 81.167 12.8711C79.507 10.7098 77.4624 8.97832 74.6493 8.43852C73.8061 8.27719 72.9857 8.3822 72.1563 8.52223C71.6444 8.60898 71.5119 8.87482 71.6768 9.33193C72.146 10.6309 71.9629 11.9395 71.7797 13.2486C71.7695 13.3209 71.7594 13.3933 71.7494 13.4657C71.531 13.9895 71.4484 14.5453 71.3658 15.1016C71.28 15.6788 71.1941 16.2565 70.9564 16.7993C70.7188 17.3427 71.1076 17.5466 71.4638 17.7334C71.5083 17.7568 71.5524 17.7799 71.5946 17.8034C74.0775 19.1803 76.0536 21.1208 77.7577 23.3556C79.5222 25.6695 80.4714 28.3594 81.269 31.1142C82.0708 33.8846 82.3854 36.7326 82.6999 39.5804C82.7751 40.2606 82.8502 40.9409 82.932 41.6201C82.9887 42.0908 83.0353 42.563 83.082 43.0363C83.2167 44.4014 83.3523 45.7757 83.7336 47.1515C83.9709 47.1345 84.1617 47.0076 84.3509 46.8816C84.5299 46.7625 84.7075 46.6443 84.9217 46.6208C86.1327 46.4554 86.9977 46.9942 87.6522 47.9642C88.7922 49.6542 88.745 51.4988 88.3457 53.4064C90.6962 52.1715 92.1035 50.2518 92.6854 47.6999C92.7755 47.3063 92.8486 46.9092 92.9217 46.5125C92.9936 46.1224 93.0654 45.7325 93.1532 45.3464C93.1667 45.2867 93.177 45.2211 93.1877 45.1537C93.2442 44.7939 93.3092 44.3809 93.9167 44.5134C94.593 45.9588 94.4469 47.4493 94.0552 48.9104C93.3566 51.5166 91.8341 53.5266 89.2818 54.4992C87.9206 55.0182 87.2666 55.8314 86.9577 57.2068C86.6683 58.4949 86.297 59.7642 85.9257 61.0336C85.7403 61.6672 85.555 62.3007 85.3799 62.9366C85.1785 63.6682 84.8106 64.1892 84.1318 64.6296C83.522 65.0253 83.0182 65.6899 82.6596 66.3413C82.3176 66.963 82.0821 67.6442 81.8472 68.3238C81.774 68.5355 81.7009 68.7471 81.6246 68.9566C81.2475 69.9925 80.8794 71.032 80.5112 72.0714C79.6598 74.4753 78.8084 76.8789 77.8475 79.2377C77.4343 80.2514 76.7272 81.1532 76.0281 82.0447C75.8395 82.2851 75.6516 82.5248 75.4701 82.7657C75.0937 83.2654 74.8416 83.7129 74.904 84.3633C74.9635 84.9839 74.958 85.6112 74.9526 86.2376C74.9513 86.3804 74.9501 86.523 74.9496 86.6656C74.938 89.9871 76.4417 92.4461 79.195 94.2187C81.5475 95.7326 84.1724 96.5301 86.8638 97.1207C88.7815 97.5414 90.7048 97.9366 92.6281 98.3317C94.5891 98.7346 96.55 99.1375 98.5051 99.5675C101.358 100.195 104.203 100.858 107.049 101.522C108.272 101.807 109.496 102.092 110.72 102.375C112.71 102.641 114.44 103.561 116.17 104.481C116.346 104.575 116.522 104.668 116.698 104.761C117.108 104.978 117.434 105.284 117.651 105.699C117.739 105.777 117.829 105.854 117.919 105.931L117.961 105.968C117.358 106.366 116.745 106.744 116.12 107.095C112.672 104.828 108.761 103.694 104.799 102.685C104.726 102.666 104.661 102.685 104.546 102.768C105.121 104.817 105.463 106.938 105.692 109.082C105.756 109.683 105.774 110.282 105.773 110.882C105.143 111.016 104.511 111.142 103.877 111.258C103.768 110.197 103.689 109.133 103.61 108.069C103.493 106.494 103.377 104.919 103.163 103.352C103.055 102.555 102.767 102.187 102.007 102.02C101.19 101.84 100.374 101.65 99.559 101.46C98.678 101.255 97.797 101.049 96.913 100.857C96.2758 100.718 95.7599 100.866 95.2936 101.322C91.2811 105.248 86.4935 108.011 81.4962 110.442C80.614 110.871 79.8855 111.367 79.3999 112.223C79.2579 112.475 79.0712 112.697 78.8434 112.868C78.401 112.871 77.9586 112.876 77.5162 112.881C77.4863 112.774 77.4771 112.64 77.499 112.462C77.5225 112.238 77.5691 112.017 77.6157 111.797C77.6372 111.695 77.6588 111.593 77.6781 111.49C77.6881 111.436 77.7026 111.385 77.7171 111.334C77.7195 111.325 77.7219 111.317 77.7242 111.308C77.7152 111.338 77.7071 111.368 77.699 111.398C77.6829 111.458 77.6668 111.518 77.6436 111.577C77.6287 111.7 77.6015 111.822 77.5743 111.943C77.5405 112.095 77.5066 112.247 77.4964 112.403C77.4538 112.518 77.4406 112.64 77.4275 112.762C77.4231 112.802 77.4187 112.843 77.4132 112.883C77.0043 112.888 76.5959 112.894 76.1875 112.899L76.1221 112.429C75.7719 111.956 75.8543 111.439 75.9355 110.928C75.9467 110.858 75.9578 110.788 75.9678 110.719C76.639 106.034 77.0129 101.322 77.3417 96.6037C77.4254 95.4054 77.1149 94.4511 76.1829 93.6409C75.5676 93.1061 75.0166 92.4537 74.8811 91.5897C74.0902 92.093 73.8061 91.9459 73.3906 90.7765C73.3996 90.2677 73.3895 89.758 73.3794 89.2454C73.3536 87.9405 73.3274 86.6167 73.6148 85.2394ZM78.7572 96.9322C78.8805 101.467 78.4762 105.968 77.9024 110.459C77.8719 110.7 77.8247 110.937 77.7649 111.169C77.9046 110.769 78.1479 110.427 78.392 110.084C78.507 109.923 78.6222 109.761 78.7268 109.593C80.1488 107.305 81.1336 104.807 82.1092 102.309C82.3899 101.591 82.6578 100.867 82.9258 100.143C83.093 99.6911 83.2603 99.2392 83.4308 98.7885C83.5845 98.3816 83.727 97.9884 83.1324 97.7764L83.1123 97.7692C81.6518 97.2485 80.1906 96.7276 78.8962 95.8226C78.6999 96.1613 78.7231 96.456 78.7448 96.731C78.7501 96.7991 78.7554 96.8661 78.7572 96.9322Z" fill="#89007E"/>
<path fill-rule="evenodd" clip-rule="evenodd" d="M57.1092 116.104C57.3953 116.128 57.681 116.152 57.9671 116.174C58.2446 116.197 58.5262 116.165 58.8042 116.185C59.1081 116.206 59.412 116.234 59.7154 116.26C64.4736 113.795 69.7615 113.001 75.2818 112.91C75.4609 112.907 75.6405 112.905 75.8196 112.902C75.8703 112.735 76.022 112.586 76.123 112.427C76.3624 110.288 76.6136 108.15 76.8368 106.009C76.9986 104.455 77.1468 102.898 77.2594 101.339C77.4045 99.3295 77.5197 97.3175 77.6171 95.3044C77.6308 95.0203 77.5516 94.6595 77.3761 94.4515C76.5151 93.4293 75.607 92.4461 74.7161 91.4497C74.4914 91.9722 74.1647 91.8515 73.8856 91.3918C73.7471 91.163 73.703 90.8769 73.6163 90.6161C73.4752 90.3163 73.5807 89.9961 73.5381 89.6887C73.5026 89.4315 73.6939 89.0687 73.3682 88.9419C73.0759 88.8278 72.8689 89.1139 72.6787 89.3173C72.5595 89.4447 72.4636 89.5923 72.3444 89.7197C66.4801 95.9872 59.3805 96.1587 52.7101 91.3898C50.4302 89.7597 48.9122 87.428 47.4171 85.1045C47.2233 84.8031 47.1579 84.349 46.6556 84.3516C46.5947 86.5884 45.9565 88.672 44.9058 90.6247C44.5314 91.3213 44.1022 92.0498 43.5132 92.5435C43.2007 92.8052 43.0723 92.9788 43.0586 93.3278C42.9972 94.8249 42.8506 96.3236 42.8892 97.8182C42.9734 101.125 43.0333 104.441 43.3341 107.732C43.4254 108.731 43.4401 109.743 43.5167 110.748C48.2735 111.634 52.7887 113.203 56.851 116.03C56.9367 116.056 57.0224 116.081 57.1092 116.104Z" fill="#FCBEAC"/>
<path fill-rule="evenodd" clip-rule="evenodd" d="M40.541 110.281C40.406 110.103 40.2584 109.949 40.1021 109.927C39.2087 109.8 38.638 109.207 37.952 108.736C35.2393 106.872 32.8635 104.635 30.5597 102.305C28.9713 100.698 27.6953 98.8989 26.9724 96.7463C26.8506 96.383 26.7116 96.2273 26.3316 96.2527C24.8411 96.3521 23.3186 96.2795 21.8635 96.5606C18.4989 97.2115 15.1632 98.0156 11.8244 98.7949C11.0858 98.9674 10.3633 99.2515 9.6759 99.5737C9.42527 99.6908 9.17516 100.051 9.13153 100.332C8.72921 102.913 8.36191 105.499 7.98242 108.084C18.2873 110.214 29.89 108.896 40.541 110.281Z" fill="#AF96A9"/>
<path fill-rule="evenodd" clip-rule="evenodd" d="M6.37649 107.723C6.52616 107.76 6.67734 107.794 6.82751 107.829C7.13496 105.26 7.84928 102.75 8.26529 100.094C6.78946 100.986 5.51099 101.747 4.24469 102.528C3.47709 103.002 2.76074 103.519 2.22145 104.287C2.02562 104.565 1.82268 104.844 1.60352 105.117C1.69686 105.206 1.79427 105.288 1.88965 105.374C3.31525 106.273 4.82203 107.034 6.37649 107.723Z" fill="#AF96A9"/>
<path fill-rule="evenodd" clip-rule="evenodd" d="M95.2553 112.343C98.2283 112.102 101.214 111.75 104.16 111.201C103.894 108.369 103.647 105.536 103.41 102.703C103.374 102.27 103.285 102.014 102.793 101.907C100.727 101.459 98.6727 100.958 96.6114 100.488C96.064 100.363 95.6434 100.511 95.2315 100.964C94.5552 101.708 93.8252 102.428 93.0185 103.024C91.285 104.305 89.5418 105.589 87.7022 106.706C85.5638 108.005 83.3381 109.166 81.1074 110.303C80.4037 110.661 79.8086 111.015 79.4002 111.718C79.1475 112.152 78.7625 112.542 78.3581 112.848C78.3465 112.857 78.3373 112.86 78.3262 112.868C83.9728 112.809 89.6234 112.799 95.2553 112.343Z" fill="#AF96A9"/>
<path fill-rule="evenodd" clip-rule="evenodd" d="M93.9184 44.5166C93.3811 44.7617 93.4227 45.2827 93.3476 45.7393C93.0503 47.5576 92.7692 49.4007 91.5998 50.8979C90.9687 51.7055 90.1682 52.3884 89.4011 53.0794C88.9937 53.4462 88.494 53.71 87.91 54.1067C88.0262 53.5644 88.1368 53.1276 88.2119 52.6847C88.4671 51.1769 88.3945 49.7132 87.6021 48.35C87.0136 47.3379 86.181 46.754 84.969 46.8164C84.9056 46.7347 84.8143 46.6429 84.8402 46.5455C85.3521 44.608 84.6809 42.7288 84.5662 40.8222C84.5601 40.7188 84.5763 40.6168 84.5941 40.5163C85.6392 39.7137 85.0669 38.8147 84.7412 37.9299C84.6834 37.7818 84.6428 37.6306 84.6316 37.4713C85.0035 33.0763 84.5505 28.8436 82.306 24.9255C81.0925 22.8074 79.6375 20.9348 77.563 19.5874C76.2764 18.7518 75.0233 17.8457 73.6575 17.1577C72.0939 16.3709 71.1244 15.3623 71.5339 13.4902C71.546 12.3533 71.5592 11.2164 71.5704 10.0795C71.5709 10.0099 71.5694 9.93841 71.5547 9.87094C71.4486 9.37477 71.339 8.87961 71.2305 8.38446C71.7383 8.29314 72.2431 8.17696 72.7545 8.11506C74.3632 7.92025 75.867 8.27335 77.2642 9.06834C79.9195 10.5797 81.8114 12.8388 83.2811 15.4521C84.5459 17.7006 85.6255 20.0531 86.0547 22.6222C86.2881 24.0204 86.3302 25.4511 86.4393 26.8691C86.5458 28.2541 86.5093 29.6625 86.7492 31.0226C87.1125 33.0783 88.3849 34.6779 89.7425 36.1969C90.9571 37.555 92.0859 38.9771 92.4212 40.8309C92.5815 41.7157 92.6155 42.6238 92.6982 43.5223C92.7723 44.3304 92.8915 44.4416 93.581 44.3046C93.6941 44.3756 93.8062 44.4461 93.9184 44.5166Z" fill="#C6955E"/>
<path fill-rule="evenodd" clip-rule="evenodd" d="M105.435 109.363C105.479 109.881 105.526 110.406 105.54 110.931C106.838 110.659 108.125 110.345 109.398 109.981C111.83 109.199 114.181 108.209 116.393 106.935C113.572 105.071 110.44 103.896 107.177 103.009C106.161 102.733 105.136 102.489 104.072 102.219C104.293 103.044 104.528 103.735 104.657 104.445C104.954 106.08 105.295 107.714 105.435 109.363Z" fill="#AF96A9"/>
<path fill-rule="evenodd" clip-rule="evenodd" d="M14.1397 96.5172C13.3188 96.7116 12.4944 96.8906 11.6791 97.1042C10.9551 97.294 10.2418 97.5223 9.52344 97.7333C10.6264 96.708 11.8135 95.9617 13.4197 96.4833C13.6409 96.5548 13.8992 96.5091 14.1397 96.5172Z" fill="#985287"/>
<path fill-rule="evenodd" clip-rule="evenodd" d="M48.0852 41.7875C49.5326 41.3477 50.9663 41.5942 52.4036 41.8606C52.8784 41.9489 53.3635 41.9996 53.8454 42.025C53.988 42.0326 54.2675 41.8778 54.2614 41.823C54.2411 41.6424 54.163 41.406 54.025 41.3137C53.7719 41.1447 53.4685 40.9951 53.1712 40.957C51.8303 40.7881 50.4843 40.6608 49.1404 40.5182C48.9284 40.2975 49.0019 40.0499 49.1257 39.8419C50.5204 37.5077 51.4153 34.9096 53.0007 32.6713C54.5364 30.503 56.4972 28.9251 58.9263 27.8633C61.3194 26.8172 63.749 25.8401 65.9296 24.3551C67.3288 23.4023 68.3744 22.2157 68.9654 20.6074C69.4469 19.297 70.0202 19.191 71.1115 20.1128C72.3925 21.1944 73.7881 22.1223 75.1412 23.1066C76.0934 23.7996 76.7373 24.7457 77.446 25.6452C78.691 27.6472 79.5053 29.816 79.9542 32.1254C80.6813 34.8685 80.1049 37.6188 79.9964 40.366C79.9882 40.5745 79.9096 40.7714 79.7716 40.9347C79.3525 41.2295 78.9705 40.9652 78.588 40.8383C77.2989 40.4122 76.0148 39.9718 74.7191 39.5654C73.366 39.1408 72.0551 39.1687 70.7477 39.7359C69.9826 40.0677 69.1851 40.3234 68.4485 40.7561C69.1156 40.745 69.7746 40.6308 70.3885 40.3812C72.26 39.6202 74.0621 39.9358 75.8743 40.61C77.1101 41.0702 78.3592 41.5283 79.7204 41.4309C80.1612 41.5882 80.2064 41.9961 80.2592 42.3608C80.4798 43.8889 81.0359 45.2891 81.8106 46.6123C82.2885 48.6842 82.6659 50.7622 82.3138 52.9037C82.2519 53.2786 82.2753 53.6698 82.2819 54.0533C82.3473 57.9268 81.91 61.7495 81.2353 65.5606C80.6528 68.8476 79.8787 72.0824 78.6616 75.1832C76.752 80.048 73.5928 83.9575 69.1978 86.8066C67.0421 88.2038 64.646 89.0546 62.083 89.3205C59.1988 89.6193 56.5673 88.8451 54.1853 87.2201C48.8827 83.6023 44.8514 78.9405 42.2351 73.026C40.5234 69.1561 39.2089 65.1887 38.4859 61.0271C38.3266 60.1088 38.2622 59.1657 38.2495 58.2327C38.2231 56.315 38.2602 54.3963 38.2713 52.4775C38.458 52.1462 38.2267 51.748 38.4403 51.4213L38.4383 51.4248C38.6031 49.33 40.2093 48.5239 41.7806 47.6858C41.9886 47.6487 42.19 47.6619 42.3751 47.7751C42.6456 48.1094 42.2549 48.1875 42.1519 48.3514C42.6481 48.2164 43.126 47.943 43.6851 47.9968C43.9875 48.1261 44.1589 48.3544 44.2036 48.6786C44.1833 49.0972 44.4973 49.2017 44.8032 49.2763C46.1578 49.607 47.5068 49.9591 48.8629 50.2818C49.1678 50.3543 49.4869 50.3214 49.8015 50.3102C50.6071 50.2823 50.9475 49.9165 50.7015 49.1058C50.7385 48.9455 50.8374 48.8349 50.9795 48.7588C51.8942 48.4204 53.0312 48.5959 53.6587 47.595C53.954 47.4336 54.2594 47.5539 54.5613 47.563C55.0295 47.5772 55.0412 47.2921 54.955 46.9481C54.7769 46.1354 54.2254 45.6336 53.539 45.2511C51.7065 44.2303 49.7736 43.9493 47.7305 44.4693C47.3292 44.5718 46.932 44.7011 46.5129 44.7194C45.891 44.6651 45.8001 44.3288 46.1812 43.9199C46.8321 43.2228 47.3597 42.4166 48.0852 41.7875Z" fill="#FCBEAC"/>
<path fill-rule="evenodd" clip-rule="evenodd" d="M33.6091 9.49385C35.0489 8.67552 36.6115 8.20218 38.2451 8.07027C40.0111 7.92771 41.7893 7.93482 43.5614 7.86328C43.9962 7.84552 44.4284 7.77602 44.8622 7.72985C44.88 7.64513 44.8977 7.5604 44.9155 7.47568C44.4807 7.2484 44.0464 7.02162 43.4792 6.72534C44.4015 6.15712 45.265 5.63204 46.1214 5.09629C48.8483 3.39014 51.8106 2.3085 55.0073 2.03099C57.3984 1.8235 59.7331 2.31561 61.8933 3.36883C64.2788 4.53214 66.4299 6.07139 68.4339 7.81255C68.8331 8.37518 68.6348 8.95202 68.4567 9.51718C67.6115 12.1989 66.1209 14.5798 64.9054 17.0886C64.7349 17.4407 64.4305 17.6949 64.1099 17.9074C60.8026 20.1022 57.3456 21.9661 53.3803 22.6789C51.7269 22.9757 50.0527 22.9721 48.3775 23.0203C45.8195 23.0944 43.2971 23.4942 40.9324 24.5271C36.408 26.5042 34.1174 30.2087 33.1043 34.8574C32.7699 36.3911 32.5487 37.9481 32.2687 39.4929C31.7842 42.1645 30.5925 44.5053 29.0679 46.7066C28.8883 46.9664 28.7022 47.2525 28.412 47.3697C26.6571 48.079 25.0874 49.1002 23.5614 50.1986C22.9835 49.9764 22.4199 49.704 21.8253 49.5421C19.3596 48.8689 17.272 47.6772 15.9676 45.383C15.0493 43.7687 15.1072 42.127 15.8758 40.2453C15.9981 40.7719 16.0468 41.092 16.1533 41.3918C16.203 41.5319 16.3598 41.7201 16.4765 41.7262C16.5967 41.7323 16.8133 41.5618 16.8387 41.438C16.9493 40.9018 17.0082 40.3554 17.0802 39.8115C17.1025 39.64 17.1066 39.4655 17.1193 39.293C17.6007 39.3336 17.4054 39.7552 17.4881 39.9439C19.1968 37.9146 19.3546 35.5646 18.7265 33.0716C18.59 32.5313 18.591 31.9514 18.4409 31.4248C18.071 30.1326 18.5231 29.2047 19.5012 28.394C20.2267 27.7928 20.9339 27.1668 21.7035 26.6254C24.0682 24.9629 25.4978 22.683 26.2472 19.9266C26.8413 17.742 27.3242 15.5199 28.8371 13.7006C29.9243 12.3927 31.32 11.4628 32.5964 10.3847C32.9409 10.0955 33.364 9.89616 33.6091 9.49385Z" fill="#C6955E"/>
<path fill-rule="evenodd" clip-rule="evenodd" d="M23.5607 50.1991C24.5408 48.7796 26.0608 48.1297 27.558 47.4935C28.1693 47.2337 28.5939 46.9039 28.98 46.3687C30.9616 43.6276 31.9499 40.5395 32.3832 37.222C32.6749 34.9877 33.1645 32.7778 34.1472 30.7429C35.9198 27.0728 38.8091 24.6519 42.753 23.5819C45.065 22.9543 47.4286 22.6788 49.84 22.7078C53.0062 22.7453 56.0375 22.033 58.8497 20.5765C60.6644 19.6364 62.3985 18.5416 64.1599 17.501C64.3563 17.3848 64.5572 17.2027 64.6536 17.0018C65.8098 14.5884 66.9761 12.1786 68.0674 9.73529C68.3266 9.15541 68.3185 8.45681 68.4332 7.8125C68.9344 8.1169 69.4489 8.40202 69.9288 8.73635C70.0825 8.8434 70.2007 9.07018 70.2408 9.26195C70.4742 10.3766 70.8298 11.4937 70.8552 12.6169C70.8841 13.8959 70.4747 15.1526 69.7238 16.2225C69.1485 17.0424 68.5093 17.8262 67.8315 18.5639C65.6129 20.9788 62.7429 22.2131 59.6685 23.1613C56.2141 24.2267 52.8013 25.4692 50.0089 27.8841C48.9958 28.7597 48.0866 29.7668 47.7909 31.2C47.5402 32.4156 47.1328 33.5997 46.7655 34.7889C46.4287 35.8796 45.8483 36.8075 44.8564 37.4381C43.9174 38.0348 42.9463 38.5928 42.0671 39.2686C41.4162 39.7688 40.8714 40.4142 40.3239 41.0346C40.2199 41.1523 40.3245 41.4542 40.3336 41.6708C40.5198 41.6343 40.7252 41.6358 40.8881 41.5536C41.1631 41.4146 41.4107 41.2223 41.8662 41.1204C41.5268 42.4688 41.2341 43.831 40.8313 45.1602C40.5314 46.1501 39.8744 46.9663 39.0221 47.5315C38.4184 47.9318 38.249 48.3742 38.2104 49.0703C38.0871 51.2939 37.6884 53.4607 36.6493 55.4779C35.7052 57.3114 34.1878 58.2504 32.1955 58.4985C31.9743 58.5259 31.7358 58.3864 31.5025 58.3387C30.4568 58.1251 29.4138 57.8978 28.3636 57.7106C27.1044 57.4869 25.8208 57.3743 24.5814 57.0744C23.3684 56.7807 22.3761 56.074 21.7226 54.9644C21.4446 53.5378 21.954 52.2999 22.6287 51.1102C22.7769 51.061 22.5577 50.9636 22.6566 51.0625C22.198 51.3152 21.7662 51.4339 21.4766 50.8302C21.8581 50.8226 22.2406 50.8312 22.6206 50.8038C23.0356 50.7749 23.4709 50.7475 23.5607 50.1991Z" fill="#B77066"/>
<path fill-rule="evenodd" clip-rule="evenodd" d="M77.4466 25.6511C77.3294 25.5816 77.1671 25.5405 77.1017 25.438C76.0951 23.8633 74.4498 23.0252 73.0486 21.907C72.2105 21.2378 71.3338 20.6128 70.5312 19.9036C70.1233 19.5434 69.8656 19.6149 69.6002 19.9822C69.4425 20.1998 69.3075 20.4464 69.2192 20.6991C68.6749 22.2581 67.7028 23.4737 66.3422 24.4C64.5558 25.6166 62.6336 26.5572 60.6372 27.3776C58.548 28.236 56.4522 29.1619 54.8643 30.8122C53.8658 31.8502 53.0125 33.0688 52.2845 34.3174C51.1674 36.2336 50.2126 38.2446 49.1943 40.2176C49.1492 40.3054 49.1573 40.4206 49.1411 40.5236C46.9996 41.0415 44.8587 41.559 42.6396 42.0958C42.6396 41.6676 42.6614 41.1841 42.633 40.7032C42.6087 40.2937 42.7918 40.069 43.1312 39.8777C43.7984 39.5008 44.4335 39.067 45.1012 38.6906C46.5511 37.8722 47.405 36.5978 47.9148 35.0601C48.166 34.3021 48.4546 33.5452 48.5931 32.7639C49.0127 30.3937 50.4485 28.7834 52.3631 27.4983C54.5015 26.0631 56.8804 25.2234 59.3608 24.605C62.042 23.9368 64.6817 23.1256 66.8454 21.3048C67.7444 20.5479 68.5343 19.6585 69.3471 18.8047C69.6261 18.5119 69.8047 18.2547 70.2801 18.5343C73.219 20.2622 75.6324 22.5224 77.405 25.4477C77.439 25.503 77.4334 25.5826 77.4466 25.6511Z" fill="#E08092"/>
<path fill-rule="evenodd" clip-rule="evenodd" d="M73.614 90.6149C73.5526 90.3562 73.4694 90.0995 73.4359 89.8367C73.4055 89.5977 73.4293 89.3522 73.4293 88.8261C73.0392 89.3151 72.8226 89.6347 72.5593 89.9092C70.1789 92.3921 67.4296 94.1865 63.965 94.8369C61.4314 95.3123 59.0642 94.7466 56.7528 93.9303C54.2694 93.0537 52.0255 91.6717 50.3594 89.5901C49.0251 87.9225 47.8806 86.1027 46.6523 84.3504C46.6523 83.5503 46.6523 82.7508 46.6523 81.8594C46.8436 82.0156 47.0318 82.1318 47.1729 82.2896C48.3549 83.6142 49.4954 84.9769 50.7105 86.2701C53.0153 88.7231 55.7503 90.2451 59.1931 90.6616C64.2948 91.278 68.2616 88.9661 72.1062 86.1631C72.7475 85.6953 73.3202 85.1327 74.0686 84.4909C73.4704 86.6105 73.6708 88.6201 73.614 90.6149Z" fill="#E08092"/>
<path fill-rule="evenodd" clip-rule="evenodd" d="M84.7824 40.2761C84.9635 41.5175 85.1111 42.7645 85.3359 43.9979C85.5165 44.9892 85.1766 45.8851 84.9676 46.8105C84.5094 47.1103 84.0513 47.4102 83.4471 47.8059C83.2457 46.187 83.0549 44.6264 82.8555 43.0674C82.5892 40.9772 82.2594 38.8936 82.0595 36.7973C81.7886 33.9512 81.1118 31.2095 80.153 28.5303C78.4291 23.7132 75.2968 20.1056 70.7942 17.677C70.639 17.5933 70.433 17.267 70.4766 17.2011C71.1859 16.1118 70.9967 14.7984 71.4 13.6391C71.4208 13.5792 71.4872 13.5356 71.5329 13.4844C71.61 13.9207 71.7526 14.3585 71.748 14.7943C71.7419 15.3818 71.9342 15.7496 72.4547 16.0611C74.1477 17.0743 75.8051 18.1462 77.4829 19.1858C80.3798 20.9807 82.1975 23.6533 83.4542 26.7217C84.0518 28.1818 84.3943 29.7474 84.8306 31.2714C84.9239 31.5982 84.9554 31.9518 84.9589 32.2937C84.9726 33.6884 84.9792 35.083 84.9549 36.4772C84.9483 36.846 84.822 37.2128 84.7509 37.5806C84.2355 38.3959 84.3694 39.198 84.8037 39.9925C84.8306 40.0899 84.8235 40.1842 84.7824 40.2761Z" fill="#B77066"/>
<path fill-rule="evenodd" clip-rule="evenodd" d="M33.6079 9.5C33.8311 10.0033 33.3329 10.1271 33.1092 10.329C32.4162 10.954 31.6917 11.5522 30.9322 12.095C28.7279 13.6708 27.5635 15.8731 26.9136 18.4407C26.5844 19.7425 26.144 21.023 25.6656 22.2792C24.8671 24.3755 23.2563 25.7996 21.5248 27.1232C20.6456 27.7954 19.8455 28.5711 18.9972 29.2844C18.6096 29.6101 18.4676 30.0104 18.5508 30.4904C18.7979 31.9154 19.0287 33.3441 19.3179 34.7606C19.6771 36.5185 18.8156 39.0572 17.386 40.2311C17.2941 39.91 17.2069 39.6046 17.1191 39.2992C16.7919 38.1698 16.6184 36.9654 16.107 35.9269C14.862 33.3969 15.3074 31.1108 16.9202 29.0008C17.7548 27.909 18.8217 26.9953 19.7836 26.001C21.6993 24.8397 23.2259 23.3152 24.2004 21.2747C24.7534 19.9987 25.3617 18.7436 25.8482 17.4428C27.0283 14.2872 29.2398 12.0514 32.0443 10.3264C32.545 10.0185 33.0858 9.77396 33.6079 9.5Z" fill="#D7B48C"/>
<path fill-rule="evenodd" clip-rule="evenodd" d="M42.3117 93.4609C41.4706 98.8189 41.5619 104.091 42.121 109.368C42.0352 109.392 41.9495 109.416 41.8633 109.439C41.4848 108.798 41.0815 108.171 40.7329 107.515C38.8365 103.945 37.1755 100.268 35.758 96.4816C35.685 96.2863 35.617 96.0889 35.5556 95.8895C35.4237 95.4629 35.5597 95.296 36.0284 95.2021C37.4571 94.9139 38.8776 94.5761 40.288 94.2072C40.9191 94.0423 41.5188 93.7582 42.3117 93.4609Z" fill="#89B1E1"/>
<path fill-rule="evenodd" clip-rule="evenodd" d="M77.4668 111.558C78.1705 106.177 78.7341 100.787 78.4059 95.375C80.2414 96.203 82.1124 97.0467 84.0428 97.9177C82.6675 101.729 81.2672 105.647 79.2592 109.311C79.0273 109.735 78.6869 110.097 78.4297 110.508C78.2182 110.846 78.0558 111.215 77.8716 111.57C77.7331 111.686 77.5982 111.689 77.4668 111.558Z" fill="#89B1E1"/>
<path fill-rule="evenodd" clip-rule="evenodd" d="M86.0184 48.3007C86.6957 48.8684 86.9849 49.6269 87.0813 50.4772C87.2421 51.8942 86.9255 53.2432 86.5171 54.5851C86.1021 55.9488 85.7155 57.3201 85.3305 58.6919C85.2467 58.9897 85.1859 59.3032 85.1757 59.6117C85.1361 60.7923 84.5542 61.7877 84.0951 62.8221C84.0266 62.9763 83.7871 63.0545 83.6268 63.1676C83.5142 63.0068 83.3341 62.8586 83.3016 62.6831C83.2027 62.1408 83.0896 61.5857 83.1073 61.0398C83.1976 58.2318 83.8881 55.5541 84.9378 52.9596C85.1062 52.5441 85.2376 52.1133 85.3731 51.6852C85.403 51.5923 85.3776 51.4822 85.3776 51.2006C84.4472 52.1352 84.1276 53.2574 83.6263 54.2649C83.5583 54.2492 83.4904 54.234 83.4229 54.2188C83.5051 52.7754 83.6076 51.3331 83.6613 49.8892C83.6923 49.0673 84.1347 48.5503 84.7693 48.1328C85.1894 48.1607 85.6039 48.2292 86.0184 48.3007Z" fill="#FCBEAC"/>
<path fill-rule="evenodd" clip-rule="evenodd" d="M93.1273 99.8624C93.4536 99.9395 93.7793 100.016 94.3602 100.153C93.2293 101.111 92.2436 101.947 91.2573 102.783C90.128 101.758 88.6441 101.73 87.2788 101.364C86.2444 101.086 85.1272 101.191 84.1445 100.679C84.3891 99.871 84.6838 99.0735 84.8518 98.2501C84.9147 97.9432 84.9847 97.9158 85.2049 97.9838C85.8263 98.175 86.4433 98.381 87.0617 98.5814C88.261 99.1166 89.5202 99.4931 90.7464 99.9563C91.5318 100.253 92.3537 100.384 93.1273 99.8624Z" fill="#AF96A9"/>
<path fill-rule="evenodd" clip-rule="evenodd" d="M48.0847 41.7891C47.4891 42.5622 46.9016 43.342 46.2928 44.105C46.1076 44.3374 45.961 44.4972 46.4105 44.5231C46.2933 45.141 45.718 44.9655 45.3431 45.1222C44.9935 45.2694 44.6202 45.3658 44.2569 45.4819C43.9946 45.5768 43.6978 45.5773 43.4705 45.7686C43.1022 46.1166 42.6684 46.3753 42.2616 46.6701C42.1971 46.7315 42.1317 46.7914 42.0708 46.8553C41.7862 47.1374 41.9668 47.5432 41.806 47.8573C41.4955 48.0663 41.1957 48.2931 40.8735 48.4813C39.699 49.1667 38.8335 50.1007 38.4378 51.4268C38.4348 51.3573 38.4368 51.2868 38.4272 51.2183C38.2516 49.9216 38.5743 48.9714 39.8096 48.2058C41.3616 47.2439 41.9846 45.5514 42.3838 43.8285C42.4736 43.4394 42.606 43.204 42.9805 43.0954C44.3076 42.7104 45.6302 42.3091 46.962 41.9408C47.3232 41.8408 47.7098 41.8373 48.0847 41.7891Z" fill="#E08092"/>
<path fill-rule="evenodd" clip-rule="evenodd" d="M81.8108 46.6124C80.6932 45.7484 80.4481 44.4603 80.1427 43.1985C80.0103 42.6506 79.85 42.1103 79.7018 41.5664C79.5522 41.3924 79.3761 41.2265 79.5019 40.9612C79.575 40.8531 79.7049 40.7481 79.7125 40.6355C79.7972 39.3337 79.854 38.0298 79.9367 36.7275C79.9824 36.0107 80.1123 35.2963 80.1128 34.5805C80.1128 33.7622 80.0118 32.9433 79.9545 32.125C80.2279 33.3314 80.5831 34.5262 80.7576 35.7468C81.0914 38.079 81.3476 40.4229 81.5851 42.7668C81.7144 44.0437 81.7388 45.3303 81.8108 46.6124Z" fill="#E08092"/>
<path fill-rule="evenodd" clip-rule="evenodd" d="M90.6609 103.211C89.666 103.894 88.6711 104.576 87.6763 105.259C86.1 104.943 84.4983 104.704 83.0996 103.822C83.372 103.051 83.644 102.281 83.9164 101.51C84.304 101.326 84.6622 101.501 85.0194 101.612C86.7336 102.144 88.4185 102.79 90.2276 102.956C90.3996 102.973 90.5549 103.06 90.6609 103.211Z" fill="#AF96A9"/>
<path fill-rule="evenodd" clip-rule="evenodd" d="M90.659 103.212C88.2685 103.208 86.1199 102.246 83.9141 101.511C83.9912 101.234 84.0678 100.957 84.1449 100.68C85.6375 100.905 87.1326 101.119 88.6221 101.364C89.1624 101.452 89.7058 101.572 90.2202 101.755C90.7037 101.927 91.2146 102.137 91.2577 102.783C91.0578 102.927 90.8584 103.069 90.659 103.212Z" fill="#C7B6C3"/>
<path fill-rule="evenodd" clip-rule="evenodd" d="M31.0902 101.327C30.4672 100.551 29.8437 99.7743 29.2207 98.9981C29.3886 98.7937 29.6261 98.7323 29.8691 98.7241C31.5032 98.6734 33.0932 98.367 34.6603 97.919C34.8638 97.8607 35.0713 97.8759 35.2732 97.9429C35.4178 98.365 35.5618 98.7871 35.7064 99.2092C34.155 99.887 32.738 100.858 31.0902 101.327Z" fill="#B097AA"/>
<path fill-rule="evenodd" clip-rule="evenodd" d="M35.273 97.9423C33.3366 98.7586 31.3077 99.0432 29.2211 98.9976C29.0821 98.7881 28.9426 98.579 28.8035 98.3695C28.7422 98.0042 29.0202 97.8754 29.2662 97.7719C30.8775 97.092 32.573 96.7308 34.2974 96.4904C34.512 96.4604 34.7064 96.5451 34.8672 96.6948C35.0016 97.1108 35.1376 97.5263 35.273 97.9423Z" fill="#C7B6C3"/>
<path fill-rule="evenodd" clip-rule="evenodd" d="M34.8677 96.6945C32.8917 96.9319 30.9658 97.3733 29.1171 98.1206C28.9989 98.1683 28.9081 98.285 28.8046 98.3692C28.4627 97.8071 28.1207 97.2454 27.7793 96.6833C28.8391 96.2282 30.0156 96.4129 31.0983 96.0781C31.3129 96.0116 31.5995 96.1379 31.7192 95.8325C32.5665 95.7032 33.4117 95.557 34.263 95.4617C34.3893 95.4475 34.611 95.6443 34.6684 95.7914C34.78 96.0745 34.8064 96.3911 34.8677 96.6945Z" fill="#B097AA"/>
<path fill-rule="evenodd" clip-rule="evenodd" d="M34.0111 104.066C33.3141 103.43 32.617 102.794 31.9199 102.158C33.2745 101.417 34.7189 100.874 36.1267 100.25C36.4245 101.011 36.7223 101.772 37.0196 102.533C35.9258 102.865 35.006 103.539 34.0111 104.066Z" fill="#B096AA"/>
<path fill-rule="evenodd" clip-rule="evenodd" d="M36.1286 100.251C34.8912 101.25 33.4661 101.836 31.9218 102.159C31.6453 101.882 31.3688 101.605 31.0918 101.329C32.4241 100.629 33.7522 99.9213 35.0941 99.2404C35.2611 99.1557 35.5015 99.2176 35.7075 99.211C35.8485 99.558 35.9886 99.9045 36.1286 100.251Z" fill="#C7B6C3"/>
<path fill-rule="evenodd" clip-rule="evenodd" d="M37.2002 102.961C37.5614 103.864 37.9221 104.768 38.2833 105.672C37.8912 106.138 37.394 106.415 36.7913 106.504C36.0734 105.895 35.356 105.287 34.6387 104.677C35.4758 104.079 36.4996 103.761 37.2002 102.961Z" fill="#AF96A9"/>
<path fill-rule="evenodd" clip-rule="evenodd" d="M83.0955 103.82C84.4197 104.174 85.7463 104.52 87.0654 104.892C87.2846 104.954 87.4708 105.132 87.6722 105.257C87.1978 105.552 86.7235 105.847 86.2491 106.142C85.0102 106.379 83.3051 105.621 82.8398 104.626C82.9251 104.358 83.0103 104.089 83.0955 103.82Z" fill="#C7B4C3"/>
<path fill-rule="evenodd" clip-rule="evenodd" d="M36.9959 57.4688C37.2592 59.3758 37.5002 61.118 37.7569 62.9799C36.7367 61.7278 36.1684 60.3605 35.6601 58.9664C35.6144 58.8406 35.7382 58.5965 35.8549 58.4783C36.171 58.1597 36.5251 57.8792 36.9959 57.4688Z" fill="#FAA7AC"/>
<path fill-rule="evenodd" clip-rule="evenodd" d="M82.8405 104.633C83.8323 105.464 84.9753 105.954 86.2497 106.148C85.6039 106.545 84.9581 106.943 84.3122 107.34C83.5675 107.057 82.7634 106.943 82.0566 106.552C82.3179 105.912 82.5792 105.273 82.8405 104.633Z" fill="#AF96A9"/>
<path fill-rule="evenodd" clip-rule="evenodd" d="M21.4784 50.8359C21.904 50.9247 22.3297 51.014 22.8248 51.1175C22.6594 51.5279 22.4408 51.9485 22.3205 52.3955C22.0917 53.2458 21.9197 54.1113 21.7239 54.9702C20.8954 53.7643 21.0517 52.3924 21.0887 51.047C21.0913 50.9734 21.3429 50.9065 21.4784 50.8359Z" fill="#C5925E"/>
<path fill-rule="evenodd" clip-rule="evenodd" d="M37.2013 102.965C36.7762 104.176 35.692 104.405 34.6403 104.681C34.4308 104.478 34.2212 104.274 34.0117 104.071C34.8037 103.146 35.7128 102.451 37.0202 102.539C37.0811 102.681 37.1414 102.823 37.2013 102.965Z" fill="#C6B5C2"/>
<path fill-rule="evenodd" clip-rule="evenodd" d="M93.1287 99.8586C93.118 100.304 92.8496 100.484 92.4478 100.455C91.9014 100.415 91.3155 100.443 90.8213 100.249C89.5464 99.748 88.3126 99.1423 87.0625 98.5781C89.0847 99.0048 91.1064 99.4315 93.1287 99.8586Z" fill="#C5B1C1"/>
<path fill-rule="evenodd" clip-rule="evenodd" d="M24.2 21.2734C23.9073 21.9274 23.7495 22.7021 23.2939 23.2089C22.3711 24.2352 21.2925 25.1221 20.2586 26.0444C20.1779 26.1164 19.945 26.0185 19.7832 25.9997C20.8522 24.9318 21.9368 23.8791 22.9824 22.7893C23.4299 22.3236 23.7972 21.7808 24.2 21.2734Z" fill="#C79662"/>
<path fill-rule="evenodd" clip-rule="evenodd" d="M82.0575 106.552C82.9138 106.516 83.7022 106.674 84.3131 107.34C83.9042 107.566 83.4952 107.792 83.0868 108.018C82.028 108.229 81.8799 108.129 81.8145 107.165C81.8956 106.961 81.9763 106.757 82.0575 106.552Z" fill="#C6B3C2"/>
<path fill-rule="evenodd" clip-rule="evenodd" d="M31.7183 95.8359C31.8152 95.9039 32.3185 95.9364 31.8243 96.0891C30.9157 96.3697 29.9644 96.5239 29.0228 96.6812C28.619 96.7481 28.1939 96.6893 27.7784 96.6872C27.6678 96.5249 27.5572 96.362 27.4004 96.1312C28.9082 96.0277 30.3135 95.9318 31.7183 95.8359Z" fill="#C5B1C1"/>
<path fill-rule="evenodd" clip-rule="evenodd" d="M36.791 106.504C37.2882 106.226 37.7854 105.949 38.2831 105.672C38.4119 105.96 38.5413 106.249 38.6707 106.537C38.5469 106.97 38.2217 107.143 37.8097 107.205C37.4698 106.971 37.1304 106.738 36.791 106.504Z" fill="#C5B2C1"/>
<path fill-rule="evenodd" clip-rule="evenodd" d="M81.8131 107.164C81.9049 107.944 82.4528 108.043 83.0855 108.017C82.4437 108.375 81.8019 108.733 81.1606 109.091C81.0998 109.04 81.0389 108.988 80.9785 108.937C81.2565 108.346 81.5351 107.755 81.8131 107.164Z" fill="#AE8BA7"/>
<path fill-rule="evenodd" clip-rule="evenodd" d="M37.8125 107.207C38.0991 106.985 38.3863 106.762 38.6734 106.539C38.9499 107.09 39.2264 107.639 39.5024 108.19C39.4583 108.243 39.4136 108.296 39.369 108.35C38.85 107.969 38.331 107.588 37.8125 107.207Z" fill="#AD8AA6"/>
<path fill-rule="evenodd" clip-rule="evenodd" d="M86.0186 48.2918C85.5594 48.5526 85.1718 48.2852 84.7695 48.1229C85.2226 47.9052 85.6447 47.9215 86.0186 48.2918Z" fill="#F3E6F2"/>
<path fill-rule="evenodd" clip-rule="evenodd" d="M77.4675 111.562C77.6024 111.567 77.7374 111.57 77.8718 111.574C77.7774 111.843 77.6836 112.112 77.5897 112.382C77.54 112.384 77.4918 112.392 77.4441 112.406C77.4522 112.125 77.4598 111.844 77.4675 111.562Z" fill="#E1CEE1"/>
<path fill-rule="evenodd" clip-rule="evenodd" d="M38.4397 51.4219C38.3834 51.774 38.3271 52.1261 38.2708 52.4781C38.3271 52.1261 38.3839 51.774 38.4397 51.4219Z" fill="#E08092"/>
<path fill-rule="evenodd" clip-rule="evenodd" d="M75.9474 11.7891C76.1452 12.3623 76.2903 12.8063 76.4511 13.2446C77.0609 14.9066 78.0365 16.2855 79.455 17.3814C80.8502 18.4595 82.2322 19.57 83.5091 20.7836C84.9738 22.1752 85.5481 23.9762 85.367 25.9857C85.3406 26.278 85.0494 26.5463 84.881 26.8259C84.6927 26.6336 84.4512 26.4692 84.329 26.2414C84.1514 25.9101 84.0028 25.5423 83.9404 25.1735C83.5695 22.9808 82.2905 21.4573 80.5362 20.1798C78.6793 18.8273 76.96 17.2982 76.0224 15.1101C75.5851 14.0898 75.2518 13.0457 75.9474 11.7891Z" fill="#D7B48C"/>
<path fill-rule="evenodd" clip-rule="evenodd" d="M84.7826 40.277C84.776 40.2243 84.7649 40.1725 84.7491 40.1218C84.5705 39.3364 84.0165 38.5191 84.945 37.8281C85.1393 38.3375 85.3676 38.8367 85.5187 39.3582C85.7186 40.0482 85.5928 40.1796 84.7826 40.277Z" fill="#FBF8F5"/>
<path fill-rule="evenodd" clip-rule="evenodd" d="M87.0157 38.4266C87.0258 38.2637 87.0091 38.1176 87.0491 37.9897C87.0852 37.8756 87.175 37.7077 87.2587 37.6965C87.3612 37.6833 87.5189 37.7817 87.5869 37.8781C87.7244 38.0735 87.8198 38.2987 87.9294 38.5133C88.1003 38.8487 88.2028 39.253 87.7685 39.3697C87.593 39.4169 87.2774 39.0308 87.0639 38.8055C86.9888 38.7274 87.0268 38.5402 87.0157 38.4266Z" fill="#F8F4EE"/>
<path fill-rule="evenodd" clip-rule="evenodd" d="M84.9432 37.8252C84.8783 38.5897 84.8128 39.3543 84.7474 40.1188C83.9017 39.1706 83.9017 38.1626 84.7489 37.5781C84.8138 37.6608 84.8783 37.743 84.9432 37.8252Z" fill="#DEB8D2"/>
<path fill-rule="evenodd" clip-rule="evenodd" d="M54.5825 71.3327C53.6546 71.0461 52.7403 70.6965 51.7932 70.5002C51.3315 70.4043 50.8099 70.5951 50.2148 70.6681C50.3944 69.9908 50.8916 69.6601 51.336 69.3247C51.6257 69.1061 52.0483 68.8428 52.1163 69.5789C52.1265 69.6895 52.3893 69.7996 52.5521 69.8701C53.5181 70.2907 54.4637 69.9711 55.4099 69.7691C55.6134 69.726 55.8133 69.6611 56.0096 69.5906C57.4149 69.0858 58.8065 69.0467 60.155 69.7575C60.8663 70.1324 61.5207 70.1253 62.2315 69.7286C63.2533 69.1578 64.3395 69.104 65.4668 69.4465C66.2968 69.6986 67.1501 69.8731 67.9933 70.0822C68.6061 70.3511 69.2778 70.0274 69.8932 70.2719L69.8897 70.2623C69.9937 70.3485 69.9932 70.4348 69.8892 70.521C68.9775 70.8614 68.0653 71.2024 67.1536 71.5433C66.5596 71.9557 65.863 72.0364 65.1771 72.1166C62.1432 72.4722 59.1089 72.7132 56.0903 71.9765C55.551 71.8441 55.0025 71.7417 54.5825 71.3327Z" fill="#89007E"/>
<path fill-rule="evenodd" clip-rule="evenodd" d="M43.27 45.5666C43.5496 45.4905 43.8291 45.4139 44.1087 45.3373C45.8113 45.7076 47.4428 45.1826 49.1125 45.0202C51.362 44.8015 53.4918 45.3921 55.1751 47.0719C55.4978 47.7887 55.4211 47.9506 54.7484 47.8765C54.4197 47.84 54.1006 47.7106 53.7774 47.6233C52.8967 47.635 52.1889 47.0155 51.3021 46.9389C51.43 47.6457 51.7202 48.3727 50.9754 48.9135C50.9171 48.982 50.8582 49.051 50.7994 49.1195C50.2144 50.1671 48.9456 50.5811 47.9157 50.0332C47.2856 49.6978 47.1374 49.2737 47.7919 48.7922C48.1085 48.4853 48.3743 48.1246 48.0516 47.7096C47.7361 47.3042 47.248 47.1601 46.7437 47.2667C46.1339 47.396 45.582 47.704 44.9985 47.9176C44.583 48.0693 44.1832 48.3255 43.7089 48.1423C43.2883 48.2651 42.8703 48.397 42.4461 48.5056C42.2884 48.5462 42.1164 48.532 41.951 48.5426C41.8962 48.4746 41.8419 48.4061 41.7871 48.3382C42.0119 48.1839 42.2366 48.0297 42.4614 47.875C42.573 47.6837 42.7642 47.5112 42.4182 47.326C42.1646 47.1901 41.8952 47.0034 42.0281 46.6249L42.025 46.634C42.9043 46.147 43.818 46.3677 44.5069 46.4965C44.8671 46.5097 44.7271 46.2647 44.7479 46.4027C44.753 46.4357 44.7362 46.4473 44.6982 46.4504C44.0026 46.5102 43.507 46.2474 43.27 45.5666Z" fill="#89007E"/>
<path fill-rule="evenodd" clip-rule="evenodd" d="M54.5801 71.3359C56.7119 71.822 58.8538 72.2872 61.0546 72.1426C62.7796 72.0295 64.4969 71.7941 66.2178 71.6165C66.5283 71.5845 66.8408 71.5688 67.1518 71.5455C66.4938 73.7234 64.8059 74.3957 62.7573 74.7173C60.4986 75.0719 58.4394 74.6123 56.4917 73.5373C55.611 73.0512 54.8155 72.4176 54.5801 71.3359Z" fill="#DE6780"/>
<path fill-rule="evenodd" clip-rule="evenodd" d="M77.008 44.3131C77.389 44.2426 77.7705 44.1726 78.1515 44.1016C78.185 44.1665 78.2185 44.2309 78.2525 44.2959C78.01 44.6043 77.7669 44.9128 77.4554 45.31C77.9552 45.3329 78.3788 45.3526 78.8491 45.374C78.7826 46.1984 78.0034 46.1111 77.6599 46.4094C77.6787 46.7255 77.7999 47.1557 77.6873 47.2303C77.4712 47.3728 77.115 47.3617 76.8289 47.3241C76.5285 47.2846 76.2419 47.139 75.9492 47.0395C75.5017 47.1907 75.1821 46.8792 74.7717 46.6869C75.0796 47.0355 75.0862 47.3977 75.041 47.7736C74.6641 49.0394 73.899 49.6675 72.6622 49.7294C71.9752 49.7639 71.5465 49.3073 71.4045 48.3916C71.4608 47.9705 72.2741 47.767 71.8575 47.2724C71.4796 46.8239 70.8576 46.8609 70.2939 47.0076C69.6232 47.1821 69.0266 47.59 68.3148 47.6438C67.3986 47.4028 67.3037 47.1983 67.9785 46.5794C69.7308 44.9727 71.7515 44.0681 74.173 44.6611C75.1968 44.9128 76.0542 44.339 77.008 44.3131Z" fill="#89007E"/>
<path fill-rule="evenodd" clip-rule="evenodd" d="M79.5022 40.9639C79.5686 41.1653 79.6356 41.3673 79.7021 41.5692C78.973 41.9629 78.2714 41.6529 77.5834 41.454C76.4846 41.1359 75.3994 40.7706 74.3127 40.4125C73.3254 40.0868 72.3559 40.071 71.3539 40.3962C70.5006 40.6732 69.6193 40.8691 68.7427 41.0659C68.3865 41.1461 68.0096 41.1334 67.5723 40.9883C67.7331 40.8457 67.8843 40.6895 68.0583 40.5652C68.1973 40.4657 68.3662 40.4079 68.5195 40.3262C71.1738 38.9072 73.8677 38.5328 76.6829 39.8995C77.5834 40.3359 78.5606 40.6139 79.5022 40.9639Z" fill="#8A007D"/>
<path fill-rule="evenodd" clip-rule="evenodd" d="M55.1758 47.0677C53.7304 46.2144 52.2257 45.563 50.5434 45.2677C49.5601 45.0947 48.6302 45.2175 47.7956 45.5488C46.4812 46.0703 45.3128 45.8157 44.1094 45.3332C44.877 45.0633 45.6441 44.7934 46.4116 44.5235C47.3512 44.3185 48.2837 43.9888 49.2324 43.9355C51.1085 43.8305 52.8644 44.3322 54.3798 45.4798C54.8755 45.8542 55.3062 46.3412 55.1758 47.0677Z" fill="#D1749A"/>
<path fill-rule="evenodd" clip-rule="evenodd" d="M56.2012 63.0225C56.364 62.3203 56.4914 62.1788 57.1884 62.3655C58.024 62.5887 58.8484 62.8835 59.6429 63.2274C60.9503 63.7936 62.1669 63.6932 63.457 63.095C64.5716 62.5781 65.7862 62.2767 66.9236 61.8906C67.0109 62.0261 67.0459 62.055 67.0429 62.0804C66.8861 63.544 66.8836 63.5324 65.4067 63.7906C64.6198 63.9281 63.8005 64.0113 63.0674 64.3005C61.6464 64.8611 60.3527 64.5521 59.0295 64.0123C58.1372 63.647 57.2082 63.3705 56.2012 63.0225Z" fill="#8A007D"/>
<path fill-rule="evenodd" clip-rule="evenodd" d="M77.0086 44.3103C76.4084 44.5701 75.8224 44.874 75.202 45.0683C74.9412 45.15 74.584 45.0571 74.3106 44.946C72.401 44.1733 68.704 45.5548 67.6808 47.4122C67.938 47.4294 68.1764 47.4456 68.4149 47.4619C68.4073 47.7992 68.2297 47.7921 67.9948 47.6699C67.7934 47.6318 67.5661 47.6405 67.3936 47.5476C66.6473 47.1473 66.6372 47.0423 67.2115 46.4345C68.9506 44.5929 71.021 43.421 73.6135 43.4955C74.4212 43.5189 75.2207 43.8395 76.0218 44.0333C76.3536 44.1125 76.6798 44.217 77.0086 44.3103Z" fill="#D1739A"/>
<path fill-rule="evenodd" clip-rule="evenodd" d="M71.5692 48.311C71.7148 49.3272 72.1704 49.6326 73.0917 49.4256C74.082 49.2034 74.6639 48.6199 74.8795 47.6449C75.1652 47.6093 75.4508 47.3907 75.7364 47.6443C75.9992 47.7646 76.2615 47.8853 76.5238 48.0056C76.3807 48.2293 76.2798 48.5033 76.0849 48.6651C75.7729 48.9243 75.4219 49.1658 75.0474 49.316C73.6508 49.8776 72.1861 50.0643 70.69 49.9522C70.3582 49.9273 70.0315 49.7833 69.7108 49.6706C69.1588 49.4773 69.1771 49.1197 69.4572 48.7006C70.0807 48.1309 70.7422 47.7732 71.5692 48.311Z" fill="#D1769D"/>
<path fill-rule="evenodd" clip-rule="evenodd" d="M43.707 48.1362C44.6375 47.7679 45.5669 47.3965 46.4994 47.0338C46.9367 46.8638 48.0143 47.0931 48.2928 47.4488C48.7179 47.9926 48.5094 48.4802 48.0848 48.9211C46.7307 49.3574 45.4056 49.2833 44.1099 48.6953C43.9754 48.5091 43.841 48.3224 43.707 48.1362Z" fill="#FDFCFD"/>
<path fill-rule="evenodd" clip-rule="evenodd" d="M44.1125 48.7031C45.4377 48.7782 46.7623 48.8533 48.0875 48.9289C47.8947 49.0862 47.7019 49.2439 47.5091 49.4012C47.7242 49.5631 47.9165 49.8005 48.1585 49.874C49.1874 50.1886 50.0732 49.9111 50.8007 49.1212C51.4242 50.0435 51.3669 50.2896 50.3147 50.5016C49.7541 50.6148 49.1321 50.6148 48.571 50.5016C47.2575 50.2363 45.9607 49.8822 44.664 49.5392C44.3713 49.4616 44.0445 49.3403 43.8431 49.1328C43.5438 48.8229 43.8558 48.7473 44.1125 48.7031Z" fill="#D2789F"/>
<path fill-rule="evenodd" clip-rule="evenodd" d="M71.5688 48.3127C70.8651 48.4426 70.1615 48.5725 69.4573 48.7024C68.9697 48.3589 68.4817 48.0154 67.9941 47.6715C68.1342 47.6025 68.2742 47.5335 68.4142 47.464C68.9596 47.2549 69.5217 47.0809 70.0458 46.8283C70.6201 46.5513 71.1853 46.5533 71.7362 46.7968C71.9858 46.9074 72.3095 47.1504 72.3394 47.3691C72.3689 47.5801 72.0746 47.8465 71.8991 48.0702C71.8174 48.1737 71.6804 48.2331 71.5688 48.3127Z" fill="#FBF8FB"/>
<path fill-rule="evenodd" clip-rule="evenodd" d="M66.7413 43.9608C66.6622 44.7031 66.5846 45.4453 66.5029 46.1875C66.3852 47.258 66.2685 48.3285 66.1381 49.3974C66.1138 49.5993 66.061 49.8139 65.9595 49.9869C65.7865 50.2822 65.5704 50.2376 65.4065 49.9641C65.3375 49.8484 65.2843 49.7079 65.2746 49.575C65.1346 47.6689 65.2894 45.8162 66.2979 44.1252C66.3507 44.038 66.3994 43.9482 66.4496 43.8594C66.547 43.8929 66.6444 43.9269 66.7413 43.9608Z" fill="#8B007E"/>
<path fill-rule="evenodd" clip-rule="evenodd" d="M50.9747 48.9083C51.3019 47.8145 51.3019 47.8145 50.8691 46.5391C51.9528 46.6862 52.8939 47.0672 53.7762 47.6182C53.3079 49.059 52.0238 48.7282 50.9747 48.9083Z" fill="#FDFCFD"/>
<path fill-rule="evenodd" clip-rule="evenodd" d="M52.6322 65.8359C52.2689 67.4132 51.0965 68.4284 50.0488 69.5324C50.5927 68.088 51.2608 66.7268 52.6322 65.8359Z" fill="#8E0380"/>
<path fill-rule="evenodd" clip-rule="evenodd" d="M61.6785 76.3601C60.5177 77.355 58.9054 77.0212 58.1211 75.7812C59.3661 75.9837 60.5223 76.1719 61.6785 76.3601Z" fill="#8D027F"/>
<path fill-rule="evenodd" clip-rule="evenodd" d="M68.2207 64.0078C69.5824 65.1833 70.4002 66.5145 70.4656 67.5855C69.657 67.2147 68.5515 65.4918 68.2207 64.0078Z" fill="#8D027F"/>
<path fill-rule="evenodd" clip-rule="evenodd" d="M69.8887 70.5277C69.8887 70.4414 69.8892 70.3552 69.8892 70.269C70.0267 69.7601 70.1642 69.2507 70.3016 68.7419C70.3727 68.7185 70.4437 68.6952 70.5147 68.6719C70.6882 69.0037 70.9135 69.3197 71.0185 69.6718C71.1012 69.9498 71.0363 70.272 71.0368 70.5749C70.7582 70.5475 70.4797 70.5145 70.2002 70.4957C70.0977 70.4891 69.9927 70.5165 69.8887 70.5277Z" fill="#940A81"/>
<path fill-rule="evenodd" clip-rule="evenodd" d="M54.7505 60.3906C55.0503 60.9989 55.3111 61.5022 55.5328 62.0222C55.553 62.0694 55.2908 62.3332 55.2106 62.3109C54.5592 62.1313 54.2974 61.2592 54.7505 60.3906Z" fill="#971083"/>
<path fill-rule="evenodd" clip-rule="evenodd" d="M42.0284 46.625C42.382 46.9193 42.7361 47.214 43.1871 47.5894C42.9563 47.6808 42.7092 47.7777 42.4622 47.8751C42.244 47.8705 42.0259 47.8654 41.8072 47.8609C41.5556 47.3911 41.3694 46.9324 42.0284 46.625Z" fill="#C66296"/>
<path fill-rule="evenodd" clip-rule="evenodd" d="M75.7371 47.6462C75.4515 47.6462 75.1659 47.6467 74.8802 47.6467C74.8123 47.2895 74.7443 46.9329 74.6367 46.3672C75.1902 46.6508 75.5702 46.8451 75.9497 47.0394C75.8787 47.2413 75.8076 47.4437 75.7371 47.6462Z" fill="#FCF9FC"/>
<path fill-rule="evenodd" clip-rule="evenodd" d="M43.8686 73.8026C43.6479 73.2694 43.4277 72.7362 43.207 72.203C43.2816 72.169 43.3567 72.1356 43.4318 72.1016C43.6778 72.6231 43.9244 73.1451 44.171 73.6672C44.0695 73.7128 43.969 73.758 43.8686 73.8026Z" fill="#A42688"/>
<path fill-rule="evenodd" clip-rule="evenodd" d="M69.8921 70.2782C69.2585 70.2148 68.6253 70.1514 67.9922 70.0885C68.6253 70.1514 69.259 70.2148 69.8921 70.2782Z" fill="#940A81"/>
<path fill-rule="evenodd" clip-rule="evenodd" d="M28.1141 36.829C27.8102 36.0035 27.903 35.1172 27.9974 34.2898C28.3414 31.2539 29.286 28.4037 31.189 25.9756C32.6029 24.171 34.1696 22.4659 36.3653 21.5887C37.4119 21.1707 38.5509 20.9885 39.6386 20.6689C41.0926 20.2412 42.5345 19.7709 43.9895 19.3458C44.3954 19.2271 44.8281 19.2012 45.3908 19.1094C45.0133 20.2113 44.1412 20.4589 43.4462 20.7968C42.1078 21.4472 40.6584 21.7825 39.1587 21.9002C37.2273 22.0514 35.5779 22.8606 34.1665 24.1791C32.7369 25.5144 31.432 26.9715 30.5559 28.7198C29.6559 30.5152 29.0866 32.4431 28.803 34.4455C28.6879 35.2567 28.5194 36.0603 28.3754 36.867C28.2886 36.8533 28.2013 36.8411 28.1141 36.829Z" fill="#D7B48C"/>
<path fill-rule="evenodd" clip-rule="evenodd" d="M39.0242 19.1531C36.5916 18.9421 34.6409 19.9121 32.9621 21.5888C32.7795 21.7709 32.4761 21.8323 32.2285 21.9495C32.3127 21.7065 32.3482 21.431 32.4883 21.2266C33.922 19.1282 35.9062 17.797 38.4423 17.7407C40.529 17.694 42.3954 17.1973 44.1863 16.205C44.5389 16.0097 44.9519 15.862 45.3496 15.8215C45.9879 15.757 46.1938 16.0452 45.8017 16.5221C45.3324 17.0923 44.7393 17.6098 44.1016 17.9827C42.5456 18.8949 40.8476 19.3342 39.0242 19.1531Z" fill="#D7B48C"/>
<path fill-rule="evenodd" clip-rule="evenodd" d="M51.973 15.0948C51.7016 14.9685 51.4748 14.863 51.248 14.757C51.3759 14.5317 51.449 14.2116 51.6428 14.099C52.141 13.8093 52.6772 13.5515 53.2312 13.4064C53.4524 13.3486 53.7598 13.619 54.0282 13.7403C53.8943 13.9944 53.8243 14.3683 53.6148 14.4794C53.11 14.7473 52.5407 14.8919 51.973 15.0948Z" fill="#FDFCFA"/>
<path fill-rule="evenodd" clip-rule="evenodd" d="M52.4805 17.0358C53.3896 15.8872 54.5864 15.6721 55.7553 15.4083C55.8289 15.3916 55.9912 15.4804 56.0034 15.5412C56.0272 15.6605 56.0166 15.872 55.9455 15.9116C54.9126 16.4874 53.9248 17.2256 52.4805 17.0358Z" fill="#FCFBF9"/>
<path fill-rule="evenodd" clip-rule="evenodd" d="M50.0898 13.526C50.5256 12.6468 51.2171 12.1841 52.1024 12.0496C52.282 12.0222 52.4936 12.2059 52.6904 12.2921C52.5753 12.4459 52.4931 12.6625 52.3399 12.7421C51.6316 13.1094 50.9396 13.5427 50.0898 13.526Z" fill="#FBFAF7"/>
<path fill-rule="evenodd" clip-rule="evenodd" d="M43.2704 45.5625C43.832 45.9136 44.3931 46.2641 44.9796 46.6309C44.0045 46.6309 43.0147 46.6309 42.0254 46.6309C42.4404 46.2748 42.8559 45.9186 43.2704 45.5625Z" fill="#BF5492"/>
</svg>
