<svg width="99" height="117" viewBox="0 0 99 117" fill="none" xmlns="http://www.w3.org/2000/svg">
<path fill-rule="evenodd" clip-rule="evenodd" d="M51.8965 0.713882C51.9046 0.661756 51.9089 0.609152 51.9108 0.556547C52.3097 0.556547 52.708 0.556547 53.1069 0.556547C53.1126 0.606761 53.1179 0.656974 53.1226 0.707187C52.7162 1.09837 52.3073 1.09407 51.8965 0.713882Z" fill="#E0BCDD"/>
<path fill-rule="evenodd" clip-rule="evenodd" d="M50.2074 91.7854C53.401 91.1245 56.5089 90.136 59.0708 88.1481C60.3902 87.1242 61.2945 87.0716 62.5087 87.909C63.0108 88.0433 63.5469 88.0582 64.0075 88.3327C64.3126 88.4666 64.6354 88.546 64.9539 88.6397C69.0044 89.8333 73.1477 90.6315 77.2657 91.5344C80.5774 92.2603 83.8681 93.046 87.0205 94.3348C87.7407 94.6289 87.9985 94.9541 87.7651 95.7336C87.5958 96.2989 87.6699 96.9249 87.7221 97.5188C88.0262 100.956 88.3944 104.383 88.5781 107.834C88.5919 108.099 88.6001 108.363 88.6101 108.628C89.2232 108.474 89.8329 108.31 90.4388 108.135C90.402 106.871 90.3375 105.61 90.2189 104.353C89.9534 101.544 89.8511 98.7383 89.8171 95.7456C91.0031 96.4424 92.3101 96.879 93.1389 97.8173C95.0073 99.9334 96.6452 102.231 97.2803 105.09C97.3133 105.238 97.3448 105.387 97.3769 105.535C97.8479 105.312 98.3161 105.08 98.7814 104.838C98.6877 104.456 98.5987 104.074 98.528 103.689C98.2477 102.169 97.5926 100.858 96.7413 99.6359C95.5085 97.8675 94.1809 96.1516 92.2303 95.1029C90.6846 94.2717 89.1185 93.4635 87.5069 92.772C86.0267 92.1364 84.5414 91.4354 82.8619 91.4464C82.6802 91.4478 82.4946 91.3211 82.3167 91.2417C81.9303 91.07 81.563 90.8328 81.1604 90.7252C80.0112 90.4182 78.8496 90.1552 77.6899 89.8878C73.8239 88.9969 69.9566 88.1112 66.0901 87.2237C66.0036 87.0812 65.8759 87.0285 65.7582 87.0046C65.6645 87.0094 65.5794 87.0046 65.511 86.9697C65.5626 86.9846 65.6569 86.9841 65.7582 87.0046C65.9763 86.9932 66.246 86.9248 66.4928 87.0357C69.0092 87.1873 71.5242 87.3829 74.0425 87.4786C76.7971 87.5833 79.555 87.5685 82.31 87.6636C83.2029 87.6942 84.0823 87.5302 84.9995 87.7263C85.9818 87.9362 86.142 87.7177 86.5619 86.7851C87.5508 84.5882 88.1482 82.286 88.3313 79.8882C88.4346 78.5344 88.5011 77.1705 88.4576 75.8152C88.383 73.5111 87.5274 71.4251 86.4758 69.407C85.681 67.8795 84.9115 66.3387 84.1411 64.7988C83.4353 63.3867 83.2899 61.9506 83.6696 60.3796C84.0402 58.845 84.2832 57.2539 84.3554 55.6772C84.5156 52.1785 83.7241 48.8659 82.1866 45.7034C81.2354 43.747 80.4263 41.7174 79.631 39.6898C78.7515 37.4469 78.4426 35.0778 78.4464 32.6857C78.4522 29.6949 78.3235 26.7261 77.6263 23.8037C76.6043 19.5226 74.7307 15.7246 71.4773 12.6649C69.3325 10.6478 66.8768 9.01416 64.7788 6.91572C63.2347 5.37106 61.2543 4.23528 59.3821 3.05455C57.4735 1.85086 55.4573 0.82029 53.1207 0.703125C52.7118 0.705038 52.303 0.707429 51.8946 0.70982C50.0984 0.992928 48.2854 1.19665 46.5107 1.57684C43.7452 2.16936 41.0738 3.0292 38.8333 4.88423C38.6325 5.05065 38.2298 5.05734 37.9395 5.0143C37.0921 4.88853 36.26 4.62073 35.4107 4.55186C33.35 4.38496 31.4816 5.14151 29.7132 6.05109C28.3206 6.76747 27.0351 7.64118 25.8726 8.78174C23.7894 10.8252 21.9511 13.014 20.5825 15.5821C18.9355 18.6738 17.8351 21.9372 17.3487 25.433C16.8585 28.9599 16.6715 32.4925 16.6658 36.0438C16.7026 36.9605 16.6161 37.8663 16.4549 38.7692C16.3741 39.2211 16.5252 39.6118 16.9068 39.894C17.2229 40.1278 17.508 40.1259 17.7485 39.7849C17.9914 39.2861 17.8628 38.7367 17.9599 38.2183C18.2975 36.3623 18.0546 34.4891 18.1186 32.624C18.0933 32.2405 18.0732 31.8579 18.1961 31.4849C18.3673 30.3702 18.3286 29.2425 18.4376 28.1211C18.8527 23.852 19.8226 19.7527 21.9583 16.001C24.1849 12.0906 27.1786 8.93573 31.2545 6.89994C33.3993 6.01235 35.57 5.58721 37.8205 6.53218C38.1251 6.66035 38.4512 6.75934 38.7889 6.72825C39.2059 6.69 39.6707 6.55657 39.6583 6.086C39.6435 5.50209 40.0241 5.36723 40.3919 5.15729C43.573 3.33718 47.0985 2.73844 50.6545 2.19135C52.4283 1.91829 54.091 2.1421 55.7136 2.81352C57.0967 3.38548 58.4242 4.06886 59.5624 5.06452C60.79 6.13908 62.1237 7.06636 63.5092 7.92238C63.8774 8.15001 64.2423 8.38003 64.5459 8.69184C66.2637 10.455 68.2823 11.8739 70.0847 13.5439C72.012 15.3296 73.5648 17.3639 74.6144 19.7708C76.2868 23.6062 76.9573 27.6543 76.9381 31.8039C76.9219 35.2762 77.5684 38.5808 78.7946 41.8178C79.7133 44.2424 80.9781 46.513 81.8452 48.9548C82.9389 52.1436 82.9547 55.4018 82.4133 58.6838C82.1761 60.1233 81.9303 61.5641 81.6319 62.9912C81.0049 65.9863 81.7118 68.7858 82.7691 71.5451C82.9547 72.0286 83.2416 72.4968 83.8374 72.4064C84.4295 72.3165 84.5811 71.8182 84.5763 71.2745C84.0608 69.3912 83.2124 67.5845 83.2124 65.6032C83.3033 66.958 84.1736 68.0316 84.6495 69.2501C86 71.8708 86.9765 74.578 86.7288 77.6061C86.6561 78.498 86.2859 79.3894 86.439 80.2579C86.7651 82.1148 85.9737 83.6906 85.3922 85.3309C85.2143 85.832 84.901 86.1018 84.3343 85.9626C83.2253 85.6905 82.0943 85.8311 80.9734 85.7943C80.587 85.7823 80.201 85.7842 79.8142 85.7933C79.4732 85.7828 79.1317 85.7833 78.7912 85.7923C78.6162 85.7909 78.4402 85.789 78.2647 85.7828C76.9993 85.755 75.7325 85.756 74.4667 85.7828C73.9861 85.768 73.5059 85.7622 73.0253 85.7842C72.4285 85.7651 71.8321 85.7651 71.2353 85.7842C70.6433 85.7665 70.0508 85.7646 69.4583 85.7852C68.9351 85.7703 68.4119 85.7747 67.8882 85.7775C67.2742 85.789 66.6563 85.865 66.0533 85.6723C65.0371 85.5145 64.0142 85.6034 62.9951 85.5948C62.2878 85.5891 61.6168 85.4958 61.0157 85.0889C60.4677 84.8273 60.7814 84.4466 60.8722 84.0966C61.1013 83.0134 60.8565 81.9933 60.1157 81.2287C59.2104 80.2952 59.0411 79.2345 59.1396 78.0394C59.1674 77.7104 59.1454 77.3775 59.1439 77.0461C59.1344 75.2561 58.7236 74.7091 57.0135 74.2055C56.1067 73.9382 55.9547 73.5618 56.6108 72.8975C58.3931 71.0937 59.8436 69.0479 61.1544 66.892C61.3251 66.6008 61.459 66.2909 61.6178 65.9934C61.8382 65.5568 61.9731 65.0762 62.5393 64.895C62.8569 64.7936 62.8688 64.4301 62.8583 64.1241C62.4241 59.2821 62.0845 54.4334 62.1778 49.5641C62.207 48.0749 62.2184 46.5838 62.174 45.0956C62.1027 42.7116 61.8689 40.3425 61.3337 38.0102C61.0669 37.1824 60.9822 36.3159 60.7709 35.4757C60.7307 34.3906 59.934 33.7105 59.3907 32.8956C57.2492 29.6844 55.5659 26.2479 54.3086 22.6005C54.147 22.2102 53.9944 21.81 53.6893 21.5053C53.2953 21.1122 53.0126 21.2088 52.8625 21.7373C52.6239 22.2896 52.2422 21.9534 51.9443 21.8525C51.0051 21.5345 50.095 21.1366 49.1644 20.7928C46.9273 19.9659 44.9297 18.7776 43.4205 16.8771C43.2349 16.6442 43.0489 16.4041 42.7132 16.3864C42.3818 16.4333 42.1642 16.6241 42.035 16.9268C41.9538 17.4141 42.2459 17.7599 42.5257 18.0755C43.739 19.4456 45.0311 20.7187 46.7001 21.5565C48.4834 22.4517 50.3633 23.1088 52.2059 23.8572C53.0342 24.1939 53.5985 24.7219 53.8462 25.5884C53.9643 26.0025 54.1216 26.4047 54.2828 26.805C55.4908 29.8049 57.2196 32.5217 58.8776 35.2772C59.2018 35.8157 59.5571 36.3432 59.6207 36.995C59.8202 37.7003 59.7632 38.4397 59.8938 39.1513C60.0095 39.7806 59.735 40.0489 59.176 40.2278C58.0699 40.5812 56.9814 40.8705 55.7839 40.7715C53.7132 40.6003 51.8912 41.386 50.228 42.5366C49.8406 42.8049 49.139 43.2047 50.0013 43.7848C50.4484 43.8498 50.8396 43.6628 51.2365 43.5117C51.8195 43.2898 52.3833 43.0187 52.9806 42.8369C53.4144 42.7054 53.8381 42.7466 54.1762 43.0741C54.5573 43.4443 54.3115 43.7896 54.0944 44.1296C53.983 44.3041 53.9504 44.4935 54.0375 44.6901C54.8041 45.3964 55.079 45.4055 56.2995 44.7637C56.7791 44.3792 56.9451 43.8551 56.9183 43.2736C56.8944 42.7542 57.111 42.7427 57.5146 42.8929C58.1 43.111 58.6461 43.4209 59.2415 43.6078C59.7441 43.6882 60.1573 43.5916 60.3362 42.9991C60.3405 44.8383 60.6398 46.6106 60.615 48.4087C60.5528 52.9872 60.6264 57.5648 61.2424 62.1141C61.2974 62.5187 61.2677 62.907 61.0908 63.2805C58.9938 67.7127 56.3157 71.6298 51.8338 74.0195C48.4824 75.8066 44.9661 76.6186 41.1747 76.0897C36.9377 75.4986 33.571 73.3538 30.9475 70.0889C28.7787 67.3894 27.2618 64.3163 26.9127 60.8095C26.6635 58.2974 26.3144 55.8016 25.9639 53.3043C25.5211 50.1537 25.0739 47.0037 25.2729 43.8063C25.3613 42.3836 25.5555 40.9657 25.4732 39.5348C25.2819 36.2088 25.8592 32.9879 26.8027 29.8168C26.9256 29.4041 27.0772 28.9933 26.9495 28.5515C26.5722 28.0474 26.3465 27.3296 25.4828 27.5185C24.8788 28.9465 24.7918 30.506 24.3465 31.9732C24.304 32.3304 24.2762 32.6876 24.2169 33.0453C23.809 35.5077 23.4518 37.9772 23.5087 40.4865C23.5307 40.8777 23.5383 41.2674 23.5297 41.6581C23.5221 41.9953 23.5159 42.3286 23.0582 42.3602C21.3117 42.8958 20.7733 43.5925 20.7345 45.3863C20.7245 45.8435 20.7178 46.3017 20.8101 46.7541C21.2979 49.4355 21.8942 52.0896 22.7918 54.6682C22.9975 55.1277 23.2399 55.5687 23.4504 56.0244C23.6407 56.3816 23.8172 56.7475 24.1261 57.0244C24.3317 57.1999 24.4766 57.4031 24.5393 57.6795C25.1308 60.2902 25.928 62.8534 26.3436 65.5052C26.4545 66.0623 26.6602 66.5783 26.9935 67.0407C27.2728 67.2827 27.4913 67.5577 27.6377 67.9082C28.0987 69.0158 28.7175 70.0363 29.4286 71.0009C30.1259 72.0014 31.0656 72.7842 31.8556 73.701C32.133 73.9386 32.4601 74.1237 32.6944 74.4039C33.12 74.9128 33.0043 75.2509 32.3362 75.5541C31.9168 75.6727 31.4902 75.7645 31.068 75.8673C30.7624 75.9477 30.4688 76.0567 30.2143 76.2518C29.2655 77.1619 29.102 78.2646 29.5281 79.4463C29.9374 80.5816 29.9757 81.705 29.6826 82.8599C29.5434 83.4079 29.5152 83.9694 29.4984 84.5337C29.4597 85.8354 29.1713 86.1084 27.8184 86.1869C27.4268 86.1639 27.0523 86.0276 26.6607 86.0037C24.7879 85.9999 22.9286 86.1964 21.0683 86.382C19.2076 86.3849 17.3473 86.4011 15.487 86.381C14.0877 86.3662 12.709 86.151 11.3456 85.8445C10.7889 85.7197 10.3322 85.4509 10.2127 84.8584C9.77701 82.7107 9.31122 80.5606 9.57903 78.3469C9.69045 77.4254 10.0936 76.6052 10.6436 75.797C11.0123 77.2465 11.5044 78.6114 12.2269 79.8801C12.4579 80.2856 12.6263 81.0364 13.181 80.7992C13.6167 80.6127 13.2403 79.9537 13.1112 79.5281C11.7731 75.1112 11.8783 70.6752 13.0122 66.2531C13.3216 65.0456 13.5454 63.8993 13.3632 62.6382C13.2154 61.6196 12.8706 60.6369 12.8395 59.602C12.5325 57.7929 12.5584 55.9924 12.9137 54.188C13.1059 53.2096 13.5908 52.3215 13.7367 51.3345C13.61 50.874 13.3804 50.5373 12.8348 50.5746C11.2064 53.7285 10.9338 57.0655 11.5359 60.5054C11.8386 62.2346 12.0553 63.9356 11.633 65.6941C11.051 68.1158 10.7344 70.5815 10.7861 73.0864C10.7928 73.4097 10.601 73.7784 10.404 74.0568C9.27296 75.6535 8.45424 77.3928 8.39877 79.3583C8.33421 81.6065 8.60249 83.8383 9.19262 86.0233C9.37626 86.7034 9.74067 87.0266 10.4657 86.9324C10.6823 86.9042 10.9204 86.9735 11.1399 87.0319C12.1949 87.3107 13.2326 87.6981 14.3043 87.8602C15.4784 88.0386 16.6825 88.0462 17.8743 88.0677C19.5959 88.0988 21.318 88.0759 22.58 88.0759C19.6518 88.8554 16.2732 89.8142 12.8625 90.6406C10.9252 91.1097 9.01616 91.6415 7.2013 92.4487C4.90631 93.4702 2.52285 94.3798 0.416278 95.7145C-2.12069 97.3213 -4.08428 99.624 -5.67054 102.201C-5.85896 102.508 -5.99478 102.854 -6.10429 103.198C-6.31375 103.852 -6.46248 104.527 -6.68007 105.179C-6.78432 105.49 -6.89192 105.8 -7 106.111C-6.5653 106.33 -6.12677 106.537 -5.68489 106.733C-5.43669 105.9 -5.14163 105.081 -4.78392 104.283C-3.12018 100.576 -0.781192 97.4791 3.10198 95.8322C3.85613 95.5122 3.94795 95.5954 3.92739 96.3898C3.82983 100.269 3.45012 104.135 3.39178 108.016C3.38652 108.341 3.37074 108.664 3.354 108.988C3.85279 109.023 4.35205 109.055 4.85132 109.078C4.86518 108.556 4.8757 108.033 4.89436 107.51C4.99239 104.691 5.25398 101.883 5.39984 99.0692C5.4644 97.8177 5.4381 96.5476 5.66716 95.3004C5.77381 94.7212 6.04257 94.3463 6.59922 94.1268C8.94777 93.201 11.2801 92.2259 13.7663 91.7156C17.4453 90.9605 21.0506 89.9094 24.6956 89.0189C26.1112 88.6736 27.5717 88.4627 28.893 87.7956C29.3789 87.5503 29.6821 87.7497 30.0006 88.1222C31.1306 89.444 32.5744 90.301 34.2056 90.862C39.4546 92.6596 44.7829 92.9073 50.2074 91.7854Z" fill="#982581"/>
<path fill-rule="evenodd" clip-rule="evenodd" d="M89.7959 103.103C89.8863 104.81 90.101 106.513 90.1579 108.219C92.7231 107.494 95.2213 106.576 97.6421 105.411C97.4001 104.309 97.1734 103.199 96.5613 102.213C96.1271 101.514 95.755 100.771 95.2844 100.098C94.6441 99.1823 94.0702 98.1469 93.2238 97.4659C92.1181 96.5759 90.7738 95.9829 89.377 95.1719C89.4578 95.9829 89.5525 96.6223 89.5802 97.2641C89.6634 99.21 89.6931 101.158 89.7959 103.103Z" fill="#8D457A"/>
<path fill-rule="evenodd" clip-rule="evenodd" d="M13.6341 51.1903C13.3677 50.9856 13.1018 50.7809 12.8359 50.5758C13.1233 49.9483 13.3596 49.2913 13.7058 48.6987C14.9492 46.5749 15.5322 44.258 15.8454 41.8453C16.096 39.9095 16.391 37.9799 16.666 36.0469C16.6722 36.9349 16.7378 37.8287 16.6655 38.7106C16.6058 39.4432 16.8994 39.8698 17.6163 39.8157C17.9199 40.1357 17.7525 40.5034 17.7133 40.853C17.4527 43.1734 16.7373 45.3976 15.9023 47.5381C15.3968 48.8355 14.6934 50.1626 13.6341 51.1903Z" fill="#8D2A47"/>
<path fill-rule="evenodd" clip-rule="evenodd" d="M66.0927 87.2258C65.8129 87.1522 65.5337 87.079 65.2539 87.0059C65.2616 86.9523 65.2683 86.8992 65.2754 86.8461C65.6824 86.9102 66.0884 86.9743 66.4954 87.0384C66.3615 87.1005 66.2271 87.1632 66.0927 87.2258Z" fill="#DFB9DC"/>
<path fill-rule="evenodd" clip-rule="evenodd" d="M3.12956 108.973C3.3022 108.986 3.4758 108.993 3.64843 109.005C3.65226 108.88 3.65848 108.756 3.6623 108.632C3.6953 107.438 3.636 106.239 3.70152 105.047C3.77325 103.736 3.97554 102.432 4.05731 101.121C4.15965 99.4738 4.19982 97.822 4.26104 96.1712C4.27395 95.8225 4.26343 95.4729 4.26343 94.9297C2.39023 95.9703 0.542856 96.5963 -0.86025 98.0501C-2.06059 99.2935 -3.17389 100.599 -4.01891 102.096C-4.8295 103.531 -5.47845 105.038 -5.93945 106.618C-3.09403 107.916 -0.0931802 108.735 3.12956 108.973Z" fill="#8D457A"/>
<path fill-rule="evenodd" clip-rule="evenodd" d="M45.6891 116.28C45.8307 116.248 45.9703 116.212 46.1109 116.178C49.973 114.423 53.98 112.972 58.1478 112.161C63.709 111.079 69.3707 111.024 75.0056 110.636C79.8194 110.304 84.493 109.701 88.9706 108.547C88.9702 108.536 88.9706 108.524 88.9697 108.513C88.863 106.904 88.7162 105.297 88.5909 103.69C88.5149 102.704 88.4566 101.717 88.3767 100.731C88.2543 99.2233 88.1189 97.7159 87.9922 96.2081C87.9463 95.6682 87.9453 95.1407 88.7755 94.8289C87.7531 94.3746 86.9774 93.925 86.142 93.6783C83.3042 92.8404 80.4731 91.9476 77.5875 91.3087C73.0028 90.2934 68.4028 89.3561 63.8826 88.0706C63.0519 88.6459 62.6435 89.5943 61.909 90.269C58.0349 93.8284 53.2785 95.4496 48.2552 96.3329C44.6021 96.9756 40.9083 96.571 37.2604 96.0096C34.2008 95.5386 31.3697 94.4286 28.837 92.6276C27.6725 91.8003 26.6496 90.8271 25.9897 89.3862C26.3436 89.6249 26.4602 89.9046 26.6554 90.117C27.958 91.5358 29.2143 93.015 30.9689 93.9117C34.5977 95.7657 38.5043 96.3984 42.528 96.4558C46.7708 96.5161 50.818 95.5433 54.7667 94.0704C57.4567 93.0666 59.8301 91.587 61.7583 89.4436C62.1643 88.9922 62.7119 88.5938 62.676 87.8722C61.9429 87.4069 61.2093 86.9416 60.4887 86.4844C60.2237 86.7828 60.0037 87.0257 59.7881 87.273C58.8177 88.3872 57.4481 88.8621 56.1909 89.5149C52.6047 91.3771 48.6833 91.861 44.7475 92.2345C43.8417 92.3206 42.9111 92.0935 41.9905 92.0652C39.4048 91.9863 36.897 91.5253 34.4556 90.665C32.4815 89.9692 30.7384 88.9769 29.7059 87.2438C28.4716 87.6436 27.311 88.0907 26.1135 88.3939C21.7196 89.5067 17.2932 90.4986 12.9189 91.6836C10.6067 92.3101 8.37768 93.2431 6.10947 94.0322C5.64846 94.1924 5.47296 94.4659 5.44378 94.9829C5.37109 96.2937 5.17741 97.5973 5.07507 98.9072C4.92061 100.877 4.75801 102.849 4.68006 104.823C4.62459 106.236 4.59016 107.651 4.55859 109.065C8.66653 109.281 12.7855 109.165 16.892 109.456C21.1979 109.761 25.8237 110.155 30.0311 111.447C35.0635 112.341 39.7218 114.243 44.286 116.47C44.7489 116.441 45.2152 116.387 45.6891 116.28Z" fill="#8D457A"/>
<path fill-rule="evenodd" clip-rule="evenodd" d="M59.0982 43.4112C59.1972 43.4203 59.2971 43.4409 59.3957 43.4361C60.1197 43.4031 60.1077 43.4045 59.9241 42.7111C59.8911 42.5858 59.9982 42.4232 60.0408 42.2778C60.1933 42.3524 60.4334 42.3912 60.4817 42.5083C60.5917 42.7781 60.6453 43.0846 60.6582 43.3787C60.7519 45.5321 60.849 47.6865 60.9083 49.8414C60.9829 52.5615 60.9829 55.2845 61.0938 58.0032C61.1517 59.4207 61.3889 60.83 61.5209 62.2455C61.5501 62.5559 61.5611 62.9165 61.4353 63.1862C59.9848 66.2947 58.2996 69.2601 55.7239 71.5962C53.0429 74.0285 49.9163 75.6583 46.3454 76.2843C38.4294 77.6716 31.4588 73.368 28.2179 66.1421C27.7105 65.0121 27.2538 63.8548 26.8583 62.6817C26.6723 62.1298 26.6857 61.51 26.6106 60.9204C26.2127 57.7718 25.8526 54.6174 25.4079 51.4755C24.9612 48.3192 24.9172 45.1644 25.143 41.9904C25.2415 40.6017 25.1927 39.201 25.1807 37.806C25.1583 35.0342 25.7991 32.3772 26.5422 29.736C26.6584 29.3233 26.7536 28.9039 26.8588 28.4878C26.7555 28.176 26.8531 27.9106 27.0482 27.6672C27.7359 26.7337 28.2203 25.6716 29.0027 24.7883C30.5803 23.0059 32.7577 22.2083 34.7744 21.1552C35.8303 20.6038 36.9656 20.2002 38.1114 19.8521C38.6011 19.7029 39.0851 19.6192 39.4844 20.085C41.6048 22.5588 44.4412 23.8883 47.475 24.6969C49.3946 25.2086 50.7131 26.2062 51.7331 27.8259C52.8297 29.5681 54.0219 31.2472 55.3045 32.8626C56.2667 34.0744 57.3929 35.0839 58.6755 35.9347C59.0882 36.2087 59.543 36.434 59.8423 36.8538C59.9815 37.7653 60.1197 38.6773 60.2608 39.5888C60.3186 39.9632 60.2129 40.2263 59.8165 40.3382C58.9294 40.5883 58.0476 40.8585 57.1576 41.1005C56.9806 41.1488 56.7745 41.1315 56.5895 41.1014C54.1778 40.7121 52.1037 41.5476 50.187 42.8957C50.0101 43.02 49.297 43.3285 50.1091 43.6589C50.801 44.4848 51.8063 44.4054 52.7278 44.5465C53.1773 44.6154 53.646 44.4949 54.0941 44.6407C54.821 45.2428 55.5307 44.9788 56.2389 44.601C57.0662 43.9024 58.1901 43.9148 59.0982 43.4112Z" fill="#FBC1B0"/>
<path fill-rule="evenodd" clip-rule="evenodd" d="M13.6356 51.1952C14.2631 50.078 14.9115 48.9714 15.5093 47.8381C15.7312 47.4172 15.8575 46.9404 15.9871 46.478C16.438 44.8721 16.888 43.2658 17.3036 41.6503C17.4576 41.053 17.5155 40.4313 17.6178 39.8206C17.6245 39.2893 17.6312 38.758 17.6384 38.2267C18.1922 37.9508 18.0511 37.3611 18.2032 36.9164C18.9798 34.6381 19.3447 32.2671 19.3284 29.8794C19.3083 26.9684 20.523 24.7672 22.7864 23.0943C24.9265 21.5133 26.0015 19.3938 26.3521 16.8004C26.7844 13.6026 27.7155 10.5855 29.855 8.05901C30.2635 7.57744 30.6661 7.09682 31.1778 6.71999C33.0285 5.79271 34.9577 5.44648 36.9911 5.97348C37.4684 6.09686 37.9164 6.35367 38.3966 6.43496C38.7199 6.48948 39.1259 6.42157 39.3956 6.25133C39.5123 6.17768 39.3784 5.70711 39.3549 5.36996C40.2569 4.93861 41.2382 4.47855 42.2109 4.00225C44.0344 3.1094 46.007 2.73639 47.9749 2.3629C49.2613 2.11853 50.5587 1.8732 51.8619 1.79094C52.695 1.73882 53.5663 1.90428 54.386 2.11087C56.6656 2.68522 58.6087 3.90325 60.424 5.37092C61.4708 6.21785 62.6066 6.95479 63.6984 7.74721C64.0968 8.03605 64.4975 8.3249 64.8719 8.64292C66.1789 9.75 67.496 10.8466 68.7714 11.9895C70.7598 13.7719 72.7009 15.5848 74.0055 17.9883C75.5497 20.8328 76.411 23.8542 76.8533 27.0449C77.1589 29.2462 77.1824 31.4455 77.2464 33.6549C77.3268 36.4042 77.9714 39.0555 79.0187 41.5968C79.9613 43.8817 80.9541 46.1456 81.9201 48.4205C81.9703 48.5396 81.9818 48.6749 82.011 48.8022C82.2228 49.4702 82.2812 50.1651 82.2745 50.8542C82.2429 54.0033 82.4285 57.1572 82.0813 60.3001C82.0272 60.7941 82.0172 61.2699 81.5131 61.5975C81.0234 61.9155 81.0048 62.5061 80.9182 63.024C80.3668 66.3195 80.7843 69.5675 81.4108 72.8051C81.5562 73.555 81.7566 74.2919 81.9082 75.0398C81.966 75.3253 82.0875 75.7036 81.77 75.8552C81.4017 76.0307 81.1755 75.6711 80.9809 75.4176C80.5127 74.8069 80.1842 74.1178 79.9264 73.3952C78.6682 69.8688 78.0805 66.2099 77.7443 62.497C77.4124 58.831 77.092 55.1678 75.9409 51.6284C75.2035 49.3602 73.9663 47.454 72.3179 45.763C70.569 43.9688 68.637 42.3457 67.1186 40.3223C68.2477 41.9114 69.3711 43.5087 70.2936 45.2227C71.2978 47.0901 72.238 48.9982 72.6182 51.1191C72.6163 51.3353 72.5737 51.5338 72.3676 51.6538C71.9836 51.7365 71.8291 51.4525 71.6952 51.1937C69.152 46.2829 65.6711 42.0396 62.1791 37.8045C61.5818 37.058 60.9902 36.3071 60.5029 35.4798C60.4493 34.7998 60.1356 34.2757 59.7076 33.7329C58.9779 32.8075 58.3595 31.7879 57.7579 30.7703C56.2467 28.2132 55.0349 25.5165 54.1086 22.6926C54.4835 22.5119 54.66 22.9987 55.0521 22.9604C54.3157 21.8691 53.3248 21.1059 52.298 20.3905C50.6381 19.2346 49.037 18.0051 47.5058 16.6838C46.6555 15.9497 46.051 14.9971 45.216 14.088C46.0161 15.997 47.4297 17.2533 48.8496 18.4914C49.9237 19.4283 51.1273 20.2006 52.276 21.0423C52.6008 21.28 52.9169 21.5095 53.1 21.8792C53.0995 22.2177 53.1856 22.5774 52.5898 22.3473C50.2278 21.4359 47.7401 20.7764 45.6584 19.2805C44.6838 18.5804 43.9129 17.5967 43.0468 16.744C42.954 16.6527 42.8445 16.5781 42.7427 16.4958C41.6915 15.712 41.3874 14.4342 40.6361 13.3505C40.5653 13.6466 40.7284 13.9459 40.5376 14.1702C40.4037 14.2429 40.2674 14.2439 40.1282 14.1865C39.2497 13.2042 38.2785 13.7245 37.3952 14.1028C34.39 15.3897 31.8086 17.2237 29.9904 20.0213C28.9067 21.6879 27.804 23.3358 27.0818 25.2033C26.7499 26.0627 25.9982 26.6571 25.6022 27.4792C25.2727 28.9239 24.9427 30.3681 24.6132 31.8123C23.7816 36.6687 21.302 40.7474 18.5986 44.742C15.7417 48.9633 13.7672 53.5595 13.0823 58.6545C13.0336 59.016 12.9872 59.3862 12.6036 59.5775C12.4487 58.5282 12.1675 57.4962 12.3927 56.4107C12.5319 55.7416 12.4683 55.0272 12.6366 54.3687C12.9078 53.296 13.2956 52.2516 13.6356 51.1952Z" fill="#8E363B"/>
<path fill-rule="evenodd" clip-rule="evenodd" d="M72.459 51.1738C71.975 49.8831 71.514 48.5833 71.0019 47.304C70.1219 45.1066 68.759 43.1932 67.4071 41.2732C67.0393 40.751 66.7509 40.1737 66.4257 39.6219C66.5061 39.554 66.5864 39.4861 66.6668 39.4181C66.8867 39.6166 67.1259 39.7974 67.3234 40.0159C68.3205 41.1201 69.2912 42.2478 70.3008 43.341C71.537 44.6805 72.8727 45.9358 74.0285 47.3399C74.7325 48.1945 75.3011 49.2117 75.7147 50.2422C76.5999 52.4478 77.1982 54.7466 77.4402 57.1224C77.6477 59.1558 77.7936 61.1974 78.048 63.225C78.4836 66.6931 78.9872 70.1545 80.243 73.4466C80.5773 74.3232 80.9489 75.2012 81.8226 75.9257C81.5758 74.7923 81.3668 73.8028 81.1445 72.8158C80.5237 70.0593 80.2698 67.2679 80.43 64.4493C80.4783 63.6004 80.6849 62.7569 80.8628 61.9204C80.914 61.6789 81.123 61.2758 81.253 61.2782C81.9632 61.2911 81.7906 60.8052 81.7977 60.4298C81.8728 56.5533 81.9422 52.6769 82.0125 48.8004C82.6647 50.1552 82.8627 51.6181 82.9914 53.0886C83.2539 56.0847 82.7853 59.0229 82.0981 61.9161C81.3018 65.267 81.8231 68.4534 83.0555 71.5777C83.1678 71.8632 83.5705 72.2567 83.7967 72.2309C84.3624 72.1664 84.3658 71.6059 84.3983 71.1411C84.4638 70.4481 84.3926 69.7284 84.7986 69.1024C86.5742 72.1315 87.4685 75.3399 86.843 78.8773C86.7134 79.6133 86.5694 80.3655 86.8119 81.1235C86.8765 81.3243 86.8612 81.5821 86.798 81.7882C86.3801 83.144 85.9501 84.4964 85.4992 85.8416C85.3777 86.2041 85.1505 86.3954 84.6757 86.3409C83.4634 86.2017 82.241 86.1496 81.0221 86.0626C80.8858 85.9119 80.7767 85.7398 80.7686 85.5365C80.6926 83.7374 80.6988 81.9393 80.7313 79.9872C80.6787 81.6643 80.7251 83.2076 80.3382 84.7054C80.2148 85.1812 80.1976 85.6958 79.794 86.0573C79.463 86.0621 79.1312 86.0669 78.8002 86.0716C78.5506 85.5753 78.4923 85.0497 78.553 84.5418C78.322 85.0071 78.8672 85.5824 78.4248 86.0669C77.0887 86.0688 75.753 86.0707 74.4168 86.0731C74.16 85.7885 74.0625 85.4351 74.018 85.0712C73.7712 83.0282 73.3265 81.0235 72.9932 79.6711C73.2433 80.9379 73.1481 82.89 73.2887 84.824C73.3188 85.2381 73.3351 85.6943 73.0549 86.0712C72.4604 86.0697 71.8665 86.0673 71.2716 86.0659C70.4112 85.0349 70.2338 83.7178 69.8264 82.5065C69.4156 81.2846 69.0971 80.0288 68.7958 78.7706C67.8265 74.4537 67.6567 70.0521 67.3296 65.6621C67.111 62.7301 66.8982 59.7919 66.4798 56.8771C66.5128 56.1756 66.3038 55.4883 66.3535 55.0474C66.4162 55.6376 66.4047 56.4974 66.5797 57.3415C66.7275 58.527 66.7801 59.7173 66.7724 60.9095C66.7428 65.5535 66.8738 70.1889 67.452 74.8033C67.4769 75.0013 67.4893 75.1997 67.4544 75.3963C67.1531 76.1385 66.8279 75.6158 66.6185 75.3628C65.9073 74.5039 65.2168 73.624 64.6893 72.6312C64.6262 72.4648 64.5922 72.2936 64.587 72.1161C64.3656 71.2377 64.3498 70.3439 64.3546 69.4458C64.3646 67.4855 64.3503 65.5258 64.3593 63.5655C64.3761 59.7804 64.2044 56.0024 63.9968 52.224C63.9385 51.1571 64.0824 50.0811 63.9232 49.0146C63.8725 48.8855 63.7295 49.0768 63.839 49.0017C63.8802 48.9735 63.9069 48.9946 63.9155 49.0653C64.1241 50.7128 63.9997 52.3656 63.9261 54.0111C63.8151 56.496 63.5014 58.9784 63.608 61.4657C63.7075 63.7846 63.8524 66.103 63.9792 68.4209C63.9868 68.5534 63.9729 68.6868 63.9619 68.8188C63.8921 69.0967 63.9141 69.5079 63.5358 69.4964C63.2757 69.4878 63.1772 69.1253 63.1313 68.8685C62.8754 67.4406 62.4967 66.0241 62.6798 64.5502C62.5497 63.4737 62.391 62.3991 62.2934 61.3193C61.8525 56.4295 61.8917 51.5258 61.9075 46.6235C61.9175 43.6691 61.5785 40.75 61.0692 37.8462C60.8946 37.5038 61.0692 37.38 61.3834 37.3613C61.7133 37.3417 62.0031 37.4737 62.2824 37.6329C64.1346 39.9451 66.09 42.1842 67.8097 44.5916C69.4132 46.8363 70.7656 49.2605 72.228 51.6057C72.8846 52.2651 72.9391 53.2048 73.3337 53.9867C73.5044 54.3258 73.4905 54.7481 73.9152 55.2186C73.8674 55.1407 73.875 54.9073 73.8009 55.0178C73.776 55.0546 73.7416 55.0407 73.7172 54.97C73.2882 53.706 72.6417 52.5171 72.459 51.1738Z" fill="#EC9627"/>
<path fill-rule="evenodd" clip-rule="evenodd" d="M12.601 59.5772C12.844 58.318 13.0434 57.0483 13.3375 55.8011C14.3446 51.5287 16.2924 47.679 18.7022 44.0421C19.5606 42.7461 20.4023 41.4386 21.2425 40.1307C22.5624 38.0753 23.2577 35.7617 23.9961 33.4648C24.1759 32.9062 24.4045 32.3629 24.6111 31.8125C24.4653 33.0454 24.2926 34.2753 24.1807 35.5116C24.0272 37.2059 23.9196 38.9045 23.7924 40.6013C23.548 41.2521 23.6862 42.0082 23.241 42.6041C21.408 43.1081 21.0072 43.6289 21.0077 45.5035C21.0082 45.9306 21.0029 46.3572 21.0005 46.7837C20.9192 47.8138 20.3076 48.6302 19.8557 49.4981C18.9011 51.3336 18.2316 53.2517 17.917 55.2956C17.6353 57.1287 17.5722 58.9727 17.6224 60.8229C17.6152 61.7014 17.8223 62.5766 17.73 63.1681C17.7395 61.9032 17.5516 60.3519 17.6233 58.7972C17.6429 55.7968 18.3837 52.9624 19.5931 50.2379C19.7949 49.7827 20.0503 49.3508 20.4214 49.008C20.563 48.8774 20.7303 48.732 20.9465 48.8133C21.1689 48.897 21.1756 49.1175 21.1928 49.3135C21.2071 49.48 21.1765 49.6454 21.1287 49.8042C20.5845 51.6253 20.2918 53.4942 20.1904 55.3831C20.0776 57.5045 20.3822 59.6102 20.6007 61.7162C20.6859 62.5383 20.9298 63.3417 20.8891 64.1791C20.3989 67.1154 21.4381 69.8704 21.9321 72.6828C22.5557 76.2341 22.8163 79.7591 21.8986 83.2984C21.6916 84.0966 21.5381 84.9124 21.4902 85.7431C21.4687 86.1109 21.4152 86.4777 21.0068 86.646C18.882 86.6503 16.7544 86.7149 14.633 86.635C13.5226 86.5934 12.4117 86.3438 11.318 86.108C10.0301 85.8306 10.0057 85.7455 9.80343 84.4175C9.67622 83.5854 9.4285 82.7614 9.39503 81.9274C9.33956 80.5147 9.33286 79.0906 9.46246 77.6855C9.52654 76.9935 9.91342 76.3212 10.2118 75.6665C10.3175 75.4345 10.5944 75.281 10.9253 74.9654C11.2056 77.2097 11.9722 79.0757 13.1902 80.7705C12.9913 80.0551 12.7789 79.3431 12.5953 78.6233C11.9526 76.1017 11.7302 73.5623 11.9875 70.9512C12.1917 68.8709 12.3901 66.8146 13.172 64.8553C13.2428 64.6784 13.2634 64.4612 13.2404 64.2704C13.1132 63.225 12.9659 62.182 12.8229 61.1381C12.7512 60.6173 12.6747 60.097 12.601 59.5772Z" fill="#EC9627"/>
<path fill-rule="evenodd" clip-rule="evenodd" d="M57.4873 79.8885C57.6389 80.6513 57.9641 81.2954 58.5351 81.8616C59.4227 82.7416 59.5542 84.2107 59.0836 85.3216C58.4782 86.7519 57.4859 87.6931 56.0292 88.2148C54.5419 88.7471 53.1106 89.4573 51.5985 89.8934C48.3671 90.8259 45.0305 91.0861 41.6949 90.8235C39.0465 90.6146 36.3848 90.2583 33.943 89.0694C33.2357 88.7251 32.548 88.3239 31.9067 87.87C31.3749 87.4932 31.0459 87.0461 31.1387 86.2312C31.2941 84.8625 31.153 83.4785 31.5428 82.1055C31.844 81.042 31.4127 79.9554 31.1755 78.8957C31.5829 78.8154 31.7728 79.1272 31.9808 79.3687C32.9301 80.4743 34.1577 81.0836 35.5565 81.3691C41.4745 82.5747 47.3968 82.535 53.3129 81.3619C54.3865 81.1491 55.4075 80.7464 56.3836 80.2371C56.726 80.0587 57.0483 79.7761 57.4873 79.8885Z" fill="#8D457A"/>
<path fill-rule="evenodd" clip-rule="evenodd" d="M64.8845 72.7116C65.5526 73.6011 66.2182 74.4934 66.8925 75.3786C66.9891 75.5049 67.1288 75.5981 67.2483 75.7067C67.5625 75.8167 67.65 76.0826 67.7055 76.3705C68.1445 79.1556 68.7748 81.9011 69.4266 84.6428C69.5361 85.1038 69.826 85.5887 69.4266 86.0597C68.9116 86.0592 68.397 86.0588 67.882 86.0588C67.2928 85.8254 66.6544 86.1195 66.0647 85.889C64.8395 85.8818 63.6138 85.8694 62.3882 85.8689C61.689 85.8689 61.1046 85.6332 60.6579 85.0851C60.5293 84.8058 60.7914 84.5395 60.6862 84.2611C60.8832 82.7571 60.3069 81.5687 59.2481 80.5353C59.0243 80.3163 58.9038 79.9021 58.8923 79.5722C58.8555 78.5478 58.8522 77.5187 58.9148 76.4962C58.9708 75.5737 58.2831 74.7512 57.2076 74.5083C57.0474 74.4724 56.8814 74.46 56.7226 74.4207C55.7456 74.1802 55.5845 73.5968 56.2602 72.8393C57.1817 71.8068 58.1272 70.7915 58.9827 69.7064C59.6121 68.9083 60.1089 68.0063 60.6752 67.1575C60.7813 66.9987 60.9358 66.8725 61.0678 66.7314C61.3385 66.5435 61.349 66.2317 61.4374 65.9567C61.5173 65.7472 61.5809 65.5301 61.6804 65.3307C61.8497 64.9916 61.9314 64.4952 62.5235 64.7745C62.5364 64.7807 62.6249 64.6263 62.6775 64.5469C62.8085 65.2752 62.9472 66.0021 63.0691 66.7324C63.2164 67.6161 63.3489 68.5027 63.643 69.3803C63.6574 69.2258 63.6727 69.0713 63.6865 68.9169C64.1772 69.0149 64.115 69.4334 64.1375 69.7624C64.1729 70.2803 64.2489 70.791 64.3259 71.3027C64.7381 75.0592 65.1819 78.8108 65.7391 81.3731C65.3154 79.6142 64.9839 76.6655 64.6234 73.7221C64.5798 73.3624 64.5655 72.9885 64.8845 72.7116Z" fill="#D4713C"/>
<path fill-rule="evenodd" clip-rule="evenodd" d="M40.1492 14.0703C40.2783 14.0813 40.4079 14.0923 40.5371 14.1033C41.2592 14.933 41.712 15.9091 42.0726 16.9349C43.2055 18.8267 44.7497 20.3145 46.7243 21.2633C48.5942 22.1614 50.5405 22.9017 52.4649 23.684C53.2434 24.0006 53.7623 24.476 54.0244 25.3119C54.901 28.1076 56.3533 30.6283 57.8602 33.1189C58.425 34.0519 58.9874 34.9859 59.523 35.9356C59.6789 36.212 59.7377 36.5434 59.841 36.85C58.0343 36.0231 56.5106 34.8142 55.3165 33.2461C53.7795 31.228 52.2717 29.1826 50.8695 27.0698C50.0881 25.892 49.0255 25.408 47.7467 25.0575C44.9874 24.3019 42.4146 23.1379 40.2214 21.247C39.9957 21.0524 39.7848 20.8376 39.5883 20.6129C38.8857 19.8095 38.8867 19.7985 37.8724 20.1423C35.3565 20.9955 33.0003 22.213 30.7282 23.552C29.6412 24.1924 28.7747 25.2263 28.1315 26.3802C27.8465 26.8915 27.4945 27.3654 27.1726 27.856C26.9842 27.66 27.0005 27.4232 27.089 27.2057C28.8914 22.7744 31.0247 18.5603 35.1365 15.7714C36.629 14.759 38.3353 14.2181 40.1492 14.0703Z" fill="#DF92A4"/>
<path fill-rule="evenodd" clip-rule="evenodd" d="M31.1762 6.71875C30.5846 7.50877 29.9868 8.29449 29.4015 9.08978C27.9185 11.1045 27.2103 13.4148 26.7823 15.8456C26.5211 17.3286 26.3394 18.8302 25.6465 20.218C25.0975 21.3184 24.2668 22.1496 23.3993 22.9678C22.5567 23.7617 21.6753 24.5158 20.8676 25.3436C20.1512 26.0786 19.8992 27.0179 19.8031 28.0417C19.4965 31.3094 19.4449 34.624 18.2106 37.7377C18.1221 37.9601 18.2187 38.533 17.6367 38.226C17.6979 37.8778 17.807 37.5306 17.8122 37.182C17.8361 35.6115 17.8304 34.041 17.8357 32.4706C18.0451 32.1602 17.8031 31.7714 18.0093 31.4606C18.0112 27.9829 18.4502 24.5469 19.4564 21.2323C20.3793 18.1947 21.7308 15.3306 23.7704 12.8247C25.4313 10.7841 27.3069 8.99844 29.4933 7.54608C30.0098 7.20319 30.6128 6.99086 31.1762 6.71875Z" fill="#B16136"/>
<path fill-rule="evenodd" clip-rule="evenodd" d="M21.0084 86.6449C21.1408 85.8764 21.2623 85.106 21.4086 84.3398C21.6477 83.0874 22.0227 81.8474 22.1202 80.5853C22.2393 79.0459 22.2886 77.4683 22.0877 75.9442C21.6994 72.9978 21.1805 70.0635 20.5756 67.153C20.357 66.0995 20.6057 65.1344 20.6291 64.1292C20.7492 64.0862 20.8458 64.1168 20.9199 64.2201C21.8108 68.0286 22.6821 71.842 22.8916 75.7672C22.9294 76.4783 22.9442 77.1923 23.3627 78.0364C23.903 76.8203 23.7323 75.7395 23.6395 74.6774C23.345 71.2968 22.4947 68.0133 21.8452 64.6954C21.654 63.7189 21.4694 62.7414 21.3292 61.7563C21.2843 61.488 21.2188 61.2202 21.3082 60.949C21.6846 60.5487 21.357 59.8587 21.8936 59.5234C22.2226 59.6473 22.2914 59.9558 22.3708 60.2365C23.9958 65.9794 25.9125 71.6464 26.9536 77.5433C27.3945 80.0416 27.2965 82.5666 27.2583 85.0864C27.2511 85.5258 27.1397 85.9405 26.836 86.281C24.8934 86.4024 22.9509 86.5239 21.0084 86.6449Z" fill="#D4713C"/>
<path fill-rule="evenodd" clip-rule="evenodd" d="M30.4195 76.3087C29.521 77.2881 29.3015 78.4028 29.8543 79.6118C30.3727 80.7456 30.1713 81.8709 29.9614 83.0162C29.8667 83.5327 29.7945 84.0611 29.7878 84.5843C29.7687 86.1247 29.4 86.49 27.8214 86.4523C27.5421 86.2045 27.4876 85.8693 27.5449 85.5389C28.52 79.9451 26.8778 74.6765 25.4585 69.4036C24.5699 66.1015 23.6536 62.8166 23.2132 59.4174C23.119 58.689 23.0999 57.9621 23.1367 57.2333C23.1606 56.7709 23.1979 56.2974 23.6135 55.9766C23.7947 56.2453 23.9755 56.5141 24.1567 56.7828C24.6804 57.8187 24.7483 58.9793 25.0496 60.0764C25.5527 61.9084 25.9764 63.7625 26.5885 65.5645C26.787 66.025 26.9854 66.4855 27.1839 66.946C28.2135 68.7293 28.9294 70.6484 29.565 72.5953C29.8418 73.4436 30.1202 74.2944 30.3569 75.1557C30.4597 75.5297 30.6395 75.9118 30.4195 76.3087Z" fill="#D4713C"/>
<path fill-rule="evenodd" clip-rule="evenodd" d="M31.5552 77.1284C32.108 76.9275 32.6608 76.7272 33.4422 76.4431C33.151 76.8721 33.9023 77.6329 32.7995 77.345C32.6948 77.3178 32.4748 77.3795 32.4576 77.4421C32.4184 77.5808 32.4179 77.795 32.502 77.8902C32.6718 78.0829 32.9081 78.2173 33.1175 78.3742C33.4073 78.5903 33.7096 78.7917 33.9855 79.0236C34.2734 79.2656 34.4207 79.5908 34.9443 79.2125C35.236 79.0011 35.8907 79.2221 36.3603 79.3364C38.3517 79.8227 40.3812 79.9848 42.417 80.0962C44.0004 80.1828 45.5948 80.3707 47.1677 80.2665C49.6526 80.1015 52.1594 79.9332 54.5438 79.1025C55.1301 78.8983 55.6968 78.5989 56.2114 78.2527C56.4381 78.1001 56.5127 77.7214 56.6561 77.4455C56.4031 77.3321 56.1511 77.2154 55.8957 77.1064C55.8097 77.0696 55.7155 77.0514 55.6275 77.0256C55.6528 76.8089 55.6552 76.6119 55.7011 76.4254C55.7886 76.0749 55.4491 75.5517 55.9594 75.3929C56.4873 75.2289 57.6456 75.8845 57.6542 76.3475C57.67 77.1958 57.5533 78.0466 57.4916 78.8964C56.4548 80.1919 54.978 80.7251 53.4563 81.0728C49.2886 82.0249 45.063 82.177 40.8083 81.8418C39.4186 81.7322 38.0327 81.6036 36.6678 81.3301C34.9984 80.9948 33.3533 80.5568 32.1836 79.1819C31.69 78.6028 31.1994 77.9849 31.5552 77.1284Z" fill="#8D457A"/>
<path fill-rule="evenodd" clip-rule="evenodd" d="M23.6089 55.9784C23.1335 57.9276 23.5998 59.8247 23.8781 61.7448C24.4706 65.8288 26.0808 69.6522 26.8637 73.6827C27.2754 75.8055 27.5762 77.9508 28.0119 80.0684C28.3744 81.8302 27.966 83.536 27.8259 85.2648C27.7943 85.6588 27.8177 86.0577 27.8163 86.4541C27.4878 86.3953 27.1597 86.3365 26.8312 86.2776C26.8847 85.326 26.9526 84.3748 26.9904 83.4222C27.1238 80.0717 26.7116 76.7863 25.8039 73.5593C24.4965 68.911 23.1952 64.2607 21.8892 59.6119C21.8816 59.5847 21.8423 59.5665 21.8179 59.5445C21.5731 59.3408 21.5564 59.0567 21.543 58.7712C21.7548 57.3351 21.5631 55.7493 23.0111 54.7656C23.211 55.1697 23.41 55.5743 23.6089 55.9784Z" fill="#8F373B"/>
<path fill-rule="evenodd" clip-rule="evenodd" d="M63.8813 88.0715C63.0693 89.8629 61.5413 90.9619 60.0292 92.0852C57.519 93.9498 54.6693 95.0502 51.6761 95.8201C50.2472 96.1879 48.8134 96.6097 47.3553 96.7737C45.8461 96.9435 44.299 96.9224 42.7797 96.8234C39.798 96.6293 36.7986 96.5045 33.9374 95.4681C31.9403 94.7451 29.9959 93.9187 28.3149 92.6041C27.3513 91.8509 26.4647 90.9901 25.9004 89.8672C25.7832 89.6329 25.6799 89.3861 25.6134 89.1341C25.5847 89.0251 25.6665 88.8873 25.6981 88.763C25.8368 88.8189 26.0175 88.8376 26.1065 88.9375C26.8965 89.8242 27.6784 90.718 28.4469 91.6237C29.5961 92.979 31.1249 93.7461 32.7179 94.4194C34.7011 95.2577 36.7995 95.6566 38.9037 96.031C39.1299 96.0712 39.3685 96.054 39.6 96.043C41.0753 95.9727 42.5444 96.1391 44.0274 96.0851C46.0493 96.0114 48.0392 95.9134 49.9736 95.2654C52.0018 94.5854 54.094 94.0603 56.058 93.231C58.748 92.0948 60.9895 90.3014 62.6747 87.8725C63.1372 87.5713 63.5097 87.8204 63.8813 88.0715Z" fill="#AF5BA2"/>
<path fill-rule="evenodd" clip-rule="evenodd" d="M23.0132 54.7666C22.9056 55.0225 22.8659 55.4103 22.677 55.5079C22.1753 55.7666 22.1175 56.2348 22.0362 56.6561C21.9008 57.3557 21.8707 58.0754 21.7966 58.787C21.162 58.3337 21.3576 57.6092 21.2112 56.9966C21.2624 56.3285 20.9673 55.6618 21.1041 55.2295C21.1146 55.9569 21.1462 56.9162 21.3499 57.8674C21.3475 58.8965 21.8779 59.9109 21.4307 60.95C21.4805 61.1557 21.5297 61.3613 21.579 61.5674C21.2672 62.4144 21.3069 63.366 20.8057 64.157C20.7455 64.1508 20.6857 64.1407 20.6264 64.1273C20.4528 62.7271 20.1926 61.3312 20.1271 59.9257C20.0496 58.2576 19.7522 56.6135 19.942 54.9086C20.1577 52.9738 20.4504 51.0752 20.9965 49.2111C21.0214 49.1265 20.9717 49.0203 20.9559 48.917C19.4959 50.0542 17.8876 55.0918 17.8039 58.7588C17.6212 59.2557 17.7728 59.7712 17.714 60.2743C17.6925 60.4589 17.8359 60.7664 17.44 60.7387C17.385 58.338 17.4075 55.9497 17.9775 53.5892C18.5719 51.1288 19.7857 48.9586 20.9994 46.7812C21.172 47.5263 21.3313 48.2747 21.5211 49.015C22.0118 50.9341 22.5149 52.8494 23.0132 54.7666Z" fill="#914726"/>
<path fill-rule="evenodd" clip-rule="evenodd" d="M50.1132 78.5024C49.7249 78.566 49.3375 78.6822 48.9492 78.6846C46.3276 78.7023 43.7031 78.7678 41.0853 78.6726C39.1781 78.6028 37.2801 78.2953 35.3753 78.1289C34.8933 78.0868 34.756 77.8902 34.7752 77.4426C34.8019 76.8267 34.7818 76.2088 34.7818 75.5006C41.5803 79.0786 48.0042 78.1667 54.3259 74.2969C54.2976 74.8684 54.2771 75.2954 54.2565 75.7225C53.1116 77.0012 51.8974 78.1767 50.1132 78.5024Z" fill="#DF92A4"/>
<path fill-rule="evenodd" clip-rule="evenodd" d="M40.15 14.0705C39.7497 14.2178 39.3605 14.4129 38.9478 14.5042C36.1277 15.1302 33.8628 16.5716 32.0776 18.8671C30.1116 21.394 28.5153 24.1108 27.3757 27.0987C27.2834 27.3421 27.239 27.6037 27.172 27.8567C27.0668 28.0657 26.9625 28.2746 26.8573 28.4836C26.4384 28.147 26.019 27.8108 25.5996 27.4741C25.6551 27.2857 25.7192 27.0992 25.7646 26.9084C25.8502 26.5473 25.7029 26.0753 26.371 26.0523C26.5293 26.0471 26.69 25.5124 26.8143 25.2068C27.8678 22.6149 29.3752 20.3194 31.168 18.1727C33.1943 15.7457 35.8078 14.3325 38.7526 13.4201C39.4695 13.1977 39.7545 13.3651 40.15 14.0705Z" fill="#8D2A47"/>
<path fill-rule="evenodd" clip-rule="evenodd" d="M31.5527 77.125C31.7956 78.9772 33.0375 79.9618 34.664 80.4697C35.9069 80.858 37.2129 81.0522 38.4998 81.2889C41.3113 81.8068 44.162 81.7953 46.9926 81.6547C49.508 81.5299 52.0541 81.352 54.4514 80.4625C55.3323 80.1354 56.1271 79.5783 56.964 79.1311C57.1333 79.0408 57.314 78.9724 57.4905 78.8935C57.4891 79.2258 57.4881 79.5582 57.4867 79.8901C55.9157 80.9948 54.1291 81.5356 52.2697 81.8867C48.6773 82.5648 45.0424 82.604 41.4141 82.4596C39.1569 82.3697 36.893 82.1019 34.7104 81.4467C33.3508 81.0383 32.1806 80.321 31.4164 79.0623C31.37 78.9867 31.2576 78.9513 31.1753 78.8973C30.6799 77.8811 30.6823 77.8715 31.5527 77.125Z" fill="#AF5BA2"/>
<path fill-rule="evenodd" clip-rule="evenodd" d="M69.4279 86.0537C69.0803 84.4828 68.7097 82.9171 68.3926 81.3409C68.0564 79.6675 67.7719 77.9837 67.4648 76.3047C68.4902 76.6935 68.5614 77.7193 68.9416 78.5351C68.9913 78.6422 68.9516 78.7914 69.0521 78.8924C69.7919 81.2811 70.5317 83.6693 71.2715 86.058C70.657 86.0566 70.0425 86.0547 69.4279 86.0537Z" fill="#8F373B"/>
<path fill-rule="evenodd" clip-rule="evenodd" d="M53.099 21.8772C50.8432 20.3306 48.5358 18.84 46.7118 16.7669C46.0887 16.0591 45.6153 15.2165 45.104 14.4155C44.9744 14.2132 44.9625 13.9363 44.8965 13.6934C44.9577 13.6551 45.0189 13.6164 45.0806 13.5781C45.5392 14.0984 46.0423 14.5867 46.4478 15.1453C47.4535 16.5312 48.8356 17.489 50.1603 18.5134C51.5648 19.5994 53.0004 20.6439 54.3887 21.7495C54.7923 22.0704 55.0927 22.5281 55.4059 22.9489C55.4762 23.0431 55.4604 23.3076 55.3806 23.3793C55.2969 23.4549 55.0501 23.4525 54.9444 23.3807C54.646 23.1789 54.3839 22.9236 54.108 22.6897C53.8507 22.2349 53.593 21.7806 53.3357 21.3263C53.2673 21.3545 53.1989 21.3827 53.1305 21.4109C53.12 21.5664 53.1095 21.7218 53.099 21.8772Z" fill="#B16034"/>
<path fill-rule="evenodd" clip-rule="evenodd" d="M24.0658 53.8638C23.9749 53.5902 23.8611 53.322 23.7956 53.0422C23.215 50.577 22.6206 48.1146 22.0778 45.6412C21.8463 44.5867 22.2074 43.7288 22.8889 43.3965C23.5856 43.0564 23.7626 43.1583 23.786 43.9153C23.8606 46.3619 23.9228 48.809 24.017 51.2551C24.05 52.1092 24.1633 52.9604 24.2398 53.8131C24.1815 53.8298 24.1236 53.8471 24.0658 53.8638Z" fill="#FBC1B0"/>
<path fill-rule="evenodd" clip-rule="evenodd" d="M54.0941 44.6429C52.7828 45.0661 51.5394 44.7261 50.3161 44.278C50.0766 44.19 49.8767 43.9672 50.1091 43.6606C51.0034 43.3211 51.9115 43.0121 52.7866 42.6291C53.263 42.4206 53.6847 42.51 54.1085 42.6788C54.7756 42.9452 54.899 43.5583 54.4375 44.1178C54.305 44.2785 54.2074 44.4674 54.0941 44.6429Z" fill="#FDFCFD"/>
<path fill-rule="evenodd" clip-rule="evenodd" d="M73.0541 86.0712C73.0465 85.6188 73.058 85.1645 73.0288 84.7131C72.9174 82.9766 72.7892 81.2407 72.6768 79.5038C72.6543 79.1585 72.6735 78.8104 72.7485 78.4531C73.7308 80.9031 74.1239 83.4769 74.4156 86.0731C73.9618 86.0726 73.508 86.0722 73.0541 86.0712Z" fill="#924825"/>
<path fill-rule="evenodd" clip-rule="evenodd" d="M30.4183 76.3162C29.5364 73.127 28.4121 70.0219 27.1816 66.9531C27.3567 67.098 27.5939 67.208 27.6962 67.3931C28.3456 68.5686 28.9649 69.7608 29.5943 70.9477C30.3145 72.302 30.7157 73.7716 31.1351 75.234C31.2159 75.5157 31.3307 75.8036 31.1872 76.1025C30.9309 76.1737 30.6746 76.245 30.4183 76.3162Z" fill="#92383C"/>
<path fill-rule="evenodd" clip-rule="evenodd" d="M31.1867 76.1001C30.6559 74.3818 30.1246 72.6636 29.5938 70.9453C30.3756 71.8066 31.1575 72.6679 31.939 73.5292C32.398 74.191 32.849 74.8548 32.4296 75.7141C32.0159 75.8428 31.6009 75.9714 31.1867 76.1001Z" fill="#D3723C"/>
<path fill-rule="evenodd" clip-rule="evenodd" d="M26.5841 65.5702C26.1303 64.378 25.6152 63.2049 25.2398 61.9888C24.8439 60.7043 24.566 59.3825 24.2695 58.0697C24.1758 57.6551 24.1882 57.2166 24.1523 56.7891C24.3613 56.9813 24.7037 57.142 24.7592 57.3711C25.3948 60.0319 25.9873 62.7037 26.5889 65.3732C26.6028 65.4353 26.586 65.5042 26.5841 65.5702Z" fill="#8D2A47"/>
<path fill-rule="evenodd" clip-rule="evenodd" d="M84.7969 69.097C84.7414 69.7918 84.9289 70.5345 84.3966 71.1356C84.0007 69.998 83.5411 68.8775 83.2307 67.7168C83.0237 66.9416 83.0304 66.11 82.9414 65.3032C83.005 65.2879 83.0691 65.2731 83.1322 65.2578C83.687 66.5375 84.2422 67.8173 84.7969 69.097Z" fill="#924728"/>
<path fill-rule="evenodd" clip-rule="evenodd" d="M79.793 86.0557C79.934 85.2475 80.0957 84.4417 80.2109 83.6297C80.3903 82.3676 80.539 81.1008 80.8503 79.8359C80.9072 81.9109 80.9641 83.986 81.021 86.061C80.6122 86.0595 80.2023 86.0576 79.793 86.0557Z" fill="#934926"/>
<path fill-rule="evenodd" clip-rule="evenodd" d="M50.1094 78.5055C50.5976 78.2583 51.1294 78.0694 51.5665 77.7509C52.3221 77.2004 53.0141 76.5635 53.7443 75.9772C53.8883 75.8614 54.082 75.8083 54.2527 75.7266C54.2541 75.8533 54.2556 75.98 54.2565 76.1067C54.0748 76.618 54.3522 77.1775 54.0896 77.6801C52.763 77.9551 51.4364 78.2305 50.1094 78.5055Z" fill="#FABFAF"/>
<path fill-rule="evenodd" clip-rule="evenodd" d="M42.0743 16.9343C41.5627 15.9903 41.0505 15.0463 40.5388 14.1027C40.457 13.6963 40.3747 13.2898 40.293 12.8838C40.3676 12.8522 40.4427 12.8206 40.5182 12.7891C41.3833 13.943 41.9548 15.2854 42.7415 16.4896C42.5186 16.6373 42.2967 16.7856 42.0743 16.9343Z" fill="#8D2A47"/>
<path fill-rule="evenodd" clip-rule="evenodd" d="M59.0971 43.4118C58.8259 43.6213 58.5844 43.9125 58.2774 44.0244C57.6151 44.2659 56.9197 44.4151 56.2383 44.6026C56.7538 43.9747 56.87 43.2631 56.5773 42.3984C57.5716 42.5792 58.3673 42.9092 59.0971 43.4118Z" fill="#FBF7FA"/>
<path fill-rule="evenodd" clip-rule="evenodd" d="M62.2799 37.6295C61.9629 37.6075 61.6444 37.564 61.3288 37.5779C61.2384 37.5817 61.1542 37.75 61.0667 37.8428C60.8778 37.0542 60.6889 36.2656 60.5 35.4766C61.093 36.1939 61.686 36.9117 62.2799 37.6295Z" fill="#CE6B43"/>
<path fill-rule="evenodd" clip-rule="evenodd" d="M32.4321 75.7084C32.2685 74.9801 32.1045 74.2518 31.9414 73.5234C32.7874 73.9572 33.4081 74.5354 33.2541 75.6611C33.0002 75.6754 32.7161 75.6917 32.4321 75.7084Z" fill="#8D2A47"/>
<path fill-rule="evenodd" clip-rule="evenodd" d="M23.2402 42.5965C23.4244 41.9289 23.608 41.2613 23.7916 40.5938C23.7959 41.1121 23.7916 41.631 23.8069 42.1494C23.8203 42.5693 23.5721 42.6291 23.2402 42.5965Z" fill="#8D2A47"/>
<path fill-rule="evenodd" clip-rule="evenodd" d="M78.4247 86.069C78.4247 85.4559 78.4247 84.8424 78.4247 84.2288C78.4763 84.2254 78.528 84.2221 78.5796 84.2188C78.6528 84.8371 78.7265 85.4559 78.7996 86.0738C78.6748 86.0723 78.5495 86.0704 78.4247 86.069Z" fill="#974C26"/>
<path fill-rule="evenodd" clip-rule="evenodd" d="M60.687 84.2578C61.3169 84.5538 60.7784 84.8106 60.6588 85.0818C59.9477 84.7824 60.5818 84.529 60.687 84.2578Z" fill="#8D2A47"/>
<path fill-rule="evenodd" clip-rule="evenodd" d="M66.0664 85.8886C66.6723 85.9455 67.2777 86.0019 67.8837 86.0584C67.2777 86.0019 66.6718 85.9455 66.0664 85.8886Z" fill="#A53185"/>
<path fill-rule="evenodd" clip-rule="evenodd" d="M60.4843 41.1442C60.227 41.2557 59.9697 41.3671 59.712 41.4785C59.6818 41.4187 59.6512 41.3594 59.6211 41.2997C59.8602 41.1662 60.0993 41.0323 60.3384 40.8984C60.3872 40.9807 60.4355 41.0625 60.4843 41.1442Z" fill="#DE90A4"/>
<path fill-rule="evenodd" clip-rule="evenodd" d="M54.0912 77.6749C54.1467 77.1503 54.2022 76.6262 54.2581 76.1016C54.2022 76.6257 54.1467 77.1503 54.0912 77.6749Z" fill="#DF92A4"/>
<path fill-rule="evenodd" clip-rule="evenodd" d="M61.4379 65.9531C61.4255 66.264 61.6565 66.6915 61.0683 66.7278C61.1912 66.4696 61.3146 66.2114 61.4379 65.9531Z" fill="#8D2A47"/>
<path fill-rule="evenodd" clip-rule="evenodd" d="M18.0095 31.4609C17.9516 31.7976 17.8938 32.1343 17.8359 32.4709C17.8938 32.1343 17.9516 31.7976 18.0095 31.4609Z" fill="#8D2A47"/>
<path fill-rule="evenodd" clip-rule="evenodd" d="M10.1296 109.223C9.89337 108.293 9.53519 107.397 9.10718 106.522L8.86137 106.508C8.79203 106.789 8.66817 107.07 8.66243 107.352C8.64904 107.976 8.69543 108.591 8.78581 109.2C9.23343 109.207 9.68152 109.215 10.1296 109.223Z" fill="#AF5BA2"/>
<path fill-rule="evenodd" clip-rule="evenodd" d="M68.6018 111.002C69.0504 109.902 69.476 108.793 69.9007 107.683C69.9399 107.581 69.9059 107.451 69.9059 107.333C69.8361 107.308 69.7672 107.283 69.6974 107.258C68.6511 108.356 67.9677 109.663 67.4766 111.074C67.852 111.05 68.2264 111.024 68.6018 111.002Z" fill="#AF5BA2"/>
<path fill-rule="evenodd" clip-rule="evenodd" d="M11.2159 101.754C11.9557 103.274 12.301 104.885 12.2316 106.583C12.2244 106.756 12.0853 106.924 12.0068 107.094C11.8529 106.993 11.6147 106.925 11.5587 106.785C11.3923 106.366 11.2479 105.925 11.1848 105.48C11.0437 104.478 10.9438 103.47 10.8562 102.462C10.8362 102.225 10.9323 101.977 10.9753 101.734C11.0561 101.741 11.136 101.747 11.2159 101.754Z" fill="#AF5BA2"/>
<path fill-rule="evenodd" clip-rule="evenodd" d="M55.3603 108.306C54.9351 107.497 55.5578 105.901 56.7471 104.75C57.014 105.888 56.3559 107.574 55.3603 108.306Z" fill="#AE5BA1"/>
<path fill-rule="evenodd" clip-rule="evenodd" d="M79.0701 105.969C78.9807 105.787 78.7956 105.581 78.8411 105.476C79.1242 104.828 79.4551 104.201 79.7855 103.576C79.8161 103.517 79.9654 103.477 80.0395 103.498C80.105 103.517 80.2011 103.656 80.1834 103.704C79.9209 104.394 79.6459 105.081 79.3594 105.762C79.3279 105.837 79.2074 105.874 79.0701 105.969Z" fill="#AE5BA1"/>
<path fill-rule="evenodd" clip-rule="evenodd" d="M37.3532 61.3737C36.5723 61.2164 35.8406 60.9787 35.3203 60.0739C36.1897 60.2762 36.909 60.4938 37.644 60.5971C38.1437 60.6669 38.6856 60.6569 39.1729 60.5378C39.8419 60.3752 40.5042 60.1279 41.1221 59.8214C41.9217 59.4245 42.6629 59.4723 43.3693 59.9534C43.9589 60.3546 44.4749 60.347 45.0952 59.9835C45.9369 59.4905 46.8244 59.4221 47.734 59.9309C48.2486 60.2188 48.8143 60.4488 49.3848 60.5933C49.9477 60.7358 50.546 60.7372 51.1877 60.8065C51.0921 61.2833 50.7416 61.466 50.3231 61.5798C48.7612 62.5659 46.9679 62.6353 45.2444 62.5913C43.1063 62.5372 40.9519 62.3761 38.8443 61.8998C38.3226 61.7821 37.8472 61.5578 37.3532 61.3737Z" fill="#89007E"/>
<path fill-rule="evenodd" clip-rule="evenodd" d="M37.3535 61.375C37.9054 61.4496 38.4577 61.5266 39.0101 61.5979C40.4744 61.7877 41.9344 62.0263 43.404 62.1464C44.5106 62.2368 45.632 62.1416 46.7439 62.1889C47.9878 62.242 49.1489 61.892 50.3234 61.5806C48.9566 62.6222 47.6281 63.7221 46.2016 64.6743C45.6966 65.0114 44.9515 64.9885 44.316 65.13C43.7077 64.9253 43.1032 64.9904 42.5001 65.1573C40.8857 64.6666 39.4778 63.8962 38.506 62.4352C38.2258 62.0134 37.7433 61.7251 37.3535 61.375Z" fill="#DF7181"/>
<path fill-rule="evenodd" clip-rule="evenodd" d="M51.4093 35.1641C53.9663 35.319 56.4019 35.7877 58.573 37.2137C58.904 37.4313 59.2679 37.6236 59.5343 37.9057C59.715 38.0965 59.9101 38.5236 59.8188 38.6675C59.6519 38.9301 59.2918 39.1811 58.9867 39.217C58.5802 39.2653 58.1512 39.0635 57.7275 39.0381C56.245 38.9497 54.7592 38.9205 53.2786 38.8105C52.3298 38.7402 51.3767 38.6226 50.4476 38.4241C49.6064 38.2448 49.3232 37.7833 49.2974 36.9316C49.2874 36.5949 49.197 36.2558 49.2266 35.9254C49.241 35.7618 49.4208 35.5127 49.5671 35.4783C50.1726 35.3372 50.7938 35.2631 51.4093 35.1641Z" fill="#89007E"/>
<path fill-rule="evenodd" clip-rule="evenodd" d="M34.6899 34.7344C35.2757 34.8573 36.1169 35.0036 36.9389 35.2222C37.279 35.3125 37.6022 35.5249 37.8882 35.7406C38.2598 36.0203 38.6515 36.3646 38.4726 36.8945C38.3095 37.377 37.8648 37.5898 37.376 37.6248C36.203 37.7099 35.027 37.8337 33.8539 37.8203C32.0219 37.7993 30.2323 37.9456 28.4902 38.5621C28.1631 38.6778 27.7628 38.585 27.3965 38.5884C27.5792 38.2976 27.7202 37.9667 27.9517 37.7218C29.2228 36.3756 30.6809 35.3121 32.5422 34.9505C33.1552 34.8315 33.7898 34.8214 34.6899 34.7344Z" fill="#89007C"/>
<path fill-rule="evenodd" clip-rule="evenodd" d="M29.1944 43.2455C28.8362 43.3607 28.478 43.476 28.1203 43.5917C28.0749 43.5228 28.0299 43.454 27.984 43.3851C28.3326 43.0303 28.6808 42.6759 29.027 42.323C28.0452 42.104 27.9864 42.0638 27.4785 41.2331C28.2303 41.323 28.9395 41.4086 29.6487 41.4937C29.6587 41.4416 29.6683 41.3895 29.6783 41.3369C29.368 41.1289 29.0571 40.9213 28.6334 40.6377C29.2958 40.2934 29.8385 40.4469 30.3655 40.5158C31.1857 40.6229 31.9896 40.7348 32.8088 40.445C34.2817 39.9233 35.6767 40.2728 36.9832 40.9978C37.5824 41.3307 38.129 41.7716 38.6527 42.2182C38.8095 42.3521 38.8081 42.6711 38.8793 42.9059C38.6364 42.8916 38.394 42.8768 38.1515 42.8624C37.2649 42.6797 36.7187 41.8347 35.8063 41.6716C35.7154 42.2981 36.0186 43.0819 35.176 43.4487C34.1206 44.1297 33.5103 44.1149 32.6065 43.3865C32.5161 43.1656 32.6935 43.0221 32.7653 42.85C32.9049 42.5143 32.7136 42.289 32.5156 42.0643C32.3 41.8189 32.0532 41.8835 31.8002 41.9925C31.257 42.2254 30.7539 42.5281 30.2599 42.85C29.9371 43.0594 29.6377 43.3535 29.1944 43.2455Z" fill="#89007E"/>
<path fill-rule="evenodd" clip-rule="evenodd" d="M43.8205 56.627C43.3509 56.4424 42.7344 56.2196 42.1348 55.9604C41.4738 55.6749 40.8282 55.3545 40.1745 55.0517C39.9646 54.9542 39.7087 54.9097 39.5509 54.7596C39.3883 54.6051 39.3195 54.3521 39.209 54.1422C39.4227 54.1178 39.6571 54.0236 39.846 54.0805C40.7565 54.3545 41.6957 54.5181 42.4915 55.1421C43.2385 55.728 44.1409 55.7743 45.0376 55.4286C45.5617 55.2263 46.0743 54.9944 46.6018 54.8007C46.8782 54.6993 47.1709 54.6228 47.4626 54.5931C47.5937 54.5797 47.8127 54.6783 47.8572 54.7825C47.8969 54.8772 47.7912 55.1134 47.6845 55.1775C46.543 55.8604 45.3393 56.3889 43.8205 56.627Z" fill="#8B007E"/>
<path fill-rule="evenodd" clip-rule="evenodd" d="M29.1934 43.2479C30.0666 42.7285 30.936 42.2006 31.8178 41.6956C32.0106 41.5856 32.3305 41.4345 32.451 41.5148C32.725 41.6975 32.956 41.9859 33.1234 42.2776C33.3835 42.7304 33.0928 43.0136 32.7226 43.2393C32.672 43.2704 32.6433 43.3383 32.604 43.389C32.55 43.5047 32.5036 43.7165 32.4405 43.7213C31.4042 43.8069 30.3497 44.0566 29.3674 43.4808C29.2904 43.4358 29.2503 43.3273 29.1934 43.2479Z" fill="#FDFAFC"/>
<path fill-rule="evenodd" clip-rule="evenodd" d="M35.1758 43.4447C35.6703 42.7924 35.6822 42.0665 35.4374 41.2578C36.5392 41.5644 37.3995 42.1191 38.1518 42.8579C37.9174 43.0899 37.696 43.5007 37.4449 43.5198C36.6951 43.5772 35.9333 43.4811 35.1758 43.4447Z" fill="#FDFAFC"/>
<path fill-rule="evenodd" clip-rule="evenodd" d="M48.0078 44.4516C47.4789 42.8539 47.9332 41.3886 48.5645 39.9453C48.8046 41.4986 48.565 42.9959 48.0078 44.4516Z" fill="#8E047F"/>
<path fill-rule="evenodd" clip-rule="evenodd" d="M42.498 65.16C43.1173 64.5804 43.6582 64.5723 44.3139 65.1328C43.7127 65.4293 43.1083 65.4737 42.498 65.16Z" fill="#90067F"/>
<path fill-rule="evenodd" clip-rule="evenodd" d="M58.4731 25.8147C58.1885 25.3858 57.8576 24.9802 57.6271 24.5235C56.7247 22.7316 55.4015 21.2582 54.0801 19.7872C52.9745 18.5567 51.8086 17.3813 50.6843 16.1675C50.4523 15.917 50.2864 15.6051 50.2285 15.1953C50.4117 15.3531 50.6054 15.4999 50.7766 15.6702C52.4216 17.31 54.0945 18.9245 55.696 20.6064C56.8591 21.8278 57.8079 23.2208 58.5199 24.7607C58.5883 24.9085 58.651 25.0654 58.6782 25.2246C58.7055 25.3829 58.684 25.5493 58.684 25.7124C58.6142 25.7459 58.5434 25.7803 58.4731 25.8147Z" fill="#B16034"/>
<path fill-rule="evenodd" clip-rule="evenodd" d="M72.4566 51.1719C72.9386 52.5042 73.4207 53.837 73.9018 55.1693C73.8315 55.1961 73.7602 55.2224 73.6894 55.2492C73.2017 54.0336 72.7143 52.8174 72.2266 51.6018C72.3036 51.4583 72.3801 51.3149 72.4566 51.1719Z" fill="#AB5E26"/>
<path fill-rule="evenodd" clip-rule="evenodd" d="M64.0743 71.3229C64.0078 70.8213 63.95 70.3182 63.873 69.8184C63.8266 69.5152 63.7515 69.2168 63.6889 68.916C63.5502 66.1452 63.3211 63.3748 63.3015 60.6026C63.2857 58.3961 63.532 56.1881 63.6497 53.9802C63.7424 52.2356 63.8156 50.4901 64.0141 48.7422C64.0977 49.6197 64.2159 50.4958 64.2584 51.3753C64.3526 53.3575 64.4378 55.3402 64.4765 57.3239C64.5592 61.5624 64.6047 65.8018 64.6788 70.0408C64.6922 70.7964 64.774 71.5505 64.8242 72.3057C64.2226 72.2459 64.3608 71.6223 64.0743 71.3229Z" fill="#914726"/>
<path fill-rule="evenodd" clip-rule="evenodd" d="M69.0527 78.8957C68.5238 78.0329 67.9944 77.1707 67.4655 76.308C67.3943 76.1067 67.3225 75.9053 67.2508 75.704C67.0849 74.232 66.9194 72.7605 66.7539 71.2886C66.7247 71.0265 66.6812 70.764 66.6764 70.5014C66.5995 66.0602 66.5272 61.6189 66.4536 57.1781C66.3398 56.9577 66.2948 56.7712 66.6492 56.7817C66.8534 58.4751 67.1025 60.1641 67.2522 61.8623C67.4942 64.6135 67.5994 67.3781 67.894 70.1231C68.1943 72.9241 68.6549 75.7078 69.0417 78.5002C69.0599 78.6293 69.0499 78.7632 69.0527 78.8957Z" fill="#924825"/>
<path fill-rule="evenodd" clip-rule="evenodd" d="M64.0742 71.3203C64.3239 71.6479 64.574 71.9755 64.8236 72.3031C64.8447 72.4379 64.8657 72.5728 64.8863 72.7076C65.0359 74.3427 65.1474 75.983 65.3477 77.6118C65.5357 79.1397 65.8221 80.6552 66.0541 82.1779C66.0813 82.3567 66.0369 82.5466 66.0254 82.7317C65.9556 82.7398 65.8857 82.7484 65.8159 82.7565C65.4319 80.5051 65.0422 78.255 64.6672 76.0021C64.463 74.7745 64.2756 73.544 64.1001 72.3117C64.0542 71.987 64.0805 71.6512 64.0742 71.3203Z" fill="#92383A"/>
<path fill-rule="evenodd" clip-rule="evenodd" d="M66.6475 56.7861C66.582 56.9181 66.5174 57.0505 66.4519 57.1825C66.3611 56.316 66.2697 55.449 66.1784 54.5824C66.2568 54.5733 66.3352 54.5638 66.4132 54.5547C66.4911 55.2988 66.5696 56.0424 66.6475 56.7861Z" fill="#B16326"/>
<path fill-rule="evenodd" clip-rule="evenodd" d="M17.4417 60.7377C17.5019 60.4091 17.5627 60.0806 17.6234 59.752C17.6841 59.4206 17.7453 59.0892 17.8061 58.7578C17.8061 60.4966 17.8061 62.2354 17.8061 63.9743C17.7669 63.9762 17.7277 63.9786 17.6884 63.9805C17.6062 62.8997 17.5239 61.8189 17.4417 60.7377Z" fill="#B86A26"/>
<path fill-rule="evenodd" clip-rule="evenodd" d="M17.8223 48.3771C17.6845 48.6296 17.5463 48.8825 17.4086 49.135C17.3531 49.1073 17.2977 49.0791 17.2422 49.0513C17.3656 48.7893 17.4894 48.5272 17.6128 48.2656C17.6826 48.3029 17.7525 48.3402 17.8223 48.3771Z" fill="#C47326"/>
<path fill-rule="evenodd" clip-rule="evenodd" d="M20.8066 64.1521C20.8253 63.2172 20.974 62.3214 21.5799 61.5625C21.9922 63.7236 22.4245 65.8809 22.8109 68.0462C23.1681 70.049 23.5072 72.0561 23.7936 74.0699C23.9328 75.0455 23.9505 76.0402 23.9859 77.0277C23.9959 77.3132 23.929 77.6289 23.8013 77.8828C23.6961 78.0927 23.4503 78.2314 23.2661 78.4022C23.1155 78.1984 22.8903 78.0148 22.8286 77.7872C22.709 77.3462 22.6315 76.8814 22.6239 76.4252C22.5598 72.6142 21.6574 68.9372 20.8827 65.2381C20.8095 64.8861 20.8301 64.5146 20.8066 64.1521Z" fill="#8F353B"/>
<path fill-rule="evenodd" clip-rule="evenodd" d="M21.3989 56.9844C21.5319 57.586 21.6653 58.1876 21.7982 58.7892C21.8064 59.0422 21.8135 59.2947 21.8217 59.5476C21.8169 59.869 21.8523 60.1985 21.7915 60.5089C21.759 60.6739 21.5577 60.8059 21.4329 60.9527C21.3544 59.8968 21.276 58.8404 21.1976 57.7844C21.1469 57.4884 20.88 57.1374 21.3989 56.9844Z" fill="#E99328"/>
<path fill-rule="evenodd" clip-rule="evenodd" d="M21.3994 56.9812C21.332 57.2481 21.265 57.5144 21.1976 57.7813C21.1077 56.7842 21.0168 55.7871 20.9265 54.79C20.9991 54.7819 21.0723 54.7738 21.145 54.7656C21.2301 55.5045 21.3148 56.2429 21.3994 56.9812Z" fill="#CA7A26"/>
<path fill-rule="evenodd" clip-rule="evenodd" d="M56.9721 37.7301C55.1989 37.6975 53.4911 37.6827 51.7843 37.6268C51.1392 37.6057 50.5467 37.38 50.2134 36.7707C50.1302 36.6191 50.1072 36.3451 50.1923 36.2179C50.2674 36.1051 50.5391 36.0611 50.7103 36.084C52.0048 36.2552 53.2955 36.4508 54.5877 36.6378C55.4853 36.7684 56.2672 37.1433 56.9721 37.7301Z" fill="#904626"/>
<path fill-rule="evenodd" clip-rule="evenodd" d="M31.1406 36.553C33.0186 35.6745 34.9057 35.5263 36.8085 36.488C34.9262 36.8022 33.0296 36.5688 31.1406 36.553Z" fill="#904529"/>
<path fill-rule="evenodd" clip-rule="evenodd" d="M30.6683 48.216C28.754 48.5977 24.8895 52.3297 26.7019 56.6385C28.5134 60.9487 34.9785 59.5777 36.5461 57.6691C38.1133 55.7586 39.0429 46.5504 30.6683 48.216Z" fill="url(#paint0_radial_4548_324732)"/>
<path fill-rule="evenodd" clip-rule="evenodd" d="M53.3831 48.4504C51.4688 48.832 47.6043 52.5641 49.4168 56.8729C51.2283 61.1831 57.6934 59.812 59.261 57.9035C60.8281 55.993 61.7578 46.7848 53.3831 48.4504Z" fill="url(#paint1_radial_4548_324732)"/>
<defs>
<radialGradient id="paint0_radial_4548_324732" cx="0" cy="0" r="1" gradientUnits="userSpaceOnUse" gradientTransform="translate(31.9085 53.7518) scale(5.70697 5.76523)">
<stop stop-color="#FD93A0"/>
<stop offset="0.2469" stop-color="#FCA2A5"/>
<stop offset="0.7078" stop-color="#FBB9AD"/>
<stop offset="1" stop-color="#FBC1B0"/>
</radialGradient>
<radialGradient id="paint1_radial_4548_324732" cx="0" cy="0" r="1" gradientUnits="userSpaceOnUse" gradientTransform="translate(54.6234 53.9861) scale(5.70697 5.76523)">
<stop stop-color="#FD93A0"/>
<stop offset="0.2469" stop-color="#FCA2A5"/>
<stop offset="0.7078" stop-color="#FBB9AD"/>
<stop offset="1" stop-color="#FBC1B0"/>
</radialGradient>
</defs>
</svg>
