<svg width="130" height="130" viewBox="0 0 130 130" fill="none" xmlns="http://www.w3.org/2000/svg">
<rect width="130" height="130" rx="20" fill="#E3E7EE"/>
<path d="M65.0002 42.9705C69.1891 42.9705 72.5836 46.3649 72.5836 50.5538C72.5836 54.7427 69.1891 58.1372 65.0002 58.1372C60.8113 58.1372 57.4169 54.7427 57.4169 50.5538C57.4169 46.3649 60.8113 42.9705 65.0002 42.9705ZM65.0002 75.4705C75.7252 75.4705 87.028 80.7427 87.028 83.0538V87.026H42.9724V83.0538C42.9724 80.7427 54.2752 75.4705 65.0002 75.4705ZM65.0002 36.1094C57.0197 36.1094 50.5558 42.5733 50.5558 50.5538C50.5558 58.5344 57.0197 64.9983 65.0002 64.9983C72.9808 64.9983 79.4447 58.5344 79.4447 50.5538C79.4447 42.5733 72.9808 36.1094 65.0002 36.1094ZM65.0002 68.6094C55.3586 68.6094 36.1113 73.4483 36.1113 83.0538V90.276C36.1113 92.2622 37.7363 93.8872 39.7224 93.8872H90.278C92.2641 93.8872 93.8891 92.2622 93.8891 90.276V83.0538C93.8891 73.4483 74.6419 68.6094 65.0002 68.6094Z" fill="#B0B0B0"/>
</svg>
