<svg width="42" height="50" viewBox="0 0 42 50" fill="none" xmlns="http://www.w3.org/2000/svg">
<g clip-path="url(#clip0_4335_298880)">
<path d="M13.7075 50.0037C14.3577 49.9449 15.067 49.8272 15.7763 49.6507C16.131 49.5331 16.663 49.2978 17.5496 48.9449C18.318 48.6507 18.9091 48.4154 19.4411 48.2978C20.2096 48.1213 21.0371 48.0037 21.8646 48.0037C22.6922 48.0037 23.5197 48.1213 24.2882 48.2978C24.761 48.4154 25.4113 48.6507 26.1797 49.0037C26.9481 49.3566 27.5392 49.5331 27.953 49.6507C28.6623 49.8272 29.3716 49.9449 30.1401 49.9449C31.204 49.9449 32.2089 49.6507 33.2138 49.0625C34.0413 48.5331 34.8098 47.7684 35.6964 46.7684C36.2284 46.1213 36.9377 45.1801 37.8835 43.8272C38.8884 42.3566 39.7159 40.7684 40.4843 39.0037C40.7799 38.3566 41.0754 37.5919 41.3119 36.7096C40.7799 36.5331 40.1888 36.1801 39.5386 35.7684C38.2381 34.886 37.1151 33.8272 36.3466 32.5919C35.2235 30.886 34.6324 28.886 34.5733 26.6507C34.5733 24.8272 34.9871 23.0037 35.9328 21.4154C36.5831 20.2978 37.4697 19.239 38.5337 18.2978C39.0066 17.886 39.5386 17.4743 40.0706 17.1801C38.7701 15.2978 37.0559 13.9449 34.928 13.1213C33.6867 12.6507 32.3271 12.3566 30.8494 12.239C30.081 12.1801 29.2534 12.1801 28.4259 12.3566C27.7757 12.4743 27.0072 12.6507 26.2388 12.886C25.7068 13.0625 25.1157 13.2978 24.2882 13.6507C23.4606 14.0037 22.9286 14.1801 22.574 14.2978C22.042 14.4743 21.5691 14.5919 21.2144 14.5919C20.8007 14.5919 20.2096 14.4743 19.5002 14.239C19.3229 14.1801 18.6727 13.886 17.4905 13.4743C16.6039 13.1213 15.8945 12.886 15.2443 12.7096C14.4168 12.5331 13.6483 12.4154 12.8799 12.4154C10.752 12.4743 8.80132 13.0037 6.9098 14.1801C5.07738 15.2978 3.59963 16.8272 2.53565 18.7096C1.17612 20.886 0.466797 23.7684 0.466797 27.0037C0.466797 29.9449 0.998788 32.9449 2.00366 36.0625C2.94942 38.9449 4.19073 41.4743 5.72759 43.6507C6.61425 44.9449 7.32357 45.9449 7.97378 46.7096C8.86043 47.7684 9.74708 48.5331 10.5746 49.1213C11.5795 49.7096 12.5844 50.0037 13.7075 50.0037ZM28.2485 8.00368C29.1352 6.88603 29.8445 5.70956 30.3174 4.35662C30.8494 2.88603 30.9676 1.47426 30.8494 0.0625C29.6081 0.121324 28.2485 0.474265 26.889 1.18015C25.5295 1.88603 24.4064 2.76838 23.4606 3.82721C22.574 4.88603 21.8646 6.0625 21.3918 7.35662C20.8007 8.88603 20.6233 10.239 20.8007 11.5919C22.1602 11.7096 23.5197 11.4154 24.9384 10.7096C26.2388 9.94485 27.3028 9.12132 28.2485 8.00368Z" fill="#12131A"/>
</g>
<defs>
<clipPath id="clip0_4335_298880">
<rect width="40.8451" height="50" fill="white" transform="translate(0.466797)"/>
</clipPath>
</defs>
</svg>
