<svg width="100" height="35" viewBox="0 0 100 35" fill="none" xmlns="http://www.w3.org/2000/svg">
<rect width="100" height="35" rx="17.5" fill="black"/>
<path d="M17.351 24.0013C14.9698 23.9876 13 19.1266 13 16.651C13 12.6071 16.0336 11.7218 17.2027 11.7218C17.7296 11.7218 18.2922 11.9287 18.7884 12.1118C19.1354 12.2395 19.4943 12.3714 19.6939 12.3714C19.8133 12.3714 20.0949 12.2592 20.3434 12.1608C20.8735 11.9498 21.5332 11.6875 22.3013 11.6875C22.3027 11.6875 22.3045 11.6875 22.3058 11.6875C22.8794 11.6875 24.6185 11.8134 25.664 13.3835L25.9089 13.7515L25.5564 14.0175C25.0529 14.3974 24.1342 15.0905 24.1342 16.4633C24.1342 18.0893 25.1747 18.7146 25.6745 19.0154C25.8952 19.1481 26.1236 19.285 26.1236 19.5844C26.1236 19.7798 24.5635 23.9771 22.2981 23.9771C21.7437 23.9771 21.3519 23.8104 21.0063 23.6635C20.6565 23.5147 20.3548 23.3866 19.8563 23.3866C19.6037 23.3866 19.2841 23.506 18.9458 23.6328C18.4836 23.8054 17.9603 24.0013 17.3666 24.0013H17.351Z" fill="white"/>
<path d="M22.5411 8C22.6001 10.1274 21.0787 11.6033 19.559 11.5107C19.3086 9.81297 21.0785 8 22.5411 8Z" fill="white"/>
<path d="M34.5925 12.9972H35.6425L34.2145 8.79719H32.9905L31.5625 12.9972H32.6125L32.8225 12.3372H34.3825L34.5925 12.9972ZM33.1105 11.4372L33.6025 9.89519L34.0945 11.4372H33.1105Z" fill="white"/>
<path d="M37.7674 9.99719L37.1434 11.8992L36.5194 9.99719H35.5234L36.6334 12.9972H37.6534L38.7634 9.99719H37.7674Z" fill="white"/>
<path d="M41.1545 9.99719V10.2792C40.9565 10.0512 40.6625 9.91319 40.2605 9.91319C39.4745 9.91319 38.8265 10.6032 38.8265 11.4972C38.8265 12.3912 39.4745 13.0812 40.2605 13.0812C40.6625 13.0812 40.9565 12.9432 41.1545 12.7152V12.9972H42.0545V9.99719H41.1545ZM40.4405 12.2292C40.0265 12.2292 39.7265 11.9472 39.7265 11.4972C39.7265 11.0472 40.0265 10.7652 40.4405 10.7652C40.8545 10.7652 41.1545 11.0472 41.1545 11.4972C41.1545 11.9472 40.8545 12.2292 40.4405 12.2292Z" fill="white"/>
<path d="M42.7148 12.9972H43.6148V8.61719H42.7148V12.9972Z" fill="white"/>
<path d="M44.7234 9.73319C45.0174 9.73319 45.2634 9.48719 45.2634 9.19319C45.2634 8.89919 45.0174 8.65319 44.7234 8.65319C44.4294 8.65319 44.1834 8.89919 44.1834 9.19319C44.1834 9.48719 44.4294 9.73319 44.7234 9.73319ZM44.2734 12.9972H45.1734V9.99719H44.2734V12.9972Z" fill="white"/>
<path d="M47.626 9.91319C47.224 9.91319 46.93 10.0512 46.732 10.2792V8.79719H45.832V12.9972H46.732V12.7152C46.93 12.9432 47.224 13.0812 47.626 13.0812C48.412 13.0812 49.06 12.3912 49.06 11.4972C49.06 10.6032 48.412 9.91319 47.626 9.91319ZM47.446 12.2292C47.032 12.2292 46.732 11.9472 46.732 11.4972C46.732 11.0472 47.032 10.7652 47.446 10.7652C47.86 10.7652 48.16 11.0472 48.16 11.4972C48.16 11.9472 47.86 12.2292 47.446 12.2292Z" fill="white"/>
<path d="M49.5702 12.9972H50.4702V8.61719H49.5702V12.9972Z" fill="white"/>
<path d="M51.9328 11.8572H54.0628C54.0868 11.7432 54.0988 11.6232 54.0988 11.4972C54.0988 10.5912 53.4508 9.91319 52.5748 9.91319C51.6268 9.91319 50.9788 10.6032 50.9788 11.4972C50.9788 12.3912 51.6148 13.0812 52.6408 13.0812C53.2108 13.0812 53.6548 12.8712 53.9488 12.4632L53.2288 12.0492C53.1088 12.1812 52.8988 12.2772 52.6528 12.2772C52.3228 12.2772 52.0468 12.1692 51.9328 11.8572ZM51.9148 11.1852C51.9988 10.8792 52.2268 10.7112 52.5688 10.7112C52.8388 10.7112 53.1088 10.8372 53.2048 11.1852H51.9148Z" fill="white"/>
<path d="M57.5493 13.0812C58.4313 13.0812 59.1393 12.3912 59.1393 11.4972C59.1393 10.6032 58.4313 9.91319 57.5493 9.91319C56.6673 9.91319 55.9593 10.6032 55.9593 11.4972C55.9593 12.3912 56.6673 13.0812 57.5493 13.0812ZM57.5493 12.2052C57.1593 12.2052 56.8593 11.9232 56.8593 11.4972C56.8593 11.0712 57.1593 10.7892 57.5493 10.7892C57.9393 10.7892 58.2393 11.0712 58.2393 11.4972C58.2393 11.9232 57.9393 12.2052 57.5493 12.2052Z" fill="white"/>
<path d="M61.4064 9.91319C61.0104 9.91319 60.7104 10.0572 60.5484 10.2792V9.99719H59.6484V12.9972H60.5484V11.3592C60.5484 10.9332 60.7764 10.7412 61.1064 10.7412C61.3944 10.7412 61.6284 10.9152 61.6284 11.2872V12.9972H62.5284V11.1552C62.5284 10.3452 62.0124 9.91319 61.4064 9.91319Z" fill="white"/>
<path d="M66.4044 10.8612V9.99719H65.7864V9.15719L64.8864 9.42719V9.99719H64.4064V10.8612H64.8864V11.9232C64.8864 12.7632 65.2284 13.1172 66.4044 12.9972V12.1812C66.0084 12.2052 65.7864 12.1812 65.7864 11.9232V10.8612H66.4044Z" fill="white"/>
<path d="M68.672 9.91319C68.276 9.91319 67.976 10.0572 67.814 10.2792V8.79719H66.914V12.9972H67.814V11.3592C67.814 10.9332 68.042 10.7412 68.372 10.7412C68.66 10.7412 68.894 10.9152 68.894 11.2872V12.9972H69.794V11.1552C69.794 10.3452 69.278 9.91319 68.672 9.91319Z" fill="white"/>
<path d="M71.216 11.8572H73.346C73.37 11.7432 73.382 11.6232 73.382 11.4972C73.382 10.5912 72.734 9.91319 71.858 9.91319C70.91 9.91319 70.262 10.6032 70.262 11.4972C70.262 12.3912 70.898 13.0812 71.924 13.0812C72.494 13.0812 72.938 12.8712 73.232 12.4632L72.512 12.0492C72.392 12.1812 72.182 12.2772 71.936 12.2772C71.606 12.2772 71.33 12.1692 71.216 11.8572ZM71.198 11.1852C71.282 10.8792 71.51 10.7112 71.852 10.7112C72.122 10.7112 72.392 10.8372 72.488 11.1852H71.198Z" fill="white"/>
<path d="M36.6125 23.9972H38.3625L35.9825 16.9972H33.9425L31.5625 23.9972H33.3125L33.6625 22.8972H36.2625L36.6125 23.9972ZM34.1425 21.3972L34.9625 18.8272L35.7825 21.3972H34.1425Z" fill="white"/>
<path d="M41.8994 18.8572C41.2294 18.8572 40.7394 19.0872 40.4094 19.4672V18.9972H38.9094V25.9972H40.4094V23.5272C40.7394 23.9072 41.2294 24.1372 41.8994 24.1372C43.2094 24.1372 44.2894 22.9872 44.2894 21.4972C44.2894 20.0072 43.2094 18.8572 41.8994 18.8572ZM41.5994 22.7172C40.9094 22.7172 40.4094 22.2472 40.4094 21.4972C40.4094 20.7472 40.9094 20.2772 41.5994 20.2772C42.2894 20.2772 42.7894 20.7472 42.7894 21.4972C42.7894 22.2472 42.2894 22.7172 41.5994 22.7172Z" fill="white"/>
<path d="M48.1298 18.8572C47.4598 18.8572 46.9698 19.0872 46.6398 19.4672V18.9972H45.1398V25.9972H46.6398V23.5272C46.9698 23.9072 47.4598 24.1372 48.1298 24.1372C49.4398 24.1372 50.5198 22.9872 50.5198 21.4972C50.5198 20.0072 49.4398 18.8572 48.1298 18.8572ZM47.8298 22.7172C47.1398 22.7172 46.6398 22.2472 46.6398 21.4972C46.6398 20.7472 47.1398 20.2772 47.8298 20.2772C48.5198 20.2772 49.0198 20.7472 49.0198 21.4972C49.0198 22.2472 48.5198 22.7172 47.8298 22.7172Z" fill="white"/>
<path d="M51.3703 23.9972H52.8703V16.6972H51.3703V23.9972Z" fill="white"/>
<path d="M55.308 22.0972H58.858C58.898 21.9072 58.918 21.7072 58.918 21.4972C58.918 19.9872 57.838 18.8572 56.378 18.8572C54.798 18.8572 53.718 20.0072 53.718 21.4972C53.718 22.9872 54.778 24.1372 56.488 24.1372C57.438 24.1372 58.178 23.7872 58.668 23.1072L57.468 22.4172C57.268 22.6372 56.918 22.7972 56.508 22.7972C55.958 22.7972 55.498 22.6172 55.308 22.0972ZM55.278 20.9772C55.418 20.4672 55.798 20.1872 56.368 20.1872C56.818 20.1872 57.268 20.3972 57.428 20.9772H55.278Z" fill="white"/>
<path d="M64.7687 24.1372C66.2887 24.1372 67.3688 23.3372 67.3688 21.9872C67.3688 20.5072 66.1788 20.1372 65.1188 19.8172C64.0288 19.4872 63.8587 19.2672 63.8587 18.9472C63.8587 18.6672 64.1087 18.4172 64.6087 18.4172C65.2487 18.4172 65.5787 18.7272 65.8187 19.2272L67.1688 18.4372C66.6588 17.4072 65.7588 16.8572 64.6087 16.8572C63.3988 16.8572 62.2588 17.6372 62.2588 18.9872C62.2588 20.3272 63.2787 20.8272 64.3187 21.1172C65.3687 21.4072 65.7687 21.5772 65.7687 22.0072C65.7687 22.2772 65.5787 22.5772 64.8187 22.5772C64.0287 22.5772 63.5988 22.1872 63.3487 21.6072L61.9688 22.4072C62.3587 23.4372 63.2987 24.1372 64.7687 24.1372Z" fill="white"/>
<path d="M70.9019 20.4372V18.9972H69.8719V17.5972L68.3719 18.0472V18.9972H67.5719V20.4372H68.3719V22.2072C68.3719 23.6072 68.9419 24.1972 70.9019 23.9972V22.6372C70.2419 22.6772 69.8719 22.6372 69.8719 22.2072V20.4372H70.9019Z" fill="white"/>
<path d="M74.0535 24.1372C75.5235 24.1372 76.7035 22.9872 76.7035 21.4972C76.7035 20.0072 75.5235 18.8572 74.0535 18.8572C72.5835 18.8572 71.4035 20.0072 71.4035 21.4972C71.4035 22.9872 72.5835 24.1372 74.0535 24.1372ZM74.0535 22.6772C73.4035 22.6772 72.9035 22.2072 72.9035 21.4972C72.9035 20.7872 73.4035 20.3172 74.0535 20.3172C74.7035 20.3172 75.2035 20.7872 75.2035 21.4972C75.2035 22.2072 74.7035 22.6772 74.0535 22.6772Z" fill="white"/>
<path d="M79.052 19.8872V18.9972H77.552V23.9972H79.052V21.7372C79.052 20.7472 79.932 20.4972 80.552 20.5972V18.8972C79.922 18.8972 79.252 19.2172 79.052 19.8872Z" fill="white"/>
<path d="M82.4466 22.0972H85.9966C86.0366 21.9072 86.0566 21.7072 86.0566 21.4972C86.0566 19.9872 84.9766 18.8572 83.5166 18.8572C81.9366 18.8572 80.8566 20.0072 80.8566 21.4972C80.8566 22.9872 81.9166 24.1372 83.6266 24.1372C84.5766 24.1372 85.3166 23.7872 85.8066 23.1072L84.6066 22.4172C84.4066 22.6372 84.0566 22.7972 83.6466 22.7972C83.0966 22.7972 82.6366 22.6172 82.4466 22.0972ZM82.4166 20.9772C82.5566 20.4672 82.9366 20.1872 83.5066 20.1872C83.9566 20.1872 84.4066 20.3972 84.5666 20.9772H82.4166Z" fill="white"/>
</svg>
