<svg width="109" height="29" viewBox="0 0 109 29" fill="none" xmlns="http://www.w3.org/2000/svg">
<g filter="url(#filter0_d_4445_326548)">
<rect width="107" height="26" rx="13" fill="white"/>
<rect width="107" height="26" rx="13" fill="#336CDB" fill-opacity="0.15"/>
<path d="M11.416 18L15.544 6.8H17.4L21.496 18H19.704L18.744 15.264H14.168L13.208 18H11.416ZM14.648 13.92H18.264L16.456 8.816L14.648 13.92ZM26.7655 18.192C25.9655 18.192 25.2402 18.0373 24.5895 17.728C23.9495 17.408 23.4375 16.9227 23.0535 16.272C22.6802 15.6213 22.4935 14.7947 22.4935 13.792V6.8H24.1895V13.808C24.1895 14.7893 24.4242 15.5093 24.8935 15.968C25.3628 16.4267 25.9975 16.656 26.7975 16.656C27.5868 16.656 28.2162 16.4267 28.6855 15.968C29.1548 15.5093 29.3895 14.7893 29.3895 13.808V6.8H31.0855V13.792C31.0855 14.7947 30.8882 15.6213 30.4935 16.272C30.1095 16.9227 29.5868 17.408 28.9255 17.728C28.2748 18.0373 27.5548 18.192 26.7655 18.192ZM35.885 18V8.176H32.573V6.8H40.877V8.176H37.581V18H35.885ZM47.1321 18.192C46.0228 18.192 45.0521 17.9467 44.2201 17.456C43.3881 16.9653 42.7375 16.288 42.2681 15.424C41.7988 14.5493 41.5641 13.5413 41.5641 12.4C41.5641 11.2587 41.7988 10.256 42.2681 9.392C42.7375 8.51733 43.3881 7.83467 44.2201 7.344C45.0521 6.85333 46.0228 6.608 47.1321 6.608C48.2415 6.608 49.2121 6.85333 50.0441 7.344C50.8761 7.83467 51.5215 8.51733 51.9801 9.392C52.4495 10.256 52.6841 11.2587 52.6841 12.4C52.6841 13.5413 52.4495 14.5493 51.9801 15.424C51.5215 16.288 50.8761 16.9653 50.0441 17.456C49.2121 17.9467 48.2415 18.192 47.1321 18.192ZM47.1321 16.672C47.9001 16.672 48.5668 16.5013 49.1321 16.16C49.7081 15.8187 50.1561 15.328 50.4761 14.688C50.7961 14.048 50.9561 13.2853 50.9561 12.4C50.9561 11.5147 50.7961 10.752 50.4761 10.112C50.1561 9.472 49.7081 8.98133 49.1321 8.64C48.5668 8.29867 47.9001 8.128 47.1321 8.128C46.3641 8.128 45.6921 8.29867 45.1161 8.64C44.5401 8.98133 44.0921 9.472 43.7721 10.112C43.4628 10.752 43.3081 11.5147 43.3081 12.4C43.3081 13.2853 43.4628 14.048 43.7721 14.688C44.0921 15.328 44.5401 15.8187 45.1161 16.16C45.6921 16.5013 46.3641 16.672 47.1321 16.672ZM54.5735 18V6.8H56.5735L60.3655 14.256L64.1415 6.8H66.1415V18H64.4455V9.728L61.0215 16.4H59.7095L56.2695 9.744V18H54.5735ZM67.6973 18L71.8253 6.8H73.6813L77.7773 18H75.9853L75.0253 15.264H70.4493L69.4893 18H67.6973ZM70.9293 13.92H74.5453L72.7373 8.816L70.9293 13.92ZM80.7444 18V8.176H77.4324V6.8H85.7364V8.176H82.4404V18H80.7444ZM87.3235 18V6.8H94.4435V8.176H89.0195V11.664H93.9635V13.008H89.0195V16.624H94.4435V18H87.3235Z" fill="#336CDB"/>
</g>
<defs>
<filter id="filter0_d_4445_326548" x="-2" y="-1" width="111" height="30" filterUnits="userSpaceOnUse" color-interpolation-filters="sRGB">
<feFlood flood-opacity="0" result="BackgroundImageFix"/>
<feColorMatrix in="SourceAlpha" type="matrix" values="0 0 0 0 0 0 0 0 0 0 0 0 0 0 0 0 0 0 127 0" result="hardAlpha"/>
<feOffset dy="1"/>
<feGaussianBlur stdDeviation="1"/>
<feColorMatrix type="matrix" values="0 0 0 0 0.411765 0 0 0 0 0.317647 0 0 0 0 1 0 0 0 0.05 0"/>
<feBlend mode="normal" in2="BackgroundImageFix" result="effect1_dropShadow_4445_326548"/>
<feBlend mode="normal" in="SourceGraphic" in2="effect1_dropShadow_4445_326548" result="shape"/>
</filter>
</defs>
</svg>
