<svg width="119" height="49" viewBox="0 0 119 49" fill="none" xmlns="http://www.w3.org/2000/svg">
<path d="M15.3841 10.9922C7.01393 10.9922 0.0390625 14.5337 0.0390625 25.2182C0.0390625 33.6827 4.72916 39.0131 15.6002 39.0131C28.396 39.0131 29.2163 30.6068 29.2163 30.6068H23.0161C23.0161 30.6068 21.6868 35.1333 15.222 35.1333C9.95667 35.1333 6.16963 31.5859 6.16963 26.6139H29.8647V23.4938C29.8647 18.5749 26.7336 10.9922 15.3841 10.9922V10.9922ZM15.168 14.9798C20.1801 14.9798 23.597 18.042 23.597 22.6316H6.30676C6.30676 17.7592 10.7667 14.9798 15.168 14.9798V14.9798Z" fill="#12131A"/>
<path d="M29.8606 0.640625V33.642C29.8606 35.5152 29.7266 38.1455 29.7266 38.1455H35.6402C35.6402 38.1455 35.8525 36.2564 35.8525 34.53C35.8525 34.53 38.7742 39.0885 46.7186 39.0885C55.0843 39.0885 60.7669 33.2961 60.7669 24.9972C60.7669 17.2769 55.5473 11.0676 46.7321 11.0676C38.4773 11.0676 35.9122 15.5133 35.9122 15.5133V0.640625H29.8606ZM45.2057 15.1495C50.8867 15.1495 54.4992 19.3544 54.4992 24.9972C54.4992 31.0481 50.3269 35.0066 45.2462 35.0066C39.1829 35.0066 35.9122 30.2852 35.9122 25.0511C35.9122 20.174 38.8471 15.1495 45.2057 15.1495Z" fill="#12131A"/>
<path d="M75.4642 10.9922C62.8719 10.9922 62.0643 17.8685 62.0643 18.9674H68.332C68.332 18.9674 68.6607 14.9528 75.0319 14.9528C79.1721 14.9528 82.3803 16.8427 82.3803 20.4762V21.7695H75.0319C65.2765 21.7695 60.1191 24.6156 60.1191 30.3913C60.1191 36.0753 64.8844 39.168 71.324 39.168C80.1002 39.168 82.9273 34.3317 82.9273 34.3317C82.9273 36.2553 83.0761 38.1509 83.0761 38.1509H88.648C88.648 38.1509 88.4318 35.8013 88.4318 34.298V21.3047C88.4318 12.7851 81.5414 10.9922 75.4642 10.9922V10.9922ZM82.3803 25.6493V27.3736C82.3803 29.6227 80.9887 35.2141 72.7964 35.2141C68.3103 35.2141 66.3868 32.9812 66.3868 30.3913C66.3868 25.6796 72.8642 25.6493 82.3803 25.6493V25.6493Z" fill="#12131A"/>
<path d="M85.0566 12.0703H92.1078L102.227 32.2892L112.323 12.0703H118.711L100.321 48.0664H93.6207L98.9274 38.032L85.0566 12.0703Z" fill="#12131A"/>
</svg>
