<svg width="270" height="50" viewBox="0 0 270 50" fill="none" xmlns="http://www.w3.org/2000/svg">
<g clip-path="url(#clip0_4416_290385)">
<rect width="60" height="50" fill="#486DAB"/>
<rect width="60" height="50" fill="black" fill-opacity="0.2"/>
<g clip-path="url(#clip1_4416_290385)">
<path d="M42 24.9973C42 18.3699 36.6274 12.9973 30 12.9973C23.3726 12.9973 18 18.3699 18 24.9973C18 30.9869 22.3882 35.9513 28.125 36.8516V28.4661H25.0781V24.9973H28.125V22.3536C28.125 19.3461 29.9165 17.6848 32.6576 17.6848C33.9705 17.6848 35.3438 17.9192 35.3438 17.9192V20.8723H33.8306C32.3399 20.8723 31.875 21.7974 31.875 22.7463V24.9973H35.2031L34.6711 28.4661H31.875V36.8516C37.6118 35.9513 42 30.9869 42 24.9973Z" fill="white"/>
</g>
<rect width="210" height="50" transform="translate(60)" fill="#486DAB"/>
<path d="M88.684 30.5V19.3H90.028V29.428H95.244V30.5H88.684ZM100.283 30.692C99.5358 30.692 98.8638 30.5213 98.2665 30.18C97.6692 29.8387 97.1945 29.3587 96.8425 28.74C96.5012 28.1107 96.3305 27.3747 96.3305 26.532C96.3305 25.6893 96.5065 24.9587 96.8585 24.34C97.2105 23.7107 97.6852 23.2253 98.2825 22.884C98.8905 22.5427 99.5678 22.372 100.315 22.372C101.061 22.372 101.733 22.5427 102.331 22.884C102.928 23.2253 103.397 23.7107 103.739 24.34C104.091 24.9587 104.267 25.6893 104.267 26.532C104.267 27.3747 104.091 28.1107 103.739 28.74C103.387 29.3587 102.907 29.8387 102.299 30.18C101.701 30.5213 101.029 30.692 100.283 30.692ZM100.283 29.54C100.741 29.54 101.168 29.428 101.563 29.204C101.957 28.98 102.277 28.644 102.523 28.196C102.768 27.748 102.891 27.1933 102.891 26.532C102.891 25.8707 102.768 25.316 102.523 24.868C102.288 24.42 101.973 24.084 101.579 23.86C101.184 23.636 100.763 23.524 100.315 23.524C99.8558 23.524 99.4292 23.636 99.0345 23.86C98.6398 24.084 98.3198 24.42 98.0745 24.868C97.8292 25.316 97.7065 25.8707 97.7065 26.532C97.7065 27.1933 97.8292 27.748 98.0745 28.196C98.3198 28.644 98.6345 28.98 99.0185 29.204C99.4132 29.428 99.8345 29.54 100.283 29.54ZM108.928 28.004C108.48 28.004 108.069 27.9453 107.696 27.828L106.896 28.58C107.013 28.6653 107.157 28.74 107.328 28.804C107.509 28.8573 107.765 28.9107 108.096 28.964C108.426 29.0067 108.89 29.0547 109.488 29.108C110.554 29.1827 111.317 29.428 111.776 29.844C112.234 30.26 112.464 30.804 112.464 31.476C112.464 31.9347 112.336 32.372 112.08 32.788C111.834 33.204 111.45 33.5453 110.928 33.812C110.416 34.0787 109.754 34.212 108.944 34.212C108.229 34.212 107.594 34.116 107.039 33.924C106.485 33.7427 106.053 33.46 105.743 33.076C105.434 32.7027 105.28 32.228 105.28 31.652C105.28 31.3533 105.36 31.028 105.52 30.676C105.68 30.3347 105.978 30.0093 106.416 29.7C106.181 29.604 105.978 29.5027 105.808 29.396C105.648 29.2787 105.498 29.1507 105.36 29.012V28.644L106.72 27.3C106.09 26.7667 105.776 26.0627 105.776 25.188C105.776 24.6653 105.898 24.1907 106.144 23.764C106.389 23.3373 106.746 23.0013 107.216 22.756C107.685 22.5 108.256 22.372 108.928 22.372C109.386 22.372 109.802 22.436 110.176 22.564H113.104V23.572L111.616 23.636C111.925 24.084 112.08 24.6013 112.08 25.188C112.08 25.7107 111.952 26.1853 111.696 26.612C111.45 27.0387 111.093 27.38 110.624 27.636C110.165 27.8813 109.6 28.004 108.928 28.004ZM108.928 26.9C109.493 26.9 109.941 26.756 110.272 26.468C110.613 26.1693 110.784 25.7427 110.784 25.188C110.784 24.644 110.613 24.228 110.272 23.94C109.941 23.6413 109.493 23.492 108.928 23.492C108.352 23.492 107.893 23.6413 107.552 23.94C107.221 24.228 107.056 24.644 107.056 25.188C107.056 25.7427 107.221 26.1693 107.552 26.468C107.893 26.756 108.352 26.9 108.928 26.9ZM106.592 31.524C106.592 32.0573 106.816 32.452 107.264 32.708C107.712 32.9747 108.272 33.108 108.944 33.108C109.605 33.108 110.133 32.964 110.528 32.676C110.933 32.388 111.136 32.004 111.136 31.524C111.136 31.1827 110.997 30.884 110.72 30.628C110.442 30.3827 109.93 30.2387 109.184 30.196C108.597 30.1533 108.09 30.1 107.664 30.036C107.226 30.2707 106.938 30.5213 106.799 30.788C106.661 31.0653 106.592 31.3107 106.592 31.524ZM119.67 20.804C119.403 20.804 119.179 20.7187 118.998 20.548C118.827 20.3667 118.742 20.1427 118.742 19.876C118.742 19.62 118.827 19.4067 118.998 19.236C119.179 19.0653 119.403 18.98 119.67 18.98C119.926 18.98 120.145 19.0653 120.326 19.236C120.507 19.4067 120.598 19.62 120.598 19.876C120.598 20.1427 120.507 20.3667 120.326 20.548C120.145 20.7187 119.926 20.804 119.67 20.804ZM118.998 30.5V22.564H120.342V30.5H118.998ZM122.682 30.5V22.564H123.898L123.978 23.988C124.234 23.4867 124.602 23.092 125.082 22.804C125.562 22.516 126.106 22.372 126.714 22.372C127.653 22.372 128.399 22.66 128.954 23.236C129.519 23.8013 129.802 24.676 129.802 25.86V30.5H128.458V26.004C128.458 24.3507 127.775 23.524 126.41 23.524C125.727 23.524 125.157 23.7747 124.698 24.276C124.25 24.7667 124.026 25.4707 124.026 26.388V30.5H122.682ZM137.673 30.5L135.353 22.564H136.697L138.377 28.788L140.233 22.564H141.753L143.625 28.788L145.289 22.564H146.649L144.329 30.5H142.953L141.001 23.956L139.049 30.5H137.673ZM148.951 20.804C148.685 20.804 148.461 20.7187 148.279 20.548C148.109 20.3667 148.023 20.1427 148.023 19.876C148.023 19.62 148.109 19.4067 148.279 19.236C148.461 19.0653 148.685 18.98 148.951 18.98C149.207 18.98 149.426 19.0653 149.607 19.236C149.789 19.4067 149.879 19.62 149.879 19.876C149.879 20.1427 149.789 20.3667 149.607 20.548C149.426 20.7187 149.207 20.804 148.951 20.804ZM148.279 30.5V22.564H149.623V30.5H148.279ZM155.099 30.5C154.374 30.5 153.803 30.324 153.387 29.972C152.971 29.62 152.763 28.9853 152.763 28.068V23.7H151.387V22.564H152.763L152.939 20.66H154.107V22.564H156.443V23.7H154.107V28.068C154.107 28.5693 154.209 28.9107 154.411 29.092C154.614 29.2627 154.971 29.348 155.483 29.348H156.315V30.5H155.099ZM158.151 30.5V18.98H159.495V23.924C159.762 23.4333 160.14 23.0547 160.631 22.788C161.122 22.5107 161.655 22.372 162.231 22.372C163.148 22.372 163.884 22.66 164.439 23.236C164.994 23.8013 165.271 24.676 165.271 25.86V30.5H163.943V26.004C163.943 24.3507 163.276 23.524 161.943 23.524C161.25 23.524 160.668 23.7747 160.199 24.276C159.73 24.7667 159.495 25.4707 159.495 26.388V30.5H158.151ZM171.622 30.5V19.3H178.438V20.404H172.966V24.34H177.622V25.428H172.966V30.5H171.622ZM182.182 30.692C181.52 30.692 180.971 30.58 180.534 30.356C180.096 30.132 179.771 29.8333 179.558 29.46C179.344 29.0867 179.238 28.6813 179.238 28.244C179.238 27.4333 179.547 26.8093 180.166 26.372C180.784 25.9347 181.627 25.716 182.694 25.716H184.838V25.62C184.838 24.9267 184.656 24.404 184.294 24.052C183.931 23.6893 183.446 23.508 182.838 23.508C182.315 23.508 181.862 23.6413 181.478 23.908C181.104 24.164 180.87 24.5427 180.774 25.044H179.398C179.451 24.468 179.643 23.9827 179.974 23.588C180.315 23.1933 180.736 22.8947 181.238 22.692C181.739 22.4787 182.272 22.372 182.838 22.372C183.947 22.372 184.779 22.6707 185.334 23.268C185.899 23.8547 186.182 24.6387 186.182 25.62V30.5H184.982L184.902 29.076C184.678 29.524 184.347 29.908 183.91 30.228C183.483 30.5373 182.907 30.692 182.182 30.692ZM182.39 29.556C182.902 29.556 183.339 29.4227 183.702 29.156C184.075 28.8893 184.358 28.5427 184.55 28.116C184.742 27.6893 184.838 27.2413 184.838 26.772V26.756H182.806C182.016 26.756 181.456 26.8947 181.126 27.172C180.806 27.4387 180.646 27.7747 180.646 28.18C180.646 28.596 180.795 28.932 181.094 29.188C181.403 29.4333 181.835 29.556 182.39 29.556ZM191.846 30.692C191.088 30.692 190.406 30.5213 189.798 30.18C189.2 29.828 188.726 29.3427 188.374 28.724C188.032 28.0947 187.862 27.364 187.862 26.532C187.862 25.7 188.032 24.9747 188.374 24.356C188.726 23.7267 189.2 23.2413 189.798 22.9C190.406 22.548 191.088 22.372 191.846 22.372C192.784 22.372 193.574 22.6173 194.214 23.108C194.864 23.5987 195.275 24.2547 195.446 25.076H194.07C193.963 24.5853 193.702 24.2067 193.286 23.94C192.87 23.6627 192.384 23.524 191.83 23.524C191.382 23.524 190.96 23.636 190.566 23.86C190.171 24.084 189.851 24.42 189.606 24.868C189.36 25.316 189.238 25.8707 189.238 26.532C189.238 27.1933 189.36 27.748 189.606 28.196C189.851 28.644 190.171 28.9853 190.566 29.22C190.96 29.444 191.382 29.556 191.83 29.556C192.384 29.556 192.87 29.4227 193.286 29.156C193.702 28.8787 193.963 28.4893 194.07 27.988H195.446C195.286 28.788 194.88 29.4387 194.23 29.94C193.579 30.4413 192.784 30.692 191.846 30.692ZM200.891 30.692C200.133 30.692 199.461 30.5213 198.875 30.18C198.288 29.828 197.824 29.3427 197.483 28.724C197.152 28.1053 196.987 27.3747 196.987 26.532C196.987 25.7 197.152 24.9747 197.483 24.356C197.813 23.7267 198.272 23.2413 198.859 22.9C199.456 22.548 200.144 22.372 200.923 22.372C201.691 22.372 202.352 22.548 202.907 22.9C203.472 23.2413 203.904 23.6947 204.203 24.26C204.501 24.8253 204.651 25.4333 204.651 26.084C204.651 26.2013 204.645 26.3187 204.635 26.436C204.635 26.5533 204.635 26.6867 204.635 26.836H198.315C198.347 27.444 198.485 27.9507 198.731 28.356C198.987 28.7507 199.301 29.0493 199.675 29.252C200.059 29.4547 200.464 29.556 200.891 29.556C201.445 29.556 201.909 29.428 202.283 29.172C202.656 28.916 202.928 28.5693 203.099 28.132H204.427C204.213 28.868 203.803 29.4813 203.195 29.972C202.597 30.452 201.829 30.692 200.891 30.692ZM200.891 23.508C200.251 23.508 199.68 23.7053 199.179 24.1C198.688 24.484 198.405 25.0493 198.331 25.796H203.323C203.291 25.0813 203.045 24.5213 202.587 24.116C202.128 23.7107 201.563 23.508 200.891 23.508ZM210.672 30.692C210.021 30.692 209.44 30.5587 208.928 30.292C208.427 30.0253 208.043 29.652 207.776 29.172L207.648 30.5H206.432V18.98H207.776V23.876C208.032 23.492 208.395 23.1453 208.864 22.836C209.344 22.5267 209.952 22.372 210.688 22.372C211.477 22.372 212.165 22.5533 212.752 22.916C213.339 23.2787 213.792 23.7747 214.112 24.404C214.443 25.0333 214.608 25.748 214.608 26.548C214.608 27.348 214.443 28.0627 214.112 28.692C213.792 29.3107 213.333 29.8013 212.736 30.164C212.149 30.516 211.461 30.692 210.672 30.692ZM210.528 29.524C211.061 29.524 211.531 29.4013 211.936 29.156C212.341 28.9 212.661 28.548 212.896 28.1C213.131 27.652 213.248 27.1293 213.248 26.532C213.248 25.9347 213.131 25.412 212.896 24.964C212.661 24.516 212.341 24.1693 211.936 23.924C211.531 23.668 211.061 23.54 210.528 23.54C209.995 23.54 209.525 23.668 209.12 23.924C208.715 24.1693 208.395 24.516 208.16 24.964C207.925 25.412 207.808 25.9347 207.808 26.532C207.808 27.1293 207.925 27.652 208.16 28.1C208.395 28.548 208.715 28.9 209.12 29.156C209.525 29.4013 209.995 29.524 210.528 29.524ZM220.095 30.692C219.348 30.692 218.676 30.5213 218.079 30.18C217.482 29.8387 217.007 29.3587 216.655 28.74C216.314 28.1107 216.143 27.3747 216.143 26.532C216.143 25.6893 216.319 24.9587 216.671 24.34C217.023 23.7107 217.498 23.2253 218.095 22.884C218.703 22.5427 219.38 22.372 220.127 22.372C220.874 22.372 221.546 22.5427 222.143 22.884C222.74 23.2253 223.21 23.7107 223.551 24.34C223.903 24.9587 224.079 25.6893 224.079 26.532C224.079 27.3747 223.903 28.1107 223.551 28.74C223.199 29.3587 222.719 29.8387 222.111 30.18C221.514 30.5213 220.842 30.692 220.095 30.692ZM220.095 29.54C220.554 29.54 220.98 29.428 221.375 29.204C221.77 28.98 222.09 28.644 222.335 28.196C222.58 27.748 222.703 27.1933 222.703 26.532C222.703 25.8707 222.58 25.316 222.335 24.868C222.1 24.42 221.786 24.084 221.391 23.86C220.996 23.636 220.575 23.524 220.127 23.524C219.668 23.524 219.242 23.636 218.847 23.86C218.452 24.084 218.132 24.42 217.887 24.868C217.642 25.316 217.519 25.8707 217.519 26.532C217.519 27.1933 217.642 27.748 217.887 28.196C218.132 28.644 218.447 28.98 218.831 29.204C219.226 29.428 219.647 29.54 220.095 29.54ZM229.564 30.692C228.817 30.692 228.145 30.5213 227.548 30.18C226.95 29.8387 226.476 29.3587 226.124 28.74C225.782 28.1107 225.612 27.3747 225.612 26.532C225.612 25.6893 225.788 24.9587 226.14 24.34C226.492 23.7107 226.966 23.2253 227.564 22.884C228.172 22.5427 228.849 22.372 229.596 22.372C230.342 22.372 231.014 22.5427 231.612 22.884C232.209 23.2253 232.678 23.7107 233.02 24.34C233.372 24.9587 233.548 25.6893 233.548 26.532C233.548 27.3747 233.372 28.1107 233.02 28.74C232.668 29.3587 232.188 29.8387 231.58 30.18C230.982 30.5213 230.31 30.692 229.564 30.692ZM229.564 29.54C230.022 29.54 230.449 29.428 230.844 29.204C231.238 28.98 231.558 28.644 231.804 28.196C232.049 27.748 232.172 27.1933 232.172 26.532C232.172 25.8707 232.049 25.316 231.804 24.868C231.569 24.42 231.254 24.084 230.86 23.86C230.465 23.636 230.044 23.524 229.596 23.524C229.137 23.524 228.71 23.636 228.316 23.86C227.921 24.084 227.601 24.42 227.356 24.868C227.11 25.316 226.988 25.8707 226.988 26.532C226.988 27.1933 227.11 27.748 227.356 28.196C227.601 28.644 227.916 28.98 228.3 29.204C228.694 29.428 229.116 29.54 229.564 29.54ZM235.417 30.5V18.98H236.761V25.908L240.009 22.564H241.657L238.137 26.148L242.105 30.5H240.393L236.761 26.388V30.5H235.417Z" fill="white"/>
</g>
<defs>
<clipPath id="clip0_4416_290385">
<rect width="270" height="50" rx="10" fill="white"/>
</clipPath>
<clipPath id="clip1_4416_290385">
<rect width="24" height="24" fill="white" transform="translate(18 13)"/>
</clipPath>
</defs>
</svg>
