<svg width="153" height="48" viewBox="0 0 153 48" fill="none" xmlns="http://www.w3.org/2000/svg">
<path d="M19.0021 17.3473V22.4212H31.2468C30.9217 25.228 29.9464 27.3871 28.4294 28.7905C26.6956 30.5178 23.8783 32.4609 19.0021 32.4609C11.5252 32.4609 5.67379 26.4155 5.67379 18.9666C5.67379 11.5178 11.4169 5.4723 19.0021 5.4723C23.0114 5.4723 26.0455 7.09162 28.2127 9.14276L31.7886 5.58026C28.7545 2.66548 24.6368 0.398438 19.0021 0.398438C8.70787 0.398438 0.0390625 8.71094 0.0390625 18.9666C0.0390625 29.2223 8.70787 37.5348 19.0021 37.5348C24.5284 37.5348 28.7545 35.6996 32.0053 32.353C35.3644 29.0064 36.448 24.2564 36.448 20.478C36.448 19.2905 36.3397 18.2109 36.2313 17.3473H19.0021V17.3473Z" fill="#12131A"/>
<path d="M51.6187 13.1406C45.0088 13.1406 39.4824 18.2145 39.4824 25.1236C39.4824 32.0327 44.9004 37.1065 51.6187 37.1065C58.3371 37.1065 63.7551 32.1406 63.7551 25.2315C63.7551 18.2145 58.3371 13.1406 51.6187 13.1406ZM51.6187 32.4645C47.9345 32.4645 44.7921 29.4418 44.7921 25.2315C44.7921 20.9134 47.9345 17.9986 51.6187 17.9986C55.303 17.9986 58.4454 20.9134 58.4454 25.2315C58.4454 29.4418 55.303 32.4645 51.6187 32.4645Z" fill="#12131A"/>
<path d="M110.891 15.8395H110.674C109.482 14.4361 107.207 13.1406 104.281 13.1406C98.213 13.1406 93.0117 18.3224 93.0117 25.1236C93.0117 31.8168 98.213 37.1065 104.281 37.1065C107.207 37.1065 109.482 35.8111 110.674 34.4077H110.891V36.1349C110.891 40.669 108.399 43.152 104.498 43.152C101.247 43.152 99.2966 40.8849 98.4297 38.8338L93.8786 40.777C95.1789 43.9077 98.7548 47.902 104.606 47.902C110.783 47.902 116.092 44.2315 116.092 35.3793V13.7884H111.108V15.8395H110.891ZM104.823 32.4645C101.139 32.4645 98.4297 29.3338 98.4297 25.2315C98.4297 21.0213 101.247 17.9986 104.823 17.9986C108.399 17.9986 111.216 21.1293 111.216 25.3395C111.325 29.4418 108.507 32.4645 104.823 32.4645Z" fill="#12131A"/>
<path d="M78.5992 13.1406C71.9893 13.1406 66.4629 18.2145 66.4629 25.1236C66.4629 32.0327 71.8809 37.1065 78.5992 37.1065C85.3175 37.1065 90.7355 32.1406 90.7355 25.2315C90.7355 18.2145 85.3175 13.1406 78.5992 13.1406ZM78.5992 32.4645C74.915 32.4645 71.7725 29.4418 71.7725 25.2315C71.7725 20.9134 74.915 17.9986 78.5992 17.9986C82.2835 17.9986 85.4259 20.9134 85.4259 25.2315C85.4259 29.4418 82.2835 32.4645 78.5992 32.4645Z" fill="#12131A"/>
<path d="M120.102 0.9375H125.303V37.2102H120.102V0.9375Z" fill="#12131A"/>
<path d="M141.341 32.4645C138.632 32.4645 136.79 31.277 135.49 28.794L151.636 22.2088L151.094 20.8054C150.119 18.1065 146.976 13.1406 140.8 13.1406C134.623 13.1406 129.422 17.9986 129.422 25.1236C129.422 31.8168 134.515 37.1065 141.341 37.1065C146.868 37.1065 150.01 33.7599 151.419 31.8168L147.301 29.1179C145.893 31.169 144.05 32.4645 141.341 32.4645ZM141.016 17.6747C143.184 17.6747 145.026 18.7543 145.568 20.2656L134.732 24.7997C134.623 19.8338 138.307 17.6747 141.016 17.6747Z" fill="#12131A"/>
</svg>
