<svg width="107" height="35" viewBox="0 0 107 35" fill="none" xmlns="http://www.w3.org/2000/svg">
<rect width="107" height="35" rx="17.5" fill="black"/>
<g clip-path="url(#clip0_4409_289410)">
<path d="M25.507 16.9994L15.4634 26.6706C14.9931 26.3492 14.7139 25.8145 14.7188 25.2449V8.75382C14.7139 8.18419 14.9931 7.64955 15.4634 7.32812L25.507 16.9994Z" fill="#2196F3"/>
<path d="M29.0227 13.6236L25.5084 17.0018L15.4648 7.33053C15.5027 7.3012 15.5421 7.27392 15.5829 7.2488C16.1137 6.92708 16.7767 6.9167 17.3174 7.22156L29.0227 13.6236Z" fill="#4CAF50"/>
<path d="M33.2811 17.0031C33.2877 17.6462 32.9382 18.2402 32.373 18.5469L29.0221 20.3812L25.5078 17.0031L29.0221 13.625L32.373 15.4593C32.9382 15.7661 33.2877 16.3601 33.2811 17.0031Z" fill="#F0BB1F"/>
<path d="M29.0227 20.3781L17.3174 26.7802C16.7755 27.0803 16.115 27.07 15.5829 26.753C15.5421 26.7278 15.5027 26.7006 15.4648 26.6712L25.5084 17L29.0227 20.3781Z" fill="#F15A2B"/>
</g>
<path d="M45.0262 11.8811H42.2182V13.0011H43.7142C43.5142 13.5371 43.0262 13.8651 42.2822 13.8651C41.1942 13.8651 40.5222 13.1691 40.5222 12.2171C40.5222 11.2331 41.2262 10.5371 42.1702 10.5371C42.8022 10.5371 43.3062 10.8251 43.5382 11.1931L44.6262 10.5691C44.1542 9.81706 43.2502 9.28906 42.1782 9.28906C40.5302 9.28906 39.2422 10.5851 39.2422 12.2091C39.2422 13.8171 40.5062 15.1131 42.2662 15.1131C43.8342 15.1131 45.0262 14.0731 45.0262 12.3611V11.8811Z" fill="white"/>
<path d="M46.6278 13.7691V12.7771H48.6278V11.5611H46.6278V10.6331H48.8278V9.40106H45.3478V15.0011H48.8678V13.7691H46.6278Z" fill="white"/>
<path d="M52.95 9.40106H48.79V10.6331H50.23V15.0011H51.51V10.6331H52.95V9.40106Z" fill="white"/>
<path d="M54.7103 9.40106V15.0011H55.9903V9.40106H54.7103Z" fill="white"/>
<path d="M60.3125 9.40106H56.1525V10.6331H57.5925V15.0011H58.8725V10.6331H60.3125V9.40106Z" fill="white"/>
<path d="M64.7448 15.1131C66.3528 15.1131 67.6568 13.8491 67.6568 12.2011C67.6568 10.5531 66.3528 9.28906 64.7448 9.28906C63.1368 9.28906 61.8328 10.5531 61.8328 12.2011C61.8328 13.8491 63.1368 15.1131 64.7448 15.1131ZM64.7448 13.8651C63.8328 13.8651 63.1128 13.2011 63.1128 12.2011C63.1128 11.2011 63.8328 10.5371 64.7448 10.5371C65.6568 10.5371 66.3768 11.2011 66.3768 12.2011C66.3768 13.2011 65.6568 13.8651 64.7448 13.8651Z" fill="white"/>
<path d="M71.0975 9.40106V12.4411L68.9375 9.40106H67.9775V15.0011H69.2575V11.9611L71.4175 15.0011H72.3775V9.40106H71.0975Z" fill="white"/>
<path d="M45.0262 21.3931V21.6091C45.0262 22.3077 44.7782 22.8971 44.2822 23.3771C43.7862 23.8517 43.1329 24.0891 42.3222 24.0891C41.4689 24.0891 40.7649 23.8117 40.2102 23.2571C39.6555 22.6971 39.3782 22.0117 39.3782 21.2011C39.3782 20.3904 39.6529 19.7077 40.2022 19.1531C40.7515 18.5931 41.4475 18.3131 42.2902 18.3131C42.8022 18.3131 43.2715 18.4357 43.6982 18.6811C44.1302 18.9264 44.4635 19.2544 44.6982 19.6651L44.3222 19.8891C44.1355 19.5371 43.8582 19.2544 43.4902 19.0411C43.1275 18.8277 42.7275 18.7211 42.2902 18.7211C41.5649 18.7211 40.9675 18.9611 40.4982 19.4411C40.0342 19.9157 39.8022 20.5024 39.8022 21.2011C39.8022 21.8997 40.0369 22.4891 40.5062 22.9691C40.9755 23.4437 41.5809 23.6811 42.3222 23.6811C42.9782 23.6811 43.5089 23.5024 43.9142 23.1451C44.3195 22.7877 44.5462 22.3371 44.5942 21.7931H42.2182V21.3931H45.0262Z" fill="white"/>
<path d="M50.7048 23.2491C50.1448 23.8091 49.4621 24.0891 48.6568 24.0891C47.8515 24.0891 47.1688 23.8091 46.6088 23.2491C46.0488 22.6837 45.7688 22.0011 45.7688 21.2011C45.7688 20.4011 46.0488 19.7211 46.6088 19.1611C47.1688 18.5957 47.8515 18.3131 48.6568 18.3131C49.4621 18.3131 50.1448 18.5957 50.7048 19.1611C51.2648 19.7211 51.5448 20.4011 51.5448 21.2011C51.5448 22.0011 51.2648 22.6837 50.7048 23.2491ZM46.9048 22.9611C47.3848 23.4411 47.9688 23.6811 48.6568 23.6811C49.3448 23.6811 49.9261 23.4411 50.4008 22.9611C50.8808 22.4757 51.1208 21.8891 51.1208 21.2011C51.1208 20.5131 50.8808 19.9291 50.4008 19.4491C49.9261 18.9637 49.3448 18.7211 48.6568 18.7211C47.9688 18.7211 47.3848 18.9637 46.9048 19.4491C46.4301 19.9291 46.1928 20.5131 46.1928 21.2011C46.1928 21.8891 46.4301 22.4757 46.9048 22.9611Z" fill="white"/>
<path d="M57.2361 23.2491C56.6761 23.8091 55.9934 24.0891 55.1881 24.0891C54.3827 24.0891 53.7001 23.8091 53.1401 23.2491C52.5801 22.6837 52.3001 22.0011 52.3001 21.2011C52.3001 20.4011 52.5801 19.7211 53.1401 19.1611C53.7001 18.5957 54.3827 18.3131 55.1881 18.3131C55.9934 18.3131 56.6761 18.5957 57.2361 19.1611C57.7961 19.7211 58.0761 20.4011 58.0761 21.2011C58.0761 22.0011 57.7961 22.6837 57.2361 23.2491ZM53.4361 22.9611C53.9161 23.4411 54.5001 23.6811 55.1881 23.6811C55.8761 23.6811 56.4574 23.4411 56.9321 22.9611C57.4121 22.4757 57.6521 21.8891 57.6521 21.2011C57.6521 20.5131 57.4121 19.9291 56.9321 19.4491C56.4574 18.9637 55.8761 18.7211 55.1881 18.7211C54.5001 18.7211 53.9161 18.9637 53.4361 19.4491C52.9614 19.9291 52.7241 20.5131 52.7241 21.2011C52.7241 21.8891 52.9614 22.4757 53.4361 22.9611Z" fill="white"/>
<path d="M64.4793 21.3931V21.6091C64.4793 22.3077 64.2313 22.8971 63.7353 23.3771C63.2393 23.8517 62.586 24.0891 61.7753 24.0891C60.922 24.0891 60.218 23.8117 59.6633 23.2571C59.1086 22.6971 58.8313 22.0117 58.8313 21.2011C58.8313 20.3904 59.106 19.7077 59.6553 19.1531C60.2046 18.5931 60.9006 18.3131 61.7433 18.3131C62.2553 18.3131 62.7246 18.4357 63.1513 18.6811C63.5833 18.9264 63.9166 19.2544 64.1513 19.6651L63.7753 19.8891C63.5886 19.5371 63.3113 19.2544 62.9433 19.0411C62.5806 18.8277 62.1806 18.7211 61.7433 18.7211C61.018 18.7211 60.4206 18.9611 59.9513 19.4411C59.4873 19.9157 59.2553 20.5024 59.2553 21.2011C59.2553 21.8997 59.49 22.4891 59.9593 22.9691C60.4286 23.4437 61.034 23.6811 61.7753 23.6811C62.4313 23.6811 62.962 23.5024 63.3673 23.1451C63.7726 22.7877 63.9993 22.3371 64.0473 21.7931H61.6713V21.3931H64.4793Z" fill="white"/>
<path d="M65.9659 23.6011H68.6059V24.0011H65.5419V18.4011H65.9659V23.6011Z" fill="white"/>
<path d="M69.9112 23.6011H72.7113V24.0011H69.4872V18.4011H72.6712V18.8011H69.9112V20.9771H72.4712V21.3771H69.9112V23.6011Z" fill="white"/>
<path d="M77.7897 18.4011C78.291 18.4011 78.707 18.5664 79.0377 18.8971C79.3684 19.2277 79.5337 19.6411 79.5337 20.1371C79.5337 20.6331 79.3684 21.0464 79.0377 21.3771C78.707 21.7024 78.291 21.8651 77.7897 21.8651H76.3097V24.0011H75.8857V18.4011H77.7897ZM77.7897 21.4651C78.1737 21.4651 78.4884 21.3397 78.7337 21.0891C78.9844 20.8384 79.1097 20.5211 79.1097 20.1371C79.1097 19.7477 78.9844 19.4277 78.7337 19.1771C78.4884 18.9264 78.1737 18.8011 77.7897 18.8011H76.3097V21.4651H77.7897Z" fill="white"/>
<path d="M81.005 23.6011H83.645V24.0011H80.581V18.4011H81.005V23.6011Z" fill="white"/>
<path d="M88.4506 24.0011L87.9066 22.5771H85.0986L84.5546 24.0011H84.1066L86.2826 18.4011H86.7306L88.8986 24.0011H88.4506ZM85.2586 22.1771H87.7546L86.5066 18.9211L85.2586 22.1771Z" fill="white"/>
<path d="M92.8831 18.4011L90.8431 21.6971V24.0011H90.4191V21.6971L88.3791 18.4011H88.8591L90.6351 21.2891L92.4031 18.4011H92.8831Z" fill="white"/>
<defs>
<clipPath id="clip0_4409_289410">
<rect width="20" height="20" fill="white" transform="translate(14 7)"/>
</clipPath>
</defs>
</svg>
