<svg width="77" height="31" viewBox="0 0 77 31" fill="none" xmlns="http://www.w3.org/2000/svg">
<path d="M15.4506 28.0938H0.742188V30.0039H15.4506V28.0938Z" fill="#12131A"/>
<path d="M15.4506 24.0781H0.742188V25.9883H15.4506V24.0781Z" fill="#12131A"/>
<path d="M11.2489 20.0703H4.94531V21.9805H11.2489V20.0703Z" fill="#12131A"/>
<path d="M11.2489 16.0547H4.94531V17.9649H11.2489V16.0547Z" fill="#12131A"/>
<path d="M11.2489 12.0469H4.94531V13.9571H11.2489V12.0469Z" fill="#12131A"/>
<path d="M11.2489 8.03125H4.94531V9.94145H11.2489V8.03125Z" fill="#12131A"/>
<path d="M15.4506 4.02344H0.742188V5.93361H15.4506V4.02344Z" fill="#12131A"/>
<path d="M15.4506 0.015625H0.742188V1.9258H15.4506V0.015625Z" fill="#12131A"/>
<path d="M17.5508 28.0938V30.0039H33.0233C34.9267 30.0063 36.7685 29.3289 38.2168 28.0938L17.5508 28.0938Z" fill="#12131A"/>
<path d="M17.5508 24.0781V25.9883H39.9701C40.3173 25.3889 40.5849 24.7467 40.7662 24.0781H17.5508Z" fill="#12131A"/>
<path d="M28.0575 20.0703H21.7539V21.9805H28.0575V20.0703Z" fill="#12131A"/>
<path d="M38.3591 16.0547H21.7539V17.9649H39.9006C39.4874 17.2531 38.9675 16.6089 38.3591 16.0547Z" fill="#12131A"/>
<path d="M21.7539 12.0469V13.9571H38.428C39.0364 13.4029 39.5563 12.7587 39.9695 12.0469H21.7539Z" fill="#12131A"/>
<path d="M40.7662 5.93361C40.585 5.26499 40.3173 4.62286 39.9701 4.02344H17.5508V5.93361H40.7662Z" fill="#12131A"/>
<path d="M38.2168 1.92581C36.7685 0.690717 34.9267 0.0133271 33.0233 0.0156309H17.5508V1.92581H38.2168Z" fill="#12131A"/>
<path d="M28.0575 8.03125H21.7539V9.94145H28.0575V8.03125Z" fill="#12131A"/>
<path d="M33.9805 9.94145H40.8145C40.9687 9.31639 41.0472 8.67505 41.0481 8.03125H33.9805V9.94145Z" fill="#12131A"/>
<path d="M33.9805 20.0703V21.9805H41.0481C41.0472 21.3367 40.9687 20.6954 40.8145 20.0703H33.9805Z" fill="#12131A"/>
<path d="M54.6089 0H42.7656V1.91003H55.2715L54.6089 0Z" fill="#12131A"/>
<path d="M53.2752 28.0938H42.7656V30.0046H53.2752V28.0938Z" fill="#12131A"/>
<path d="M53.2752 24.0781H42.7656V25.989H53.2752V24.0781Z" fill="#12131A"/>
<path d="M53.2746 20.0625H46.9688V21.9733H53.2746V20.0625Z" fill="#12131A"/>
<path d="M53.2746 16.0547H46.9688V17.9655H53.2746V16.0547Z" fill="#12131A"/>
<path d="M76.3983 28.0938H65.8887V30.0046H76.3983V28.0938Z" fill="#12131A"/>
<path d="M76.3983 24.0781H65.8887V25.989H76.3983V24.0781Z" fill="#12131A"/>
<path d="M72.1944 20.0625H65.8887V21.9733H72.1944V20.0625Z" fill="#12131A"/>
<path d="M72.1944 16.0547H65.8887V17.9655H72.1944V16.0547Z" fill="#12131A"/>
<path d="M65.8878 13.9498H72.1937V12.0391H65.8878H60.374L59.7109 13.9498H65.2452L65.8878 12.1299V13.9498Z" fill="#12131A"/>
<path d="M58.7884 12.0391H53.2747H46.9688V13.9498H53.2747V12.1299L53.9169 13.9498H59.4515L58.7884 12.0391Z" fill="#12131A"/>
<path d="M72.1921 8.02344H61.7644L61.1016 9.93418H72.1921V8.02344Z" fill="#12131A"/>
<path d="M64.5496 0L63.8867 1.91074H76.3969V0H64.5496Z" fill="#12131A"/>
<path d="M59.5773 30.0045L60.2522 28.0938H58.9102L59.5773 30.0045Z" fill="#12131A"/>
<path d="M58.1686 25.9891H60.9947L61.6694 24.0781H57.4941L58.1686 25.9891Z" fill="#12131A"/>
<path d="M56.7526 21.9735H62.4124L63.0869 20.0625H56.0781L56.7526 21.9735Z" fill="#12131A"/>
<path d="M55.3348 17.9657H63.8277L64.5024 16.0547H54.6602L55.3348 17.9657Z" fill="#12131A"/>
<path d="M46.9688 9.93418H58.0593L57.3963 8.02344H46.9688V9.93418Z" fill="#12131A"/>
<path d="M62.4961 5.92637H76.3984V4.01562H63.1589L62.4961 5.92637Z" fill="#12131A"/>
<path d="M56.0051 4.01562H42.7656V5.92637H56.6679L56.0051 4.01562Z" fill="#12131A"/>
</svg>
