<svg width="20" height="21" viewBox="0 0 20 21" fill="none" xmlns="http://www.w3.org/2000/svg">
<path d="M5.85842 0.32775C4.79442 0.37795 4.06782 0.54775 3.43262 0.79735C2.77522 1.05355 2.21802 1.39735 1.66362 1.95375C1.10922 2.51015 0.767816 3.06775 0.513416 3.72615C0.267216 4.36275 0.100416 5.08995 0.0534162 6.15455C0.00641622 7.21915 -0.00398378 7.56135 0.00121621 10.277C0.00641621 12.9926 0.0184162 13.333 0.0700162 14.3998C0.120816 15.4636 0.290016 16.19 0.539616 16.8254C0.796216 17.4828 1.13962 18.0398 1.69622 18.5944C2.25282 19.149 2.81002 19.4896 3.47002 19.7444C4.10602 19.9902 4.83342 20.1578 5.89782 20.2044C6.96222 20.251 7.30482 20.2618 10.0196 20.2566C12.7344 20.2514 13.0762 20.2394 14.1428 20.1888C15.2094 20.1382 15.932 19.9678 16.5676 19.7194C17.225 19.4622 17.7824 19.1194 18.3366 18.5626C18.8908 18.0058 19.232 17.4478 19.4862 16.789C19.7326 16.153 19.9 15.4256 19.9462 14.362C19.9928 13.2946 20.0038 12.9538 19.9986 10.2386C19.9934 7.52335 19.9812 7.18295 19.9306 6.11655C19.88 5.05015 19.7106 4.32595 19.4612 3.69015C19.2042 3.03275 18.8612 2.47615 18.3048 1.92115C17.7484 1.36615 17.19 1.02515 16.5314 0.77155C15.895 0.52535 15.168 0.35755 14.1036 0.31155C13.0392 0.26555 12.6966 0.25375 9.98082 0.25895C7.26502 0.26415 6.92502 0.27575 5.85842 0.32775ZM5.97522 18.4054C5.00022 18.363 4.47082 18.201 4.11802 18.0654C3.65082 17.8854 3.31802 17.6678 2.96642 17.3196C2.61482 16.9714 2.39882 16.6374 2.21642 16.1712C2.07942 15.8184 1.91442 15.2896 1.86882 14.3146C1.81922 13.2608 1.80882 12.9444 1.80302 10.2746C1.79722 7.60475 1.80742 7.28875 1.85362 6.23455C1.89522 5.26035 2.05822 4.73035 2.19362 4.37775C2.37362 3.90995 2.59042 3.57775 2.93942 3.22635C3.28842 2.87495 3.62142 2.65855 4.08802 2.47615C4.44042 2.33855 4.96922 2.17495 5.94382 2.12855C6.99842 2.07855 7.31442 2.06855 9.98382 2.06275C12.6532 2.05695 12.97 2.06695 14.025 2.11335C14.9992 2.15575 15.5294 2.31715 15.8816 2.45335C16.349 2.63335 16.6816 2.84955 17.033 3.19915C17.3844 3.54875 17.601 3.88055 17.7834 4.34815C17.9212 4.69955 18.0848 5.22815 18.1308 6.20335C18.181 7.25795 18.1924 7.57415 18.1972 10.2434C18.202 12.9126 18.1926 13.2296 18.1464 14.2834C18.1038 15.2584 17.9422 15.788 17.8064 16.1412C17.6264 16.6082 17.4094 16.9412 17.0602 17.2924C16.711 17.6436 16.3784 17.86 15.9116 18.0424C15.5596 18.1798 15.0302 18.3438 14.0564 18.3902C13.0018 18.4398 12.6858 18.4502 10.0154 18.456C7.34502 18.4618 7.03002 18.451 5.97542 18.4054M14.1274 4.91315C14.1278 5.1505 14.1986 5.38241 14.3308 5.57954C14.463 5.77666 14.6507 5.93016 14.8701 6.02061C15.0896 6.11105 15.3309 6.13439 15.5636 6.08767C15.7963 6.04095 16.01 5.92626 16.1775 5.75812C16.345 5.58998 16.4589 5.37593 16.5048 5.14305C16.5507 4.91017 16.5264 4.66892 16.4352 4.4498C16.3439 4.23069 16.1898 4.04356 15.9921 3.91208C15.7945 3.7806 15.5624 3.71068 15.325 3.71115C15.0068 3.71179 14.7019 3.83877 14.4773 4.06418C14.2527 4.28958 14.1269 4.59496 14.1274 4.91315ZM4.86542 10.2678C4.87102 13.1038 7.17422 15.3976 10.0096 15.3922C12.845 15.3868 15.1404 13.0838 15.135 10.2478C15.1296 7.41175 12.8258 5.11735 9.99002 5.12295C7.15422 5.12855 4.86002 7.43215 4.86542 10.2678ZM6.66662 10.2642C6.66531 9.60487 6.85954 8.96 7.22473 8.41111C7.58992 7.86221 8.10968 7.43393 8.71828 7.18043C9.32688 6.92693 9.99698 6.85959 10.6438 6.98693C11.2907 7.11427 11.8853 7.43056 12.3524 7.89582C12.8195 8.36108 13.1382 8.95441 13.2681 9.60077C13.398 10.2471 13.3333 10.9175 13.0822 11.5271C12.8311 12.1367 12.4049 12.6581 11.8574 13.0255C11.31 13.3929 10.6659 13.5896 10.0066 13.591C9.56885 13.5919 9.1352 13.5065 8.73041 13.3398C8.32563 13.1731 7.95765 12.9283 7.64749 12.6194C7.33734 12.3105 7.09107 11.9435 6.92277 11.5393C6.75447 11.1352 6.66743 10.7019 6.66662 10.2642Z" fill="white"/>
</svg>
