<svg width="270" height="50" viewBox="0 0 270 50" fill="none" xmlns="http://www.w3.org/2000/svg">
<g clip-path="url(#clip0_4416_290387)">
<rect width="60" height="50" fill="#0A66C2"/>
<rect width="60" height="50" fill="black" fill-opacity="0.2"/>
<g clip-path="url(#clip1_4416_290387)">
<path d="M38.4226 33.2604H34.8712V27.7534C34.8712 26.4403 34.8475 24.7498 33.0241 24.7498C31.1744 24.7498 30.8914 26.1805 30.8914 27.6578V33.26H27.3399V21.9355H30.7493V23.4831H30.797C31.1382 22.9055 31.6313 22.4303 32.2237 22.1082C32.816 21.786 33.4856 21.629 34.1609 21.6538C37.7605 21.6538 38.4241 23.9981 38.4241 27.0479L38.4226 33.2604ZM23.3327 20.3875C22.9251 20.3876 22.5266 20.268 22.1876 20.0438C21.8487 19.8197 21.5845 19.501 21.4284 19.1281C21.2724 18.7553 21.2315 18.345 21.3109 17.9491C21.3904 17.5533 21.5866 17.1896 21.8748 16.9042C22.163 16.6187 22.5301 16.4243 22.9299 16.3455C23.3297 16.2667 23.7441 16.307 24.1207 16.4614C24.4973 16.6158 24.8192 16.8773 25.0457 17.2129C25.2723 17.5484 25.3932 17.9429 25.3933 18.3465C25.3933 18.6145 25.3401 18.8799 25.2365 19.1275C25.133 19.3751 24.9813 19.6001 24.7899 19.7896C24.5986 19.9791 24.3714 20.1295 24.1214 20.2321C23.8713 20.3347 23.6034 20.3875 23.3327 20.3875ZM25.1084 33.2604H21.5533V21.9355H25.1084V33.2604ZM40.1932 13.0407H19.7687C19.3051 13.0355 18.8584 13.2128 18.5268 13.5335C18.1951 13.8543 18.0057 14.2923 18 14.7513V35.0585C18.0055 35.5178 18.1948 35.9561 18.5264 36.2772C18.8581 36.5983 19.3049 36.7759 19.7687 36.771H40.1932C40.6579 36.7767 41.106 36.5996 41.4389 36.2786C41.7719 35.9575 41.9625 35.5187 41.9689 35.0585V14.7498C41.9623 14.2899 41.7715 13.8514 41.4386 13.5307C41.1056 13.2099 40.6577 13.0331 40.1932 13.0392" fill="white"/>
</g>
<rect width="210" height="50" transform="translate(60)" fill="#0A66C2"/>
<path d="M94.184 30.5V19.3H95.528V29.428H100.744V30.5H94.184ZM105.783 30.692C105.036 30.692 104.364 30.5213 103.767 30.18C103.169 29.8387 102.695 29.3587 102.343 28.74C102.001 28.1107 101.831 27.3747 101.831 26.532C101.831 25.6893 102.007 24.9587 102.359 24.34C102.711 23.7107 103.185 23.2253 103.783 22.884C104.391 22.5427 105.068 22.372 105.815 22.372C106.561 22.372 107.233 22.5427 107.831 22.884C108.428 23.2253 108.897 23.7107 109.239 24.34C109.591 24.9587 109.767 25.6893 109.767 26.532C109.767 27.3747 109.591 28.1107 109.239 28.74C108.887 29.3587 108.407 29.8387 107.799 30.18C107.201 30.5213 106.529 30.692 105.783 30.692ZM105.783 29.54C106.241 29.54 106.668 29.428 107.063 29.204C107.457 28.98 107.777 28.644 108.023 28.196C108.268 27.748 108.391 27.1933 108.391 26.532C108.391 25.8707 108.268 25.316 108.023 24.868C107.788 24.42 107.473 24.084 107.079 23.86C106.684 23.636 106.263 23.524 105.815 23.524C105.356 23.524 104.929 23.636 104.535 23.86C104.14 24.084 103.82 24.42 103.575 24.868C103.329 25.316 103.207 25.8707 103.207 26.532C103.207 27.1933 103.329 27.748 103.575 28.196C103.82 28.644 104.135 28.98 104.519 29.204C104.913 29.428 105.335 29.54 105.783 29.54ZM114.428 28.004C113.98 28.004 113.569 27.9453 113.196 27.828L112.396 28.58C112.513 28.6653 112.657 28.74 112.828 28.804C113.009 28.8573 113.265 28.9107 113.596 28.964C113.926 29.0067 114.39 29.0547 114.988 29.108C116.054 29.1827 116.817 29.428 117.276 29.844C117.734 30.26 117.964 30.804 117.964 31.476C117.964 31.9347 117.836 32.372 117.58 32.788C117.334 33.204 116.95 33.5453 116.428 33.812C115.916 34.0787 115.254 34.212 114.444 34.212C113.729 34.212 113.094 34.116 112.539 33.924C111.985 33.7427 111.553 33.46 111.243 33.076C110.934 32.7027 110.78 32.228 110.78 31.652C110.78 31.3533 110.86 31.028 111.02 30.676C111.18 30.3347 111.478 30.0093 111.916 29.7C111.681 29.604 111.478 29.5027 111.308 29.396C111.148 29.2787 110.998 29.1507 110.86 29.012V28.644L112.22 27.3C111.59 26.7667 111.276 26.0627 111.276 25.188C111.276 24.6653 111.398 24.1907 111.644 23.764C111.889 23.3373 112.246 23.0013 112.716 22.756C113.185 22.5 113.756 22.372 114.428 22.372C114.886 22.372 115.302 22.436 115.676 22.564H118.604V23.572L117.116 23.636C117.425 24.084 117.58 24.6013 117.58 25.188C117.58 25.7107 117.452 26.1853 117.196 26.612C116.95 27.0387 116.593 27.38 116.124 27.636C115.665 27.8813 115.1 28.004 114.428 28.004ZM114.428 26.9C114.993 26.9 115.441 26.756 115.772 26.468C116.113 26.1693 116.284 25.7427 116.284 25.188C116.284 24.644 116.113 24.228 115.772 23.94C115.441 23.6413 114.993 23.492 114.428 23.492C113.852 23.492 113.393 23.6413 113.052 23.94C112.721 24.228 112.556 24.644 112.556 25.188C112.556 25.7427 112.721 26.1693 113.052 26.468C113.393 26.756 113.852 26.9 114.428 26.9ZM112.092 31.524C112.092 32.0573 112.316 32.452 112.764 32.708C113.212 32.9747 113.772 33.108 114.444 33.108C115.105 33.108 115.633 32.964 116.028 32.676C116.433 32.388 116.636 32.004 116.636 31.524C116.636 31.1827 116.497 30.884 116.22 30.628C115.942 30.3827 115.43 30.2387 114.684 30.196C114.097 30.1533 113.59 30.1 113.164 30.036C112.726 30.2707 112.438 30.5213 112.299 30.788C112.161 31.0653 112.092 31.3107 112.092 31.524ZM125.17 20.804C124.903 20.804 124.679 20.7187 124.498 20.548C124.327 20.3667 124.242 20.1427 124.242 19.876C124.242 19.62 124.327 19.4067 124.498 19.236C124.679 19.0653 124.903 18.98 125.17 18.98C125.426 18.98 125.645 19.0653 125.826 19.236C126.007 19.4067 126.098 19.62 126.098 19.876C126.098 20.1427 126.007 20.3667 125.826 20.548C125.645 20.7187 125.426 20.804 125.17 20.804ZM124.498 30.5V22.564H125.842V30.5H124.498ZM128.182 30.5V22.564H129.398L129.478 23.988C129.734 23.4867 130.102 23.092 130.582 22.804C131.062 22.516 131.606 22.372 132.214 22.372C133.153 22.372 133.899 22.66 134.454 23.236C135.019 23.8013 135.302 24.676 135.302 25.86V30.5H133.958V26.004C133.958 24.3507 133.275 23.524 131.91 23.524C131.227 23.524 130.657 23.7747 130.198 24.276C129.75 24.7667 129.526 25.4707 129.526 26.388V30.5H128.182ZM143.173 30.5L140.853 22.564H142.197L143.877 28.788L145.733 22.564H147.253L149.125 28.788L150.789 22.564H152.149L149.829 30.5H148.453L146.501 23.956L144.549 30.5H143.173ZM154.451 20.804C154.185 20.804 153.961 20.7187 153.779 20.548C153.609 20.3667 153.523 20.1427 153.523 19.876C153.523 19.62 153.609 19.4067 153.779 19.236C153.961 19.0653 154.185 18.98 154.451 18.98C154.707 18.98 154.926 19.0653 155.107 19.236C155.289 19.4067 155.379 19.62 155.379 19.876C155.379 20.1427 155.289 20.3667 155.107 20.548C154.926 20.7187 154.707 20.804 154.451 20.804ZM153.779 30.5V22.564H155.123V30.5H153.779ZM160.599 30.5C159.874 30.5 159.303 30.324 158.887 29.972C158.471 29.62 158.263 28.9853 158.263 28.068V23.7H156.887V22.564H158.263L158.439 20.66H159.607V22.564H161.943V23.7H159.607V28.068C159.607 28.5693 159.709 28.9107 159.911 29.092C160.114 29.2627 160.471 29.348 160.983 29.348H161.815V30.5H160.599ZM163.651 30.5V18.98H164.995V23.924C165.262 23.4333 165.64 23.0547 166.131 22.788C166.622 22.5107 167.155 22.372 167.731 22.372C168.648 22.372 169.384 22.66 169.939 23.236C170.494 23.8013 170.771 24.676 170.771 25.86V30.5H169.443V26.004C169.443 24.3507 168.776 23.524 167.443 23.524C166.75 23.524 166.168 23.7747 165.699 24.276C165.23 24.7667 164.995 25.4707 164.995 26.388V30.5H163.651ZM177.122 30.5V19.3H178.466V29.428H183.682V30.5H177.122ZM186.264 20.804C185.997 20.804 185.773 20.7187 185.592 20.548C185.421 20.3667 185.336 20.1427 185.336 19.876C185.336 19.62 185.421 19.4067 185.592 19.236C185.773 19.0653 185.997 18.98 186.264 18.98C186.52 18.98 186.738 19.0653 186.92 19.236C187.101 19.4067 187.192 19.62 187.192 19.876C187.192 20.1427 187.101 20.3667 186.92 20.548C186.738 20.7187 186.52 20.804 186.264 20.804ZM185.592 30.5V22.564H186.936V30.5H185.592ZM189.276 30.5V22.564H190.492L190.572 23.988C190.828 23.4867 191.196 23.092 191.676 22.804C192.156 22.516 192.7 22.372 193.308 22.372C194.247 22.372 194.993 22.66 195.548 23.236C196.113 23.8013 196.396 24.676 196.396 25.86V30.5H195.052V26.004C195.052 24.3507 194.369 23.524 193.004 23.524C192.321 23.524 191.751 23.7747 191.292 24.276C190.844 24.7667 190.62 25.4707 190.62 26.388V30.5H189.276ZM198.432 30.5V18.98H199.776V25.908L203.024 22.564H204.672L201.152 26.148L205.12 30.5H203.408L199.776 26.388V30.5H198.432ZM209.485 30.692C208.727 30.692 208.055 30.5213 207.469 30.18C206.882 29.828 206.418 29.3427 206.077 28.724C205.746 28.1053 205.581 27.3747 205.581 26.532C205.581 25.7 205.746 24.9747 206.077 24.356C206.407 23.7267 206.866 23.2413 207.453 22.9C208.05 22.548 208.738 22.372 209.516 22.372C210.285 22.372 210.946 22.548 211.501 22.9C212.066 23.2413 212.498 23.6947 212.797 24.26C213.095 24.8253 213.245 25.4333 213.245 26.084C213.245 26.2013 213.239 26.3187 213.229 26.436C213.229 26.5533 213.229 26.6867 213.229 26.836H206.909C206.941 27.444 207.079 27.9507 207.325 28.356C207.581 28.7507 207.895 29.0493 208.269 29.252C208.653 29.4547 209.058 29.556 209.485 29.556C210.039 29.556 210.503 29.428 210.877 29.172C211.25 28.916 211.522 28.5693 211.693 28.132H213.021C212.807 28.868 212.397 29.4813 211.789 29.972C211.191 30.452 210.423 30.692 209.485 30.692ZM209.485 23.508C208.845 23.508 208.274 23.7053 207.773 24.1C207.282 24.484 206.999 25.0493 206.924 25.796H211.917C211.885 25.0813 211.639 24.5213 211.181 24.116C210.722 23.7107 210.157 23.508 209.485 23.508ZM218.626 30.692C217.837 30.692 217.143 30.5107 216.546 30.148C215.959 29.7853 215.501 29.2893 215.17 28.66C214.85 28.0307 214.69 27.316 214.69 26.516C214.69 25.716 214.855 25.0067 215.186 24.388C215.517 23.7587 215.975 23.268 216.562 22.916C217.149 22.5533 217.842 22.372 218.642 22.372C219.293 22.372 219.869 22.5053 220.37 22.772C220.871 23.0387 221.261 23.412 221.538 23.892V18.98H222.882V30.5H221.666L221.538 29.188C221.282 29.572 220.914 29.9187 220.434 30.228C219.954 30.5373 219.351 30.692 218.626 30.692ZM218.77 29.524C219.303 29.524 219.773 29.4013 220.178 29.156C220.594 28.9 220.914 28.548 221.138 28.1C221.373 27.652 221.49 27.1293 221.49 26.532C221.49 25.9347 221.373 25.412 221.138 24.964C220.914 24.516 220.594 24.1693 220.178 23.924C219.773 23.668 219.303 23.54 218.77 23.54C218.247 23.54 217.778 23.668 217.362 23.924C216.957 24.1693 216.637 24.516 216.402 24.964C216.178 25.412 216.066 25.9347 216.066 26.532C216.066 27.1293 216.178 27.652 216.402 28.1C216.637 28.548 216.957 28.9 217.362 29.156C217.778 29.4013 218.247 29.524 218.77 29.524ZM225.889 20.804C225.622 20.804 225.398 20.7187 225.217 20.548C225.046 20.3667 224.961 20.1427 224.961 19.876C224.961 19.62 225.046 19.4067 225.217 19.236C225.398 19.0653 225.622 18.98 225.889 18.98C226.145 18.98 226.363 19.0653 226.545 19.236C226.726 19.4067 226.817 19.62 226.817 19.876C226.817 20.1427 226.726 20.3667 226.545 20.548C226.363 20.7187 226.145 20.804 225.889 20.804ZM225.217 30.5V22.564H226.561V30.5H225.217ZM228.901 30.5V22.564H230.117L230.197 23.988C230.453 23.4867 230.821 23.092 231.301 22.804C231.781 22.516 232.325 22.372 232.933 22.372C233.872 22.372 234.618 22.66 235.173 23.236C235.738 23.8013 236.021 24.676 236.021 25.86V30.5H234.677V26.004C234.677 24.3507 233.994 23.524 232.629 23.524C231.946 23.524 231.376 23.7747 230.917 24.276C230.469 24.7667 230.245 25.4707 230.245 26.388V30.5H228.901Z" fill="white"/>
</g>
<defs>
<clipPath id="clip0_4416_290387">
<rect width="270" height="50" rx="10" fill="white"/>
</clipPath>
<clipPath id="clip1_4416_290387">
<rect width="24" height="24" fill="white" transform="translate(18 13)"/>
</clipPath>
</defs>
</svg>
