<svg width="20" height="21" viewBox="0 0 20 21" fill="none" xmlns="http://www.w3.org/2000/svg">
<path d="M17.0189 17.1401H14.0593V12.551C14.0593 11.4567 14.0396 10.048 12.5201 10.048C10.9787 10.048 10.7428 11.2403 10.7428 12.4714V17.1398H7.78326V7.70277H10.6244V8.99244H10.6642C10.9485 8.51108 11.3594 8.11509 11.853 7.84664C12.3467 7.57819 12.9046 7.44735 13.4674 7.46803C16.4671 7.46803 17.0201 9.42163 17.0201 11.9631L17.0189 17.1401ZM4.44392 6.41279C4.10424 6.41285 3.77216 6.31317 3.4897 6.12636C3.20723 5.93956 2.98707 5.67401 2.85702 5.3633C2.72697 5.05259 2.69289 4.71067 2.7591 4.38079C2.82531 4.0509 2.98883 3.74787 3.22898 3.51C3.46913 3.27213 3.77512 3.11011 4.10826 3.04444C4.4414 2.97876 4.78673 3.01238 5.10057 3.14103C5.41442 3.26969 5.68269 3.4876 5.87146 3.76722C6.06022 4.04684 6.16101 4.37561 6.16108 4.71194C6.16112 4.93526 6.11673 5.1564 6.03045 5.36273C5.94418 5.56907 5.81772 5.75656 5.65827 5.91449C5.49882 6.07243 5.30949 6.19773 5.10114 6.28322C4.89278 6.36872 4.66946 6.41275 4.44392 6.41279ZM5.92369 17.1401H2.96107V7.70277H5.92369V17.1401ZM18.4943 0.29041H1.47391C1.0876 0.286093 0.715337 0.433814 0.438964 0.701112C0.162591 0.96841 0.00471477 1.33342 0 1.71592V18.6386C0.0045534 19.0213 0.162337 19.3866 0.438701 19.6541C0.715064 19.9217 1.08741 20.0697 1.47391 20.0657H18.4943C18.8816 20.0705 19.255 19.9229 19.5324 19.6553C19.8099 19.3877 19.9687 19.0221 19.9741 18.6386V1.7147C19.9686 1.33144 19.8096 0.966015 19.5322 0.698724C19.2547 0.431433 18.8814 0.284134 18.4943 0.289188" fill="white"/>
</svg>
