<svg width="137" height="30" viewBox="0 0 137 30" fill="none" xmlns="http://www.w3.org/2000/svg">
<g filter="url(#filter0_d_4458_304108)">
<rect x="2" y="1" width="133" height="26" rx="13" fill="white"/>
<rect x="2" y="1" width="133" height="26" rx="13" fill="#336CDB" fill-opacity="0.15"/>
<path d="M16.76 19V9.176H13.448V7.8H21.752V9.176H18.456V19H16.76ZM23.3391 19V7.8H30.4591V9.176H25.0351V12.664H29.9791V14.008H25.0351V17.624H30.4591V19H23.3391ZM36.1758 19.192C35.3544 19.192 34.6344 19.048 34.0158 18.76C33.3971 18.472 32.9118 18.0613 32.5598 17.528C32.2184 16.9947 32.0424 16.36 32.0318 15.624H33.8238C33.8344 16.2213 34.0424 16.728 34.4478 17.144C34.8531 17.56 35.4238 17.768 36.1598 17.768C36.8104 17.768 37.3171 17.6133 37.6798 17.304C38.0531 16.984 38.2398 16.5787 38.2398 16.088C38.2398 15.6933 38.1491 15.3733 37.9678 15.128C37.7971 14.8827 37.5571 14.68 37.2478 14.52C36.9491 14.36 36.6024 14.216 36.2078 14.088C35.8131 13.96 35.3971 13.8213 34.9598 13.672C34.0958 13.384 33.4451 13.0107 33.0078 12.552C32.5811 12.0933 32.3678 11.4907 32.3678 10.744C32.3571 10.1147 32.5011 9.56533 32.7998 9.096C33.1091 8.62667 33.5358 8.264 34.0798 8.008C34.6344 7.74133 35.2798 7.608 36.0158 7.608C36.7411 7.608 37.3758 7.74133 37.9198 8.008C38.4744 8.27467 38.9064 8.648 39.2158 9.128C39.5251 9.59733 39.6851 10.1467 39.6958 10.776H37.9038C37.9038 10.488 37.8291 10.216 37.6798 9.96C37.5304 9.69333 37.3118 9.47467 37.0238 9.304C36.7358 9.13333 36.3838 9.048 35.9678 9.048C35.4344 9.03733 34.9918 9.17067 34.6398 9.448C34.2984 9.72533 34.1278 10.1093 34.1278 10.6C34.1278 11.0373 34.2558 11.3733 34.5118 11.608C34.7678 11.8427 35.1198 12.04 35.5677 12.2C36.0158 12.3493 36.5278 12.5253 37.1038 12.728C37.6584 12.9093 38.1544 13.128 38.5918 13.384C39.0291 13.64 39.3758 13.976 39.6318 14.392C39.8984 14.808 40.0318 15.336 40.0318 15.976C40.0318 16.5413 39.8878 17.0693 39.5998 17.56C39.3118 18.04 38.8798 18.4347 38.3038 18.744C37.7278 19.0427 37.0184 19.192 36.1758 19.192ZM44.3069 19V9.176H40.9949V7.8H49.2989V9.176H46.0029V19H44.3069ZM50.886 19V7.8H52.582V19H50.886ZM54.8548 19V7.8H56.8548L60.6468 15.256L64.4228 7.8H66.4228V19H64.7268V10.728L61.3028 17.4H59.9908L56.5508 10.744V19H54.8548ZM73.8665 19.192C72.7572 19.192 71.7865 18.9467 70.9545 18.456C70.1225 17.9653 69.4718 17.288 69.0025 16.424C68.5332 15.5493 68.2985 14.5413 68.2985 13.4C68.2985 12.2587 68.5332 11.256 69.0025 10.392C69.4718 9.51733 70.1225 8.83467 70.9545 8.344C71.7865 7.85333 72.7572 7.608 73.8665 7.608C74.9758 7.608 75.9465 7.85333 76.7785 8.344C77.6105 8.83467 78.2558 9.51733 78.7145 10.392C79.1838 11.256 79.4185 12.2587 79.4185 13.4C79.4185 14.5413 79.1838 15.5493 78.7145 16.424C78.2558 17.288 77.6105 17.9653 76.7785 18.456C75.9465 18.9467 74.9758 19.192 73.8665 19.192ZM73.8665 17.672C74.6345 17.672 75.3012 17.5013 75.8665 17.16C76.4425 16.8187 76.8905 16.328 77.2105 15.688C77.5305 15.048 77.6905 14.2853 77.6905 13.4C77.6905 12.5147 77.5305 11.752 77.2105 11.112C76.8905 10.472 76.4425 9.98133 75.8665 9.64C75.3012 9.29867 74.6345 9.128 73.8665 9.128C73.0985 9.128 72.4265 9.29867 71.8505 9.64C71.2745 9.98133 70.8265 10.472 70.5065 11.112C70.1972 11.752 70.0425 12.5147 70.0425 13.4C70.0425 14.2853 70.1972 15.048 70.5065 15.688C70.8265 16.328 71.2745 16.8187 71.8505 17.16C72.4265 17.5013 73.0985 17.672 73.8665 17.672ZM81.3079 19V7.8H83.0039L88.6199 16.232V7.8H90.3159V19H88.6199L83.0039 10.568V19H81.3079ZM92.5891 19V7.8H94.2851V19H92.5891ZM95.8379 19L99.9659 7.8H101.822L105.918 19H104.126L103.166 16.264H98.5899L97.6299 19H95.8379ZM99.0699 14.92H102.686L100.878 9.816L99.0699 14.92ZM107.48 19V7.8H109.176V17.656H114.264V19H107.48ZM119.301 19.192C118.479 19.192 117.759 19.048 117.141 18.76C116.522 18.472 116.037 18.0613 115.685 17.528C115.343 16.9947 115.167 16.36 115.157 15.624H116.949C116.959 16.2213 117.167 16.728 117.573 17.144C117.978 17.56 118.549 17.768 119.285 17.768C119.935 17.768 120.442 17.6133 120.805 17.304C121.178 16.984 121.365 16.5787 121.365 16.088C121.365 15.6933 121.274 15.3733 121.093 15.128C120.922 14.8827 120.682 14.68 120.373 14.52C120.074 14.36 119.727 14.216 119.333 14.088C118.938 13.96 118.522 13.8213 118.085 13.672C117.221 13.384 116.57 13.0107 116.133 12.552C115.706 12.0933 115.493 11.4907 115.493 10.744C115.482 10.1147 115.626 9.56533 115.925 9.096C116.234 8.62667 116.661 8.264 117.205 8.008C117.759 7.74133 118.405 7.608 119.141 7.608C119.866 7.608 120.501 7.74133 121.045 8.008C121.599 8.27467 122.031 8.648 122.341 9.128C122.65 9.59733 122.81 10.1467 122.821 10.776H121.029C121.029 10.488 120.954 10.216 120.805 9.96C120.655 9.69333 120.437 9.47467 120.149 9.304C119.861 9.13333 119.509 9.048 119.093 9.048C118.559 9.03733 118.117 9.17067 117.765 9.448C117.423 9.72533 117.253 10.1093 117.253 10.6C117.253 11.0373 117.381 11.3733 117.637 11.608C117.893 11.8427 118.245 12.04 118.693 12.2C119.141 12.3493 119.653 12.5253 120.229 12.728C120.783 12.9093 121.279 13.128 121.717 13.384C122.154 13.64 122.501 13.976 122.757 14.392C123.023 14.808 123.157 15.336 123.157 15.976C123.157 16.5413 123.013 17.0693 122.725 17.56C122.437 18.04 122.005 18.4347 121.429 18.744C120.853 19.0427 120.143 19.192 119.301 19.192Z" fill="#336CDB"/>
</g>
<defs>
<filter id="filter0_d_4458_304108" x="0" y="0" width="137" height="30" filterUnits="userSpaceOnUse" color-interpolation-filters="sRGB">
<feFlood flood-opacity="0" result="BackgroundImageFix"/>
<feColorMatrix in="SourceAlpha" type="matrix" values="0 0 0 0 0 0 0 0 0 0 0 0 0 0 0 0 0 0 127 0" result="hardAlpha"/>
<feOffset dy="1"/>
<feGaussianBlur stdDeviation="1"/>
<feColorMatrix type="matrix" values="0 0 0 0 0.411765 0 0 0 0 0.317647 0 0 0 0 1 0 0 0 0.05 0"/>
<feBlend mode="normal" in2="BackgroundImageFix" result="effect1_dropShadow_4458_304108"/>
<feBlend mode="normal" in="SourceGraphic" in2="effect1_dropShadow_4458_304108" result="shape"/>
</filter>
</defs>
</svg>
