<svg width="21" height="21" viewBox="0 0 21 21" fill="none" xmlns="http://www.w3.org/2000/svg">
<rect x="0.5" y="0.5" width="20" height="20" rx="10" fill="#336CDB"/>
<path d="M10.4881 15.668C9.84408 15.668 9.26074 15.556 8.73808 15.332C8.21541 15.0987 7.79541 14.744 7.47808 14.268C7.16074 13.792 6.99274 13.1947 6.97408 12.476H8.73808C8.74741 12.952 8.90141 13.3533 9.20008 13.68C9.50808 13.9973 9.93741 14.156 10.4881 14.156C11.0107 14.156 11.4121 14.0113 11.6921 13.722C11.9721 13.4327 12.1121 13.0687 12.1121 12.63C12.1121 12.1167 11.9254 11.7293 11.5521 11.468C11.1881 11.1973 10.7167 11.062 10.1381 11.062H9.41008V9.592H10.1521C10.6281 9.592 11.0247 9.48 11.3421 9.256C11.6594 9.032 11.8181 8.70067 11.8181 8.262C11.8181 7.898 11.6967 7.60867 11.4541 7.394C11.2207 7.17 10.8941 7.058 10.4741 7.058C10.0167 7.058 9.65741 7.19333 9.39608 7.464C9.14408 7.73467 9.00408 8.066 8.97608 8.458H7.22608C7.26341 7.55267 7.57608 6.83867 8.16408 6.316C8.76141 5.79333 9.53141 5.532 10.4741 5.532C11.1461 5.532 11.7107 5.65333 12.1681 5.896C12.6347 6.12933 12.9847 6.442 13.2181 6.834C13.4607 7.226 13.5821 7.66 13.5821 8.136C13.5821 8.68667 13.4281 9.15333 13.1201 9.536C12.8214 9.90933 12.4481 10.1613 12.0001 10.292C12.5507 10.404 12.9987 10.6747 13.3441 11.104C13.6894 11.524 13.8621 12.056 13.8621 12.7C13.8621 13.2413 13.7314 13.736 13.4701 14.184C13.2087 14.632 12.8261 14.9913 12.3221 15.262C11.8274 15.5327 11.2161 15.668 10.4881 15.668Z" fill="white"/>
</svg>
