<svg width="270" height="50" viewBox="0 0 270 50" fill="none" xmlns="http://www.w3.org/2000/svg">
<g clip-path="url(#clip0_4416_290388)">
<rect width="60" height="50" fill="#1D9BF0"/>
<rect width="60" height="50" fill="black" fill-opacity="0.2"/>
<g clip-path="url(#clip1_4416_290388)">
<path d="M39.478 20.078C39.4925 20.2884 39.4925 20.4988 39.4925 20.7111C39.4925 27.1814 34.5763 34.6436 25.587 34.6436V34.6397C22.9315 34.6436 20.3312 33.8815 18.0957 32.4445C18.4818 32.491 18.8699 32.5143 19.2589 32.5153C21.4596 32.5172 23.5973 31.7774 25.3286 30.4151C23.2373 30.3753 21.4034 29.0091 20.7628 27.0146C21.4954 27.1562 22.2502 27.1271 22.9693 26.9303C20.6893 26.4687 19.0489 24.4616 19.0489 22.1307C19.0489 22.1093 19.0489 22.089 19.0489 22.0686C19.7283 22.4477 20.4889 22.6581 21.267 22.6814C19.1196 21.2435 18.4576 18.3812 19.7544 16.1433C22.2357 19.2024 25.8967 21.0622 29.8267 21.259C29.4328 19.5583 29.9709 17.7761 31.2405 16.5806C33.2089 14.7267 36.3047 14.8217 38.1551 16.7929C39.2496 16.5767 40.2986 16.1743 41.2586 15.6042C40.8938 16.7376 40.1302 17.7005 39.1102 18.3123C40.0789 18.1979 41.0254 17.938 41.9167 17.5415C41.2605 18.5266 40.4341 19.3847 39.478 20.078Z" fill="white"/>
</g>
<rect width="210" height="50" transform="translate(60)" fill="#1D9BF0"/>
<path d="M98.684 30.5V19.3H100.028V29.428H105.244V30.5H98.684ZM110.283 30.692C109.536 30.692 108.864 30.5213 108.267 30.18C107.669 29.8387 107.195 29.3587 106.843 28.74C106.501 28.1107 106.331 27.3747 106.331 26.532C106.331 25.6893 106.507 24.9587 106.859 24.34C107.211 23.7107 107.685 23.2253 108.283 22.884C108.891 22.5427 109.568 22.372 110.315 22.372C111.061 22.372 111.733 22.5427 112.331 22.884C112.928 23.2253 113.397 23.7107 113.739 24.34C114.091 24.9587 114.267 25.6893 114.267 26.532C114.267 27.3747 114.091 28.1107 113.739 28.74C113.387 29.3587 112.907 29.8387 112.299 30.18C111.701 30.5213 111.029 30.692 110.283 30.692ZM110.283 29.54C110.741 29.54 111.168 29.428 111.563 29.204C111.957 28.98 112.277 28.644 112.523 28.196C112.768 27.748 112.891 27.1933 112.891 26.532C112.891 25.8707 112.768 25.316 112.523 24.868C112.288 24.42 111.973 24.084 111.579 23.86C111.184 23.636 110.763 23.524 110.315 23.524C109.856 23.524 109.429 23.636 109.035 23.86C108.64 24.084 108.32 24.42 108.075 24.868C107.829 25.316 107.707 25.8707 107.707 26.532C107.707 27.1933 107.829 27.748 108.075 28.196C108.32 28.644 108.635 28.98 109.019 29.204C109.413 29.428 109.835 29.54 110.283 29.54ZM118.928 28.004C118.48 28.004 118.069 27.9453 117.696 27.828L116.896 28.58C117.013 28.6653 117.157 28.74 117.328 28.804C117.509 28.8573 117.765 28.9107 118.096 28.964C118.426 29.0067 118.89 29.0547 119.488 29.108C120.554 29.1827 121.317 29.428 121.776 29.844C122.234 30.26 122.464 30.804 122.464 31.476C122.464 31.9347 122.336 32.372 122.08 32.788C121.834 33.204 121.45 33.5453 120.928 33.812C120.416 34.0787 119.754 34.212 118.944 34.212C118.229 34.212 117.594 34.116 117.039 33.924C116.485 33.7427 116.053 33.46 115.743 33.076C115.434 32.7027 115.28 32.228 115.28 31.652C115.28 31.3533 115.36 31.028 115.52 30.676C115.68 30.3347 115.978 30.0093 116.416 29.7C116.181 29.604 115.978 29.5027 115.808 29.396C115.648 29.2787 115.498 29.1507 115.36 29.012V28.644L116.72 27.3C116.09 26.7667 115.776 26.0627 115.776 25.188C115.776 24.6653 115.898 24.1907 116.144 23.764C116.389 23.3373 116.746 23.0013 117.216 22.756C117.685 22.5 118.256 22.372 118.928 22.372C119.386 22.372 119.802 22.436 120.176 22.564H123.104V23.572L121.616 23.636C121.925 24.084 122.08 24.6013 122.08 25.188C122.08 25.7107 121.952 26.1853 121.696 26.612C121.45 27.0387 121.093 27.38 120.624 27.636C120.165 27.8813 119.6 28.004 118.928 28.004ZM118.928 26.9C119.493 26.9 119.941 26.756 120.272 26.468C120.613 26.1693 120.784 25.7427 120.784 25.188C120.784 24.644 120.613 24.228 120.272 23.94C119.941 23.6413 119.493 23.492 118.928 23.492C118.352 23.492 117.893 23.6413 117.552 23.94C117.221 24.228 117.056 24.644 117.056 25.188C117.056 25.7427 117.221 26.1693 117.552 26.468C117.893 26.756 118.352 26.9 118.928 26.9ZM116.592 31.524C116.592 32.0573 116.816 32.452 117.264 32.708C117.712 32.9747 118.272 33.108 118.944 33.108C119.605 33.108 120.133 32.964 120.528 32.676C120.933 32.388 121.136 32.004 121.136 31.524C121.136 31.1827 120.997 30.884 120.72 30.628C120.442 30.3827 119.93 30.2387 119.184 30.196C118.597 30.1533 118.09 30.1 117.664 30.036C117.226 30.2707 116.938 30.5213 116.799 30.788C116.661 31.0653 116.592 31.3107 116.592 31.524ZM129.67 20.804C129.403 20.804 129.179 20.7187 128.998 20.548C128.827 20.3667 128.742 20.1427 128.742 19.876C128.742 19.62 128.827 19.4067 128.998 19.236C129.179 19.0653 129.403 18.98 129.67 18.98C129.926 18.98 130.145 19.0653 130.326 19.236C130.507 19.4067 130.598 19.62 130.598 19.876C130.598 20.1427 130.507 20.3667 130.326 20.548C130.145 20.7187 129.926 20.804 129.67 20.804ZM128.998 30.5V22.564H130.342V30.5H128.998ZM132.682 30.5V22.564H133.898L133.978 23.988C134.234 23.4867 134.602 23.092 135.082 22.804C135.562 22.516 136.106 22.372 136.714 22.372C137.653 22.372 138.399 22.66 138.954 23.236C139.519 23.8013 139.802 24.676 139.802 25.86V30.5H138.458V26.004C138.458 24.3507 137.775 23.524 136.41 23.524C135.727 23.524 135.157 23.7747 134.698 24.276C134.25 24.7667 134.026 25.4707 134.026 26.388V30.5H132.682ZM147.673 30.5L145.353 22.564H146.697L148.377 28.788L150.233 22.564H151.753L153.625 28.788L155.289 22.564H156.649L154.329 30.5H152.953L151.001 23.956L149.049 30.5H147.673ZM158.951 20.804C158.685 20.804 158.461 20.7187 158.279 20.548C158.109 20.3667 158.023 20.1427 158.023 19.876C158.023 19.62 158.109 19.4067 158.279 19.236C158.461 19.0653 158.685 18.98 158.951 18.98C159.207 18.98 159.426 19.0653 159.607 19.236C159.789 19.4067 159.879 19.62 159.879 19.876C159.879 20.1427 159.789 20.3667 159.607 20.548C159.426 20.7187 159.207 20.804 158.951 20.804ZM158.279 30.5V22.564H159.623V30.5H158.279ZM165.099 30.5C164.374 30.5 163.803 30.324 163.387 29.972C162.971 29.62 162.763 28.9853 162.763 28.068V23.7H161.387V22.564H162.763L162.939 20.66H164.107V22.564H166.443V23.7H164.107V28.068C164.107 28.5693 164.209 28.9107 164.411 29.092C164.614 29.2627 164.971 29.348 165.483 29.348H166.315V30.5H165.099ZM168.151 30.5V18.98H169.495V23.924C169.762 23.4333 170.14 23.0547 170.631 22.788C171.122 22.5107 171.655 22.372 172.231 22.372C173.148 22.372 173.884 22.66 174.439 23.236C174.994 23.8013 175.271 24.676 175.271 25.86V30.5H173.943V26.004C173.943 24.3507 173.276 23.524 171.943 23.524C171.25 23.524 170.668 23.7747 170.199 24.276C169.73 24.7667 169.495 25.4707 169.495 26.388V30.5H168.151ZM184.246 30.5V20.404H180.902V19.3H188.934V20.404H185.59V30.5H184.246ZM191.251 30.5L188.931 22.564H190.275L191.955 28.788L193.811 22.564H195.331L197.203 28.788L198.867 22.564H200.227L197.907 30.5H196.531L194.579 23.956L192.627 30.5H191.251ZM202.529 20.804C202.263 20.804 202.039 20.7187 201.857 20.548C201.687 20.3667 201.601 20.1427 201.601 19.876C201.601 19.62 201.687 19.4067 201.857 19.236C202.039 19.0653 202.263 18.98 202.529 18.98C202.785 18.98 203.004 19.0653 203.185 19.236C203.367 19.4067 203.457 19.62 203.457 19.876C203.457 20.1427 203.367 20.3667 203.185 20.548C203.004 20.7187 202.785 20.804 202.529 20.804ZM201.857 30.5V22.564H203.201V30.5H201.857ZM208.678 30.5C207.952 30.5 207.382 30.324 206.966 29.972C206.55 29.62 206.342 28.9853 206.342 28.068V23.7H204.965V22.564H206.342L206.518 20.66H207.686V22.564H210.022V23.7H207.686V28.068C207.686 28.5693 207.787 28.9107 207.99 29.092C208.192 29.2627 208.55 29.348 209.062 29.348H209.894V30.5H208.678ZM214.865 30.5C214.14 30.5 213.569 30.324 213.153 29.972C212.737 29.62 212.529 28.9853 212.529 28.068V23.7H211.153V22.564H212.529L212.705 20.66H213.873V22.564H216.209V23.7H213.873V28.068C213.873 28.5693 213.974 28.9107 214.177 29.092C214.38 29.2627 214.737 29.348 215.249 29.348H216.081V30.5H214.865ZM221.266 30.692C220.508 30.692 219.836 30.5213 219.25 30.18C218.663 29.828 218.199 29.3427 217.858 28.724C217.527 28.1053 217.362 27.3747 217.362 26.532C217.362 25.7 217.527 24.9747 217.858 24.356C218.188 23.7267 218.647 23.2413 219.234 22.9C219.831 22.548 220.519 22.372 221.298 22.372C222.066 22.372 222.727 22.548 223.282 22.9C223.847 23.2413 224.279 23.6947 224.578 24.26C224.876 24.8253 225.026 25.4333 225.026 26.084C225.026 26.2013 225.02 26.3187 225.01 26.436C225.01 26.5533 225.01 26.6867 225.01 26.836H218.69C218.722 27.444 218.86 27.9507 219.106 28.356C219.362 28.7507 219.676 29.0493 220.05 29.252C220.434 29.4547 220.839 29.556 221.266 29.556C221.82 29.556 222.284 29.428 222.658 29.172C223.031 28.916 223.303 28.5693 223.474 28.132H224.802C224.588 28.868 224.178 29.4813 223.57 29.972C222.972 30.452 222.204 30.692 221.266 30.692ZM221.266 23.508C220.626 23.508 220.055 23.7053 219.554 24.1C219.063 24.484 218.78 25.0493 218.706 25.796H223.698C223.666 25.0813 223.42 24.5213 222.962 24.116C222.503 23.7107 221.938 23.508 221.266 23.508ZM226.807 30.5V22.564H228.023L228.135 24.084C228.38 23.5613 228.754 23.1453 229.255 22.836C229.756 22.5267 230.375 22.372 231.111 22.372V23.78H230.743C230.274 23.78 229.842 23.8653 229.447 24.036C229.052 24.196 228.738 24.4733 228.503 24.868C228.268 25.2627 228.151 25.8067 228.151 26.5V30.5H226.807Z" fill="white"/>
</g>
<defs>
<clipPath id="clip0_4416_290388">
<rect width="270" height="50" rx="10" fill="white"/>
</clipPath>
<clipPath id="clip1_4416_290388">
<rect width="24" height="19.7802" fill="white" transform="translate(18 15.1094)"/>
</clipPath>
</defs>
</svg>
