<svg width="20" height="17" viewBox="0 0 20 17" fill="none" xmlns="http://www.w3.org/2000/svg">
<path d="M17.8967 4.15613C17.9088 4.33147 17.9088 4.50681 17.9088 4.68377C17.9088 10.0757 13.812 16.2941 6.32087 16.2941V16.2909C4.10796 16.2941 1.94103 15.659 0.078125 14.4616C0.399899 14.5003 0.723286 14.5197 1.04748 14.5205C2.88135 14.5222 4.6628 13.9056 6.10554 12.7704C4.3628 12.7373 2.83458 11.5988 2.30071 9.93668C2.91119 10.0546 3.54022 10.0304 4.13942 9.86638C2.23942 9.48176 0.87248 7.80917 0.87248 5.8667C0.87248 5.84893 0.87248 5.83196 0.87248 5.81499C1.43861 6.13092 2.07248 6.30626 2.72087 6.32566C0.931351 5.12737 0.379738 2.74211 1.46038 0.877207C3.52812 3.4265 6.57893 4.97627 9.85393 5.1403C9.52571 3.72304 9.97409 2.23791 11.0322 1.24162C12.6725 -0.303304 15.2523 -0.224118 16.7943 1.41858C17.7064 1.23839 18.5805 0.903063 19.3805 0.42795C19.0765 1.37252 18.4402 2.17488 17.5902 2.68474C18.3975 2.58939 19.1862 2.37284 19.9289 2.04237C19.3822 2.86331 18.6934 3.5784 17.8967 4.15613Z" fill="white"/>
</svg>
