<svg width="20" height="21" viewBox="0 0 20 21" fill="none" xmlns="http://www.w3.org/2000/svg">
<rect y="0.5" width="20" height="20" rx="10" fill="#336CDB"/>
<path d="M6.71498 15.5V14.198C7.31231 13.7033 7.89098 13.2133 8.45098 12.728C9.02031 12.2427 9.52431 11.762 9.96298 11.286C10.411 10.81 10.7656 10.348 11.027 9.9C11.2976 9.44267 11.433 8.99933 11.433 8.57C11.433 8.16867 11.321 7.814 11.097 7.506C10.8823 7.198 10.523 7.044 10.019 7.044C9.50564 7.044 9.11831 7.212 8.85698 7.548C8.59564 7.884 8.46498 8.29 8.46498 8.766H6.72898C6.74764 8.04733 6.90631 7.45 7.20498 6.974C7.50364 6.48867 7.90031 6.12933 8.39498 5.896C8.88964 5.65333 9.44498 5.532 10.061 5.532C11.0596 5.532 11.8343 5.80733 12.385 6.358C12.945 6.89933 13.225 7.604 13.225 8.472C13.225 9.01333 13.099 9.54067 12.847 10.054C12.6043 10.5673 12.2823 11.062 11.881 11.538C11.4796 12.014 11.0456 12.462 10.579 12.882C10.1123 13.2927 9.65964 13.6753 9.22098 14.03H13.463V15.5H6.71498Z" fill="white"/>
</svg>
